<svg viewBox="0 0 307.57 161.07" xmlns="http://www.w3.org/2000/svg"><path d="m195.95 0h-187.4c-4.71 0-8.55 3.84-8.55 8.55v61.92c0 4.72 3.84 8.55 8.55 8.55h11.44v10.19c0 1.68 1.38 3.06 3.07 3.06.9 0 1.75-.4 2.33-1.1l10.12-12.15h160.44c4.72 0 8.55-3.84 8.55-8.55v-61.92c0-4.71-3.83-8.55-8.55-8.55z" fill="#4986b4"/><path d="m128.15 30.2h-53.81c-.81 0-1.47-.66-1.47-1.47s.66-1.47 1.47-1.47h53.81c.81 0 1.47.66 1.47 1.47 0 .82-.65 1.47-1.47 1.47z" fill="#eab334"/><path d="m181.97 41.95h-107.63c-.81 0-1.47-.66-1.47-1.47s.66-1.47 1.47-1.47h107.63c.81 0 1.47.66 1.47 1.47s-.66 1.47-1.47 1.47z" fill="#fff"/><path d="m181.97 53.69h-107.63c-.81 0-1.47-.66-1.47-1.47s.66-1.47 1.47-1.47h107.63c.81 0 1.47.66 1.47 1.47s-.66 1.47-1.47 1.47z" fill="#fff"/><path d="m111.62 68.79h187.39c4.72 0 8.55 3.84 8.55 8.55v61.92c0 4.72-3.84 8.55-8.55 8.55h-11.44v10.19c0 1.68-1.38 3.06-3.07 3.06-.9 0-1.75-.4-2.33-1.1l-10.12-12.15h-160.43c-4.72 0-8.55-3.84-8.55-8.55v-61.92c-.01-4.71 3.83-8.55 8.55-8.55z" fill="#223a49"/><path d="m179.41 98.99h53.81c.81 0 1.47-.66 1.47-1.47s-.66-1.47-1.47-1.47h-53.81c-.81 0-1.47.66-1.47 1.47 0 .82.66 1.47 1.47 1.47z" fill="#eab334"/><g fill="#fff"><path d="m125.6 110.74h107.63c.81 0 1.47-.66 1.47-1.47s-.66-1.47-1.47-1.47h-107.63c-.81 0-1.47.66-1.47 1.47s.66 1.47 1.47 1.47z"/><path d="m125.6 122.48h107.63c.81 0 1.47-.66 1.47-1.47s-.66-1.47-1.47-1.47h-107.63c-.81 0-1.47.66-1.47 1.47s.66 1.47 1.47 1.47z"/><path d="m254.61 93.72h28.16v28.16h-28.16z"/><path d="m19.93 26.9h28.16v28.16h-28.16z"/></g></svg>