<svg viewBox="0 0 523.72 618.85" xmlns="http://www.w3.org/2000/svg"><path d="m307.22 0h-187.39c-4.72 0-8.55 3.84-8.55 8.55v61.92c0 4.72 3.84 8.55 8.55 8.55h11.44v10.19c0 1.68 1.38 3.06 3.07 3.06.9 0 1.75-.4 2.33-1.1l10.12-12.15h160.44c4.72 0 8.55-3.84 8.55-8.55v-61.92c0-4.71-3.84-8.55-8.56-8.55z" fill="#4986b4"/><path d="m239.43 30.2h-53.81c-.81 0-1.47-.66-1.47-1.47s.66-1.47 1.47-1.47h53.81c.81 0 1.47.66 1.47 1.47 0 .82-.66 1.47-1.47 1.47z" fill="#eab334"/><path d="m293.24 41.95h-107.62c-.81 0-1.47-.66-1.47-1.47s.66-1.47 1.47-1.47h107.63c.81 0 1.47.66 1.47 1.47-.01.81-.67 1.47-1.48 1.47z" fill="#fff"/><path d="m293.24 53.69h-107.62c-.81 0-1.47-.66-1.47-1.47s.66-1.47 1.47-1.47h107.63c.81 0 1.47.66 1.47 1.47s-.67 1.47-1.48 1.47z" fill="#fff"/><path d="m222.89 68.79h187.39c4.72 0 8.55 3.84 8.55 8.55v61.92c0 4.72-3.84 8.55-8.55 8.55h-11.44v10.19c0 1.68-1.38 3.06-3.07 3.06-.9 0-1.75-.4-2.33-1.1l-10.12-12.15h-160.43c-4.72 0-8.55-3.84-8.55-8.55v-61.92c0-4.71 3.84-8.55 8.55-8.55z" fill="#223a49"/><path d="m290.69 98.99h53.81c.81 0 1.47-.66 1.47-1.47s-.66-1.47-1.47-1.47h-53.81c-.81 0-1.47.66-1.47 1.47 0 .82.66 1.47 1.47 1.47z" fill="#eab334"/><path d="m236.87 110.74h107.63c.81 0 1.47-.66 1.47-1.47s-.66-1.47-1.47-1.47h-107.63c-.81 0-1.47.66-1.47 1.47s.66 1.47 1.47 1.47z" fill="#fff"/><path d="m236.87 122.48h107.63c.81 0 1.47-.66 1.47-1.47s-.66-1.47-1.47-1.47h-107.63c-.81 0-1.47.66-1.47 1.47s.66 1.47 1.47 1.47z" fill="#fff"/><path d="m365.88 93.72h28.16v28.16h-28.16z" fill="#fff"/><path d="m117.44 114.93c0-21.98-26.29-39.79-58.72-39.79s-58.72 17.81-58.72 39.79 26.29 39.79 58.72 39.79c11.79 0 22.76-2.36 31.96-6.42l13.62 5.07c.92.34 1.78-.64 1.31-1.51l-4.95-9.09c10.37-7.18 16.78-17 16.78-27.84z" fill="#eab334"/><path d="m239.1 280.05c-.83-12.97-3.79-15.33-7.22-18.07l-.54-.43c-3.65-2.96-8.28-3-8.54-3-.23-.03-.45.09-.61.26-.16.16-.25.39-.24.62.09 3.05-1.14 20.56-1.15 20.8l.18 27.49-.02-.03v32.52c2.51 1.91 5.07 3.07 7.49 3.07h.16c6.5-.13 7.03-8.99 7.29-13.24.05-.86.1-1.6.17-2.01.54-3.02 3.88-34.68 3.03-47.98z" fill="#eab334"/><path d="m206.04 605.44c-.18-.19-.45-.29-.7-.26l-19.55 1.99c-.41.04-.73.37-.76.78-.01.11-.19 2.77 0 4.52.02.18.03.4.03.63.06 1.84.19 5.64 6.87 5.64h.37c7.31-.15 11.68-.86 12.39-4.06.56-2.54 1.52-8.28 1.56-8.52.05-.26-.03-.53-.21-.72z" fill="#223a49"/><path d="m186.3 596.66c-1.42-.84-8.58-5.05-10.02-5.33-1.45-.28-6.6.61-7.62.8-.24.04-.44.18-.57.39-.13.2-.16.45-.09.68l1.54 5.33c-.2.98-.7 3.9.16 5.27.12.19.23.41.35.64.71 1.37 1.79 3.43 5.26 3.43.75 0 1.57.04 2.4.08.89.04 1.78.08 2.64.08 2.36 0 4.46-.3 5.45-1.75.08-.12.13-.26.14-.4l.76-8.4c.04-.34-.12-.66-.4-.82z" fill="#223a49"/><path d="m190.86 542.46.02-.38c.46-10.64 1.53-35.57.26-44.99-.48-3.54-.93-6.29-1.3-8.49-.61-3.68-.98-5.89-.81-8.01.06-.7.2-1.49.37-2.4.68-3.63 1.7-9.13-.36-20.68-.07-.41-.45-.71-.86-.7-.18 0-18.43.48-29.51-1.68-.28-.05-.56.03-.76.23s-.29.48-.24.76c.04.2 3.8 20.06 4.21 24.77.42 4.78 4.27 27.86 6.23 37.41 1.96 9.51 8.7 39.71 8.79 40.11.05.14 1.24 3.39 5.75 3.39 4.14 0 8.58-2.55 8.76-2.66.32-.19.48-.56.4-.92.01-.08-1.36-6.12-.95-15.76z" fill="#eab334"/><path d="m218.56 504c.28-9.48 2.99-46.15 3.01-46.52.02-.24-.06-.47-.22-.64s-.39-.27-.62-.27h-28.32c-.46 0-.84.37-.85.83-.01.68-.29 16.68 0 19.52.11 1.05.38 2.99.69 5.24.51 3.69 1.15 8.28 1.15 9.66 0 .88-.16 2.96-.35 5.38-.28 3.66-.64 8.22-.64 11.24 0 4.96.98 52.04.99 52.55.08 1.14.07 4.46-.87 6.01-.15.24-.16.54-.04.79.12.27 1.38 2.6 7.25 2.75.18 0 .36.01.54.01 5.41 0 7.62-2.14 7.71-2.23.33-.33.36-.83.03-1.17-.01-.01-1.03-1.36.19-6 1.32-4.99 10.06-47.24 10.35-57.15z" fill="#eab334"/><path d="m208.54 571.63c.87-1.42 1.57-4.39-1.17-7.18-.13-.14-.31-.22-.5-.25l-12.54-1.55c-.25-.03-.49.05-.68.22-.14.13-3.5 3.26-3.5 7.82 0 4.83-.93 6.32-1.22 6.67-.45.54-.53 1.73-.65 5.26-.1 2.86-.23 6.77-.88 8.22-.12.26-.1.56.05.8s.41.39.69.4c.09 0 8.62.29 11.94.7 3.22.4 6.06 1.62 6.09 1.63.11.05.22.07.34.07.17 0 .34-.05.48-.15.24-.17.38-.44.37-.74-.12-2.74-.24-7.45-.02-8.39.28-1.23 1.19-5.97 1.19-6.62v-2.42c-.05-.5-.1-1.44-.01-1.87.12-.65.06-1.99.02-2.62z" fill="#223a49"/><path d="m208.49 566.23c-.35-.17-.77-.09-1.02.2-.26.29-.28.72-.06 1.04.93 1.37.13 2.48.04 2.6-.27.34-.24.83.07 1.14.87.86 2.4 2.17 3.63 2.17.2 0 .39-.03.56-.11.42-.18.93-.62.93-1.73-.01-3.17-3.99-5.22-4.15-5.31z" fill="#223a49"/><path d="m207.35 593.52c-.03-.35-.27-.65-.6-.75-.24-.07-6.02-1.81-9.89-2.02-2.7-.15-5.91-.3-7.56-.37.14-.53.25-1.1.3-1.66.2-2.11.36-5.55.36-5.69.02-.45-.32-.84-.77-.88l-16.21-1.56c-.36-.04-.71.16-.85.5l-3.25 7.21c-.13.29-.09.63.11.88s.52.37.83.3c1.84-.38 7.07-1.12 9.05-.08l7.51 3.96c-.31.8-.65 1.74-.98 2.73-2.34-1.49-8.15-5.03-10.64-5.04-.02 0-.03 0-.05 0-2.91 0-6.04 1.06-6.17 1.11-.2.07-.36.21-.46.39-.46.82-.96 2.51 0 3.75.3.71 1.61 3.56 3.56 3.91.05.01.1.01.15.01h.69c.36.32 1.04.59 2.29.59 1.15 0 1.87-.53 2.3-1.16.68.5 1.72 1 3.26 1.15.16.02.32.02.48.02 1.34 0 2.57-.54 3.56-1.15-.28 1.19-.46 2.3-.42 3.15.11 2.56.33 7.9 5.57 8.44 1.77.18 2.99.09 3.74-.29.53.56 1.34 1.14 2.43 1.14 1.25 0 2.25-.64 2.8-1.1.46.18 1.16.34 2.08.25.85-.08 1.27-.5 1.47-.84.06-.1.11-.2.14-.3.29.01.63-.05 1-.19.98-.37 1.38-.97 1.5-1.48.6-.49 1.59-1.44 1.59-2.41.01-.09.09-.38.17-.64.47-1.59 1.44-4.87.91-11.88z" fill="#eab334"/><path d="m206.64 600.39c-.36-.09-8.98-2.12-14.4-1.86-6.69.31-7.99 1.69-8.17 2.5-.66 2.87.21 4.99.25 5.08.13.32.45.52.78.52.09 0 .18-.01.26-.04l4.77-1.55c4.53-1.48 15.52.02 15.63.03.45.06.87-.24.95-.69l.56-3.02c.09-.43-.19-.87-.63-.97z" fill="#223a49"/><path d="m194.88 562.95c-.42-.51-1.56-2.08-1.76-3.28-.06-.38-.08-.76-.1-1.14-.07-1.35-.15-3.03-2.11-4.35-.2-.14-.45-.18-.68-.12l-12.72 3.23c-.2.05-.38.17-.49.35-.08.12-1.98 2.95-1.98 5.86 0 1.75.36 2.82.69 3.44-2.18 2.55-1.88 3.34-1.76 3.64.1.27.08 1.32-.04 2.2l-1.84 8.48c-.05.24 0 .48.14.68s.36.32.6.34l16.21 1.56h.08c.38 0 .72-.26.82-.63l5.11-19.5c.07-.27.01-.55-.17-.76z" fill="#223a49"/><path d="m178.55 557.92-.54-2.41c-.05-.24-.21-.45-.43-.57s-.48-.13-.71-.03l-3.14 1.28c-.09.04-.17.09-.24.15-.06.05-1.42 1.26-1.42 3.18 0 .96.44 1.47.81 1.73s.84.39 1.42.39c.69 0 1.54-.19 2.58-.56.2-.07.37-.22.47-.41l1.13-2.18c.08-.17.11-.37.07-.57z" fill="#223a49"/><path d="m187.92 592.24c-.26-.17-6.52-4.27-9.64-4.84-3.09-.56-8.53.35-8.76.39-.31.05-.57.28-.67.58-.17.55-1.04 3.36-.88 4.67.03.29.21.54.48.66.26.12.57.11.82-.05.02-.01 2.35-1.44 5.35-.94 3.18.53 10.72 5.33 10.79 5.38.14.09.3.13.46.13.09 0 .18-.01.27-.05.24-.08.44-.27.52-.52l1.58-4.43c.14-.35.01-.76-.32-.98z" fill="#223a49"/><path d="m200.06 248.49c-.14-.22-.36-.37-.62-.4l-20.09-2.4c-.44-.06-.84.23-.93.66l-3.58 16.47c-.09.43.15.85.57.99l16.7 5.37c.09.03.17.04.26.04.35 0 .67-.22.8-.56l6.97-19.44c.08-.24.06-.51-.08-.73z" fill="#eab334"/><path d="m164.54 260.65c-.15-.26-.43-.42-.73-.42h-.01c-.45 0-11.12.12-15.6 2.85-4.66 2.84-7.17 7.31-7.94 23.86-.32 6.86-1.09 14.31-1.78 20.89-.96 9.2-1.78 17.15-1.23 21.47l.24 1.94c.04.35.3.64.65.72.06.01.13.02.19.02.28 0 .55-.14.71-.38 8.05-12.32 19.81-23.65 19.92-23.76.19-.18.29-.45.26-.71l-2.75-22.93c.23-1.03 1.77-7.63 3.98-13.4 2.39-6.23 4.07-9.28 4.09-9.31.16-.26.16-.58 0-.84z" fill="#eab334"/><path d="m232.98 403.42c-.55-17.84-8.89-63.01-9.24-64.9-.08-1.67-1.75-37.35-.98-45.47.8-8.44-1.55-24.54-1.65-25.22-.06-.42-.42-.72-.84-.72-.3 0-29.34.17-34.44-1.29-5.16-1.47-18.18-7.09-18.31-7.15-.03-.01-.07-.03-.1-.04-.13-.04-3.22-.87-5.58 4.06-1.99 4.16-7.05 18.87-7.05 21.47 0 .83.37 3.77 1.03 8.88 1.03 7.99 2.43 18.94 2.55 24.31.13 6-3.25 20.82-5.97 32.72-1.05 4.6-2.04 8.95-2.68 12.13-2.35 11.75-4.91 29.07-3.78 44.89 1.14 15.96.89 41.26-.13 43.19-.57.87-.66 1.84-.25 2.74.63 1.39 2.36 2.42 4.51 2.71l.34.05c10.3 1.38 28.83 3.59 37.16 2.78 6.69-.64 15.99-.25 22.14.01 2.23.1 3.97.17 5.03.17.28 0 .51 0 .69-.02.38-.02.8-.04 1.24-.05 2.79-.08 6.62-.19 8.31-3.18 1.89-3.37 3.37-11 4.06-16.52.19-1.49.57-3.35 1.02-5.5 1.31-6.48 3.34-16.29 2.92-30.05z" fill="#4986b4"/><path d="m224.64 296.12c-.03-.08-2.72-7.89-2.03-20.21.05-.98.18-2.03.33-3.24.67-5.62 1.8-15.02-1.7-39.18-4.17-28.77-12.19-36.08-20.73-41.58-7.2-4.63-11.83-2.4-13.09-1.6-7.92-1.27-15.81 8.4-18.02 18.09-.37 1.65-.56 3.33-.55 5-.43 1.31-3.61 10.99-4.82 16.34-.17.74-.36 1.56-.58 2.44-1.49 6.18-3.53 14.64-1.21 20.09.53 1.24 1.32 2.56 2.16 3.96 1.97 3.3 4.21 7.04 3.22 10.33-.65 2.15-2.59 3.97-5.93 5.56-5.01 2.39-8.8.14-8.96.05-.36-.22-.83-.15-1.1.17s-.26.8.02 1.11c.07.08 7.49 8.22 17.3 2.72 6.81-3.82 10.54-13.18 11.1-27.86 3.36 2.77 8.77 6.17 16.83 2.78-6.57 12-4.83 20.27-1.88 29.68 3.89 12.4 27.7 16.3 28.71 16.46.04.01.09.01.13.01.25 0 .49-.11.65-.31.19-.21.25-.52.15-.81z" fill="#223a49"/><path d="m200.33 301.87h-18.37c-1.01 0-1.84-.83-1.84-1.84v-34.39c0-1.01.83-1.84 1.84-1.84h18.37c1.01 0 1.84.83 1.84 1.84v34.39c0 1.01-.83 1.84-1.84 1.84z" fill="#fbfce9"/><path d="m197.37 206.32c-2.5-3.57-4.95-5.29-7.24-5.14-1.94.14-3.17 1.57-3.69 2.34-1.81-.01-7.49.45-9.68 7.19-1.2 3.24-2.85 7.02-3.42 7.49-.38.27-.65.82-.83 1.56-.53-.84-1.18-1.61-1.92-1.88-.49-.18-.99-.1-1.36.21-.66.55-1.26 1.76.03 9.04.72 4.09 2.81 5.84 3.72 6.42.01.04.01.07.01.08.64 4.14 3.67 17.73 16.02 19.06.63.07 1.24.1 1.82.1 4.32 0 7.32-1.73 9.16-3.28 2.91-2.47 4.38-5.74 4.46-7.17.12-2.34-.62-26.77-7.08-36.02z" fill="#eab334"/><path d="m171.42 230.13c-1.15 0-1.98 1.37-1.98 3.26s.83 3.26 1.98 3.26 1.98-1.37 1.98-3.26c.01-1.89-.83-3.26-1.98-3.26z" fill="#fff"/><path d="m195.53 294.8c-.05 0-.09 0-.14-.01-.46-.08-.78-.51-.7-.97l.49-3.03c.08-.46.52-.78.97-.7.46.08.78.51.7.97l-.49 3.03c-.07.42-.43.71-.83.71z" fill="#fff"/><path d="m213.18 297.4c-.36-.9-2.89-7.34-3.39-10.64-.75-4.87-10.37-7.48-11.46-7.76-3.37-.87-8.33-.81-10.51-.18-.7.2-1.22.63-1.5 1.24-.22.47-.26.99-.23 1.47-1.93-.57-4.11-.85-5.33-.13-.52.3-.84.77-.92 1.33-.17 1.29.76 2.48 2.72 3.5-.62-.12-1.27-.14-1.88.18-.63.32-1.09.94-1.37 1.83-.37 1.15-.11 1.98.17 2.47.31.55.77.91 1.18 1.15.03.84.87 1.6 2.18 2.73.27.23.53.46.76.67 1.35 1.25 9.83 5.37 10.72 5.72.45.18 1.42 1.16 2.69 3.32.92 1.56 3.47 2.31 4.55 2.57l6.32 14.84c2.88 7.21 11.57 16.76 16.8 20.75l-1.87-27.93z" fill="#eab334"/><path d="m198.71 297.7c-.09 0-.18-.01-.27-.05l-16.65-5.68c-.44-.15-.68-.63-.53-1.08.15-.44.63-.68 1.08-.53l16.65 5.68c.44.15.68.63.53 1.08-.13.36-.46.58-.81.58z" fill="#eab334"/><path d="m196.42 295.18c0 .68-.4 1.22-.9 1.22-.49 0-.9-.55-.9-1.22 0-.68.4-1.22.9-1.22s.9.54.9 1.22z" fill="#fff"/><path d="m180.97 285.26v-4.81c0-.23-.09-.45-.26-.61s-.39-.25-.62-.24l-5.57.24c.28-1.49.73-4.06.73-4.83 0-.94-.31-2.31-1.2-3.06-.51-.44-1.15-.61-1.83-.5-1.88.3-3.33 4.45-3.84 6.15-.11.28-.81 2.07-1.23 3.79-.48-1.16-.96-2.62-1.02-3.47-.09-1.28-.73-2.48-1.72-3.22-.35-.26-1.03-.67-1.71-.52-1.8.4-2.37 2.39-1.79 6.25.65 4.31 2.39 7.98 2.77 8.74.02.28-.02.68-.13.8-.04.04-.17.05-.32.02-.79-.13-2.97-1.3-4.55-2.15-.84-.45-1.65-.89-2.29-1.2-.9-.44-1.35-.58-1.7-.55-.77.06-1.45.56-1.74 1.25-.28.69-.33 1.86 1.09 3.53.48.56 1.15 1.18 2.02 1.85 1.9 1.46 4.18 2.76 4.91 3.17l1.71 3.35-4.94 7.42c-.98.95-12.27 12-20.1 23.99-.11.17-.16.37-.13.57.78 6.3 1.85 14.92 10.58 15.01h.02c3.9 0 14.48-12.36 16.49-16.9 1.33-2.99 3.83-10.67 7.43-22.82l.25-.84c.59-1.96 1.64-3.67 2.26-4.04.64-.38 3.95-1.66 5.89-2.38.33-.12.55-.44.55-.8v-8.45c0-.22-.09-.44-.25-.6l-2.48-2.48 2.19-.87c.32-.13.53-.44.53-.79z" fill="#eab334"/><path d="m199.34 287.37c-.15 0-.3-.04-.44-.12l-4.16-2.51-7.58-1.06c-.46-.06-.79-.49-.72-.96.06-.46.49-.79.96-.72l7.75 1.08c.11.02.22.05.32.11l4.31 2.6c.4.24.53.76.29 1.16-.16.27-.44.42-.73.42z" fill="#eab334"/><path d="m370.49 379.64c-.28-2.24-1.82-12.91-1.84-12.99l-.85-8.03c-.05-.43-.41-.76-.84-.76h-72.74c-.35 0-.67.22-.79.55-.13.33-1.23 3.27-1.23 4.66v4.03c-.31 1.77-5.69 33.51-2.25 51.54 1.22 6.4 3.1 13.45 5.09 20.92 3.68 13.83 7.86 29.5 8.32 43.68.43 13.23-.3 18.64-.83 22.59-.34 2.55-.61 4.57-.45 7.67.42 7.71 3.37 34.68 3.4 34.96.02.16.08.31.18.44s2.6 3.18 7.66 2.72c4.85-.44 13.63-7.1 14.01-7.38.2-.16.33-.39.33-.65 0-.08.08-2.81.2-6.61l.19 8.86c.01.31.18.6.46.74.34.17 8.36 4.24 11.81 5.06 1.21.29 2.54.38 3.77.38 2.36 0 4.37-.35 4.49-.37.35-.06.63-.34.69-.7.24-1.48 5.95-36.38 5.66-42.2-.06-1.16-.16-2.58-.28-4.17-.46-6.15-1.16-15.43.28-22.33.63-3.03 2.75-11.3 5.2-20.88 4.8-18.75 10.78-42.07 11.34-48.04.85-8.96-.68-31.24-.98-33.69z" fill="#4986b4"/><path d="m331.98 376.08c-22.4 0-36.13-8.67-36.71-9.05-.39-.25-.51-.78-.25-1.17.25-.39.78-.51 1.17-.26.14.09 14.34 9.06 36.84 8.77 22.57-.28 34.52-6.52 34.64-6.58.41-.22.93-.06 1.15.35s.06.93-.35 1.15c-.5.27-12.44 6.5-35.42 6.78-.36.01-.71.01-1.07.01z" fill="#c6dbe8"/><path d="m332.62 404.48c-.06 0-.12-.01-.18-.02-.46-.1-.75-.55-.64-1.01 1.56-7.03-.48-25.12-.71-27.1-.37-.64-1.76-3.06-2.64-5.26-1.21-3.02 1.59-5.33 1.7-5.43.36-.3.9-.24 1.19.12s.24.9-.12 1.19c-.09.08-1.94 1.64-1.2 3.48.95 2.38 2.6 5.15 2.62 5.18.06.1.1.21.11.33.1.82 2.41 20.16.7 27.85-.09.4-.44.67-.83.67z" fill="#c6dbe8"/><path d="m297.67 382.07c-.77 0-1.5-.08-2.18-.28-3.34-.98-4.61-1.83-4.66-1.87-.39-.27-.48-.79-.22-1.18.27-.39.79-.48 1.18-.22.01 0 1.15.75 4.18 1.64 2.64.77 6.83-.7 8.85-1.41.26-.09.49-.17.68-.23.65-.26 1.88-3.5 2.57-6.79.1-.46.55-.75 1-.66.46.1.75.54.66 1-.46 2.21-1.75 7.4-3.69 8.05l-.65.23c-1.73.61-4.91 1.72-7.72 1.72z" fill="#c6dbe8"/><path d="m360.37 383.66c-2.33 0-5.11-.18-6.32-.94-1.74-1.09-3.09-6.41-3.46-8.02-.1-.46.18-.91.64-1.02.46-.1.91.18 1.02.64.68 2.96 1.91 6.47 2.71 6.96 1.11.7 5.22.79 8.57.58 2.12-.13 5.96-1.43 6-1.44.44-.15.92.09 1.08.53.15.44-.09.92-.53 1.08-.17.06-4.09 1.38-6.44 1.53-.67.04-1.9.1-3.27.1z" fill="#c6dbe8"/><path d="m333.39 373.67c-1.29 0-2.34-1.24-2.34-2.76s1.05-2.76 2.34-2.76 2.34 1.24 2.34 2.76-1.05 2.76-2.34 2.76zm0-3.82c-.3 0-.64.45-.64 1.06s.34 1.06.64 1.06.64-.45.64-1.06c0-.6-.34-1.06-.64-1.06z" fill="#c6dbe8"/><path d="m312.4 377.13c-.05 0-.11-.01-.16-.02l-2.18-.63c-.26-.08-.43-.33-.41-.6 0-.02.2-2.08.02-3.52-.2-1.6 1.27-6.25 1.44-6.77.08-.23.29-.39.54-.39h1.74c.16 0 .31.07.42.19s.16.28.14.44c-.02.17-.44 4.2-1.03 5.57-.37.85-.17 3.58.04 5.1.03.19-.05.38-.19.51-.1.07-.23.12-.37.12zm-1.58-1.62.92.27c-.14-1.33-.32-3.78.14-4.85.37-.86.71-3.23.88-4.61h-.69c-.49 1.59-1.4 4.85-1.27 5.9.14 1.14.07 2.57.02 3.29z" fill="#c6dbe8"/><path d="m349.43 378.47h-2.41c-.22 0-.43-.13-.52-.34-.43-.98-.08-2.9.32-5.12.07-.41.15-.81.21-1.21.36-2.15-.55-5.29-.56-5.33-.09-.3.08-.61.38-.7l1.85-.56c.3-.09.61.08.7.37 1 3.17.8 5.95.58 7.32-.27 1.75 0 4.92 0 4.95.01.16-.04.31-.15.43-.09.13-.24.19-.4.19zm-1.97-1.13h1.37c-.07-1.05-.17-3.2.05-4.61.18-1.2.36-3.54-.39-6.27l-.78.24c.26 1.06.76 3.44.44 5.29-.07.4-.14.81-.22 1.22-.26 1.47-.58 3.25-.47 4.13z" fill="#c6dbe8"/><path d="m387.85 332.03-.96-3.49.59-.37c.26-.16.41-.45.4-.75-.03-.72-.72-17.63-1.42-23.11-.55-4.26-5.7-31.04-10.29-33.83-1.51-.92-2.38-1.5-2.96-1.88-.96-.64-1.25-.83-2.33-1.15-1.51-.44-6.43-.95-7.25-1.04-1.28-.47-8.79-3.25-10.04-3.53-1.29-.29-37.45-1.13-44.68-1.29-.08 0-.15.01-.22.02l-12.26 2.97c-2.47.11-13.07 2.92-15.86 8.65-2.93 6.01-13.3 44.19-14.06 48.12-.81 4.2-1.36 5.63-1.37 5.64-.09.22-.08.46.02.68.1.21.28.37.51.45l3.21 1.03-.81 3.48c-.09.38.1.78.45.95l22.36 11.18c-.31 2.52-1.08 11 2.03 13.98 3.29 3.14 22.05 9.87 28.74 9.86.21 0 .42-.01.61-.02 2.01-.15 3.88-.52 5.69-.89 3.31-.66 6.44-1.29 9.86-.41 5.72 1.47 8.84.43 10.45-.69 1-.7 5.34-1.86 10.55-2.83 3.94-.73 10.59-4.72 12.32-6.45.34-.34.76-.68 1.17-1.01 1.4-1.13 3.14-2.54 2.11-4.75-.95-2.03-1.92-5.19-1.92-5.19l-1.66-7.51c3.38-.74 12.72-2.85 14.19-3.92 1.56-1.14 2.56-1.98 2.6-2.02.21-.22.31-.56.23-.88z" fill="#223a49"/><path d="m327.89 487.58c-.01 0-.02 0-.03 0-.47-.02-.83-.41-.82-.88l2.4-65.86c.02-.47.43-.84.88-.82.47.02.83.41.82.88l-2.4 65.86c-.02.46-.39.82-.85.82z" fill="#c6dbe8"/><path d="m344.09 242.93h-26.46c-.47 0-.85.38-.85.85v23.92c0 .09.01.18.04.27.13.37 12.56 37.53 13.11 42.05.05.39.36.7.75.74.03 0 .06.01.09.01.36 0 .68-.23.8-.57.54-1.56 13.25-38.22 13.36-46.27v-20.15c.01-.47-.37-.85-.84-.85z" fill="#eab334"/><path d="m331.11 608.09c0-1.25 0-17.74-3.22-25.98-.03-.06-.06-.13-.1-.18-.34-.48-3.45-4.74-6.63-4.74-2.99 0-8.47 3.55-9.09 3.96-.13.09-.24.21-.31.36-.15.32-3.61 7.98-3.75 12.34-.04 1.27-.33 2.58-.6 3.85-.62 2.88-1.26 5.85.61 8.88.1 1.4 1.14 7.43 11.9 8.78.95.12 1.85.18 2.69.18 2.99 0 5.24-.75 6.72-2.25 2.01-2.06 1.83-4.72 1.78-5.2z" fill="#fbfce9"/><path d="m362.16 258 .12-1.43c.03-.37-.19-.72-.53-.86-.35-.14-.74-.03-.98.26-.34.42-.74.86-1.15 1.24-.14-.14-.28-.31-.41-.51 3.29-6.22-.73-19.46-1.99-23.24-.96-11.7-3.92-28.32-12.78-35.01-.04-.03-.08-.05-.12-.07-.4-.21-9.77-5.06-14.65-4.33-1.97.3-19.29 3.45-22.33 22.04-.46 2.8-.93 5.1-1.39 7.01-1.32 1.79-4.69 6.91-3.92 11.4-.18.78-.27 1.62-.21 2.69.21 3.75.86 6.41 1.22 7.65-.6 1.67-2 6.36-1.07 11.14-3.98 4.19-7.24 5.85-9.95 5.07-.32-.09-.67.01-.89.27-.21.26-.26.62-.11.92.09.18 2.29 4.42 9.08 4.57 4.18.1 6.82-.71 8.21-1.33.16.65.48 1.43 1.14 2.1.99 1.01 2.44 1.52 4.33 1.52.27 0 .54-.01.82-.03 6.06-.43 9.1-3.65 9.66-5.71.17-.61 1.45-1.63 2.3-2.31 1.21-.96 1.84-1.49 1.95-2.16.06-.36-.07-.71-.34-.92-.48-.38-1.01-.16-1.67.12-1.67.71-3.59 1.33-5.32-.25-1.18-1.08-1.16-2.35-1.02-4.7.14-2.3.31-5.09-1.17-8.53l26.1-.02c-2.11 3.17-6.75 10.77-5.65 14.93 1.54 5.82 7.03 6.39 12.73 6.14 7.73-.34 9.7-2.65 9.99-4.53.23-1.59.08-2.73 0-3.13zm-4.73-.71c-.15-.73-.24-1.72-.26-2.84.21.82.46 1.57.76 2.21-.15.22-.32.44-.5.63zm1.32.63c-.26.18-.5.3-.69.35.18-.18.35-.37.51-.57.05.07.11.15.18.22zm-.16-2.55c-.64-1.87-1-4.68-1.16-7.56.06-.67.12-1.28.19-1.81.01-.1.1-3.04-.09-7.46 1.36 5.15 2.74 12.54 1.06 16.83zm-55.35-24.14c.32-1.51.95-2.99 1.62-4.27-.6 1.86-1.15 3.19-1.62 4.27zm.22 16.14c.18 2.14.18 5.09-.59 7.1-.28-2.67.13-5.25.59-7.1z" fill="#4986b4"/><path d="m366.14 309.04c-.05 0-.11-.01-.16-.02-.3-.09-.47-.4-.38-.7 1.95-6.66 1.09-32.07 1.08-32.32-.01-.31.23-.57.54-.58.32-.02.57.23.58.54.04 1.05.88 25.85-1.13 32.68-.06.24-.29.4-.53.4z" fill="#4986b4"/><path d="m290.36 297.63c-.18 0-.36-.09-.47-.24-4.2-6.09-7.44-20.67-7.58-21.29-.07-.3.13-.61.43-.67.3-.07.61.13.67.43.03.15 3.33 14.98 7.4 20.89.18.26.11.61-.14.79-.09.06-.2.09-.31.09z" fill="#4986b4"/><path d="m289.64 321.52c-.14 0-.29-.05-.4-.16-8.42-8.27-8.36-34.35-8.36-35.46 0-.31.25-.56.57-.56.31 0 .56.26.56.57 0 .27-.07 26.71 8.02 34.64.22.22.23.58.01.8-.11.11-.25.17-.4.17z" fill="#4986b4"/><path d="m278.06 331.13c-.04 0-.09-.01-.13-.02l-8.2-1.98c-.3-.07-.49-.38-.42-.68s.38-.49.68-.42l8.2 1.98c.3.07.49.38.42.68-.06.26-.29.44-.55.44z" fill="#4986b4"/><path d="m348.87 593.4c-1.35-2.03-5.26-11.22-5.3-11.31-.13-.31-.44-.52-.78-.52h-15.69c-.23 0-.45.09-.61.26s-.25.39-.24.62c.03.78.74 19.15 3.21 25.98 2.34 6.49 10.02 7.12 12.93 7.12.5 0 .86-.02 1.02-.03.78-.05 7.66-.65 9.38-6.14 1.59-5.08-2.69-14.13-3.92-15.98z" fill="#fbfce9"/><path d="m343.39 569.55c.64-2.08 1.6-5.21 1.83-5.64.14-.24.16-.53.04-.79-.12-.25-.35-.43-.62-.48l-15.8-2.78c-.27-.05-.55.04-.75.23s-.28.47-.24.74c.01.06 1.08 6.37.67 10.03-.22 1.95-.81 3.68-1.34 5.21-.48 1.39-.9 2.6-.9 3.65-.01 1.95-.03 2.66-.03 2.67-.01.23.08.45.24.61s.38.26.61.26h15.69c.26 0 .51-.12.67-.33s.22-.48.15-.73c-.92-3.62-1.73-8.02-1.44-8.83.24-.62.69-2.1 1.22-3.82z" fill="#eab334"/><path d="m327.27 574.14c-.62-1.29-1.64-6.18-1.04-15.42.02-.26-.08-.51-.27-.68s-.44-.25-.7-.21l-14.96 2.23c-.25.04-.47.18-.6.4-.13.21-.16.47-.08.71.03.08 2.78 8.29 2.78 11.64 0 1.63-.49 3.08-.93 4.35-.48 1.41-.9 2.64-.39 3.66l1.41 2.83c.11.22.32.39.56.44.07.02.13.02.2.02.18 0 .35-.06.5-.16.03-.02 3.46-2.49 6.9-2.1 3.65.4 6.12 1.35 6.15 1.36.26.1.54.07.77-.08s.37-.4.38-.68c.02-.66.21-6.48-.68-8.31z" fill="#eab334"/><path d="m348.41 221.64c-.56-1.98-2.61-7.84-2.7-8.1-.86-2.5-3.85-3.04-8.42-1.51-2.02.67-17.47 7.95-20.36 12.2-2.94 4.33-1.56 17.23-.04 19.97 1.43 2.58 11.53 13.16 16.71 13.16 4.33 0 8.89-5.19 11.09-7.68.36-.4.63-.72.82-.91 1.49-1.49 4.35-13.13 4.35-15.16 0-2.06-.86-9.9-1.45-11.97z" fill="#eab334"/><path d="m327.21 542.8c-.27-.14-.6-.13-.86.04-.07.05-7.48 4.91-9.59 5.94-1.47.72-5.88.49-8.57-.45-.64-.23-1.36-.13-1.92.26-.57.39-.9 1.02-.91 1.71-.02.99.02 1.94.13 2.82.01.08 1.05 8.27 4.02 8.52.45.04 1.16.15 2.02.27 1.96.29 4.49.67 6.49.67.58 0 1.11-.03 1.58-.11 2.87-.45 7.27-3.84 7.45-3.98.15-.12.26-.28.3-.46.81-3.13 3.17-13.5-.14-15.23z" fill="#c6dbe8"/><path d="m350.52 550.88c-.72-.86-1.92-.92-2.05-.92-.01 0-.02 0-.04 0-9.47.17-13.98-2.7-16.4-4.24-.57-.36-1.02-.65-1.43-.82-1.08-.48-1.83-.29-2.26-.04-.92.51-1.09 1.57-1.1 1.64-.19.94-1.83 9.25-1.54 11.44.35 2.62 3.55 4.76 9.53 6.36 2.01.54 3.47.72 4.62.72 1.25 0 2.12-.22 2.88-.41.61-.15 1.13-.28 1.77-.28 2.98 0 3.74-2.23 3.77-2.33.1-.3 2.43-7.39 2.72-9.23.14-.93-.18-1.54-.47-1.89z" fill="#c6dbe8"/><path d="m297.7 322.79c-.25 0-.47-.16-.54-.41-.01-.05-1.28-4.57-2.26-8.49-.99-3.96-1.68-31.61-1.71-32.78-.01-.31.24-.57.55-.58.33.03.57.24.58.55.01.29.72 28.69 1.68 32.53.98 3.89 2.24 8.41 2.26 8.45.08.3-.09.61-.39.7-.06.02-.12.03-.17.03z" fill="#4986b4"/><path d="m385.9 328.72-5.38-.07c-.31 0-.56-.26-.56-.57s.23-.58.57-.56l5.37.07c.31 0 .56.26.56.57 0 .32-.25.56-.56.56z" fill="#4986b4"/><g fill="#848c84"><path d="m315.66 596.93c-4.03 0-5.71-6.78-5.78-7.07-.07-.3.11-.61.42-.68.3-.07.61.11.68.42.01.06 1.58 6.4 4.83 6.2 3.71-.22 10.57-.97 10.64-.98.32-.04.59.19.62.5s-.19.59-.5.62c-.07.01-6.95.76-10.69.98-.08 0-.15.01-.22.01z"/><path d="m326.4 602.26c-.97 0-1.63-.58-2.22-1.09-.59-.52-1.15-1.01-2.08-1.09-.92-.08-1.59.42-2.34 1-.72.55-1.54 1.17-2.63 1.17-2.06 0-6.94-4.01-7.5-4.46-.24-.2-.27-.56-.07-.8s.56-.27.8-.07c1.96 1.63 5.53 4.2 6.77 4.2.71 0 1.28-.44 1.94-.94.83-.63 1.76-1.35 3.13-1.23 1.29.11 2.08.81 2.72 1.36.61.53.98.82 1.55.8.71-.04 1.42-.39 1.89-.92.34-.39.51-.82.49-1.2-.02-.31.21-.58.52-.61.32-.02.58.21.61.52.05.69-.22 1.41-.76 2.03-.68.77-1.65 1.25-2.67 1.31-.06.01-.1.02-.15.02z"/><path d="m319.49 611.58c-7.59 0-10.94-4.75-11.08-4.96-.18-.26-.11-.61.15-.78.26-.18.61-.11.79.14.03.05 3.26 4.59 10.37 4.47 7.48-.09 9.02-.59 10.13-2.12.18-.25.53-.31.79-.13.25.18.31.54.13.79-1.46 2.03-3.42 2.49-11.03 2.59-.1 0-.18 0-.25 0z"/><path d="m343.74 611.94c-2.49 0-5.3-.16-6.86-.36-3.06-.39-5.3-2.41-5.4-2.5-.23-.21-.25-.57-.04-.8s.57-.25.8-.04c.02.02 2.08 1.87 4.78 2.21 2.94.38 9.59.54 10.94.03 1.39-.52 3.73-3.07 3.76-3.69.01-.3.26-.56.56-.57.3 0 .55.21.56.52.06 1.34-3 4.24-4.49 4.8-.75.29-2.58.4-4.61.4z"/><path d="m346.12 602.4c-1.71 0-4.03-1.44-5.05-2.14-.66.63-2.2 1.84-4.26 1.99-2.81.21-7.01-4.78-7.48-5.35-.2-.24-.17-.6.07-.8s.6-.17.8.07c1.65 1.98 4.88 5.07 6.53 4.94 2.28-.17 3.84-1.95 3.85-1.97.19-.22.52-.26.76-.09 1.61 1.17 4.3 2.6 5.26 2.12 1.04-.52 1.85-3.57 2.12-5.37.05-.31.33-.53.64-.48s.52.33.48.64c-.08.53-.83 5.26-2.73 6.21-.3.17-.63.23-.99.23z"/><path d="m337.46 596.49c-6.55 0-8.55-3.62-8.64-3.78-.15-.28-.04-.62.23-.76.28-.15.62-.04.76.23.08.14 1.99 3.49 8.49 3.16 7.18-.35 8.42-.83 8.3-3.21-.01-.31.23-.58.54-.59.3-.02.58.22.59.54.18 3.77-2.92 4.09-9.38 4.4-.29 0-.6.01-.89.01z"/><path d="m331.71 584.63c-1.82 0-3.05-.63-3.3-1.44-.13-.41-.02-.99.7-1.29 1.31-.55 6.6.22 7.65.39.07.01.14.04.2.07.2.12.32.4.29.63-.07.44-.37.77-3.67 1.45-.67.13-1.3.19-1.87.19zm-2.16-1.69c.29.29 1.53.85 3.8.39.39-.08.73-.15 1.02-.22-2.09-.25-4.27-.4-4.82-.17z"/><path d="m345.11 583.75c-2.52 0-5.62-.9-5.76-.95-.19-.06-.33-.2-.39-.39-.05-.19 0-.39.13-.53.38-.42 3.84-4.05 6.31-3.74 1.61.2 2.54 1.81 2.5 3.25-.04 1.33-.88 2.25-2.15 2.34-.2.01-.42.02-.64.02zm-4.51-1.78c1.23.3 3.43.75 5.07.64.93-.07 1.09-.81 1.1-1.25.02-.92-.58-1.98-1.51-2.1-1.32-.17-3.42 1.53-4.66 2.71z"/><path d="m335.07 592.17c-.31 0-.57-.25-.57-.57 0-3.52 3.14-8.53 3.28-8.74.07-.11.17-.19.29-.23 2.73-.96 10.05-3.85 11.12-5.64.16-.27.51-.36.78-.19.27.16.35.51.19.78-1.41 2.35-9.86 5.46-11.52 6.06-.53.88-3 5.12-3 7.97-.01.31-.26.56-.57.56z"/><path d="m335.07 587.37c-.22 0-.44-.13-.52-.35-.12-.29.02-.62.31-.74.19-.08 4.8-1.91 6.83.12.22.22.22.58 0 .8s-.58.22-.8 0c-1.25-1.25-4.47-.33-5.61.12-.07.03-.14.05-.21.05z"/><path d="m335.07 589.45c-.22 0-.44-.13-.52-.35-.12-.29.02-.62.31-.74.2-.08 4.8-1.91 6.83.12.22.22.22.58 0 .8s-.58.22-.8 0c-1.25-1.25-4.47-.33-5.61.12-.07.03-.14.05-.21.05z"/><path d="m335.55 591.45c-.22 0-.43-.13-.52-.35-.12-.29.02-.62.31-.74.19-.08 4.8-1.91 6.83.12.22.22.22.58 0 .8s-.58.22-.8 0c-1.25-1.25-4.47-.33-5.61.12-.07.04-.14.05-.21.05z"/><path d="m336.15 594.4c-.22 0-.43-.13-.52-.35-.12-.29.02-.62.31-.74.19-.08 4.8-1.91 6.83.12.22.22.22.58 0 .8s-.58.22-.8 0c-1.25-1.25-4.47-.33-5.61.12-.07.04-.14.05-.21.05z"/><path d="m334.83 585.41c-.22 0-.44-.13-.52-.35-.12-.29.02-.62.31-.74.19-.08 4.8-1.91 6.83.12.22.22.22.58 0 .8s-.58.22-.8 0c-1.25-1.25-4.47-.33-5.61.12-.07.03-.14.05-.21.05z"/><path d="m315.98 584.62c-.14 0-.28 0-.43-.01-2.84-.07-4.93-1.04-5.59-2.6-.36-.85-.22-1.74.38-2.38 1.31-1.41 7.6 1.01 10.24 2.11.21.09.35.29.35.52 0 .1-.03.64-.58 1.18-.8.78-2.27 1.18-4.37 1.18zm-4.27-4.34c-.27 0-.45.04-.54.12-.29.31-.35.74-.17 1.17.37.88 1.77 1.84 4.57 1.91 2.57.07 3.66-.49 4.05-.91-3.36-1.36-6.61-2.29-7.91-2.29z"/><path d="m336.67 583.41c-.26 0-.5-.18-.55-.45-.06-.31.13-.6.44-.67l2.84-.58c.3-.06.6.13.67.44.06.31-.13.6-.44.67l-2.84.58c-.05 0-.09.01-.12.01z"/><path d="m323.8 583.19c-.96 0-2.14-.12-3.53-.37-.22-.04-.39-.2-.45-.41s.02-.44.19-.58c1.35-1.1 4.63-3.54 5.93-2.53.66.51 1.48 1.64 1.03 2.66-.36.82-1.41 1.23-3.17 1.23zm-2.04-1.29c3.66.47 4.13-.31 4.17-.41.14-.33-.25-.97-.69-1.31-.31-.18-1.78.51-3.48 1.72z"/><path d="m328.09 594c-.26 0-.5-.19-.55-.46-1.6-8.11-6.38-9.88-7.18-10.12-4.42 1.06-11.6 3.3-12.5 4.93-.15.27-.5.37-.77.22s-.37-.49-.22-.77c1.45-2.63 12.15-5.23 13.37-5.52.08-.02.17-.02.25 0 .26.06 6.27 1.5 8.16 11.04.06.31-.14.6-.45.66-.03.02-.07.02-.11.02z"/><path d="m317.92 594.57c-.23 0-.45-.15-.54-.38-.1-.3.06-.62.35-.72.18-.06 4.36-1.48 6.92-.57.29.1.45.43.34.72-.1.29-.43.45-.72.34-2.19-.77-6.14.56-6.18.57-.05.03-.11.04-.17.04z"/><path d="m317.92 591.87c-.23 0-.45-.15-.54-.38-.1-.3.06-.62.35-.72.18-.06 4.36-1.47 6.92-.57.29.1.45.43.34.72-.1.29-.43.45-.72.34-2.19-.78-6.14.56-6.18.57-.05.03-.11.04-.17.04z"/><path d="m317.92 589.07c-.23 0-.45-.15-.54-.38-.1-.3.06-.62.35-.72.18-.06 4.36-1.48 6.92-.57.29.1.45.43.34.72-.1.29-.43.45-.72.34-2.19-.77-6.14.56-6.18.57-.05.03-.11.04-.17.04z"/><path d="m317.92 586.99c-.23 0-.45-.15-.54-.38-.1-.3.06-.62.35-.72.18-.06 4.36-1.48 6.92-.57.29.1.45.43.34.72-.1.29-.43.45-.72.34-2.19-.78-6.14.56-6.18.57-.05.03-.11.04-.17.04z"/></g><path d="m316.67 228.17c-.32-.14-.66-.09-.9.16-.15.08-.86.02-2.13-1.26-1.06-1.06-2.12-.9-2.77-.39-1.87 1.47-1.71 6.59 1.8 12.31.14.22.36.37.62.4.03 0 .07.01.1.01.22 0 .43-.09.59-.24l2.66-2.62c.16-.15.25-.36.25-.58l.24-6.96c.03-.34-.13-.69-.46-.83z" fill="#eab334"/><path d="m315.02 237.42c0 .82-.44 1.48-.99 1.48s-.99-.66-.99-1.48.44-1.48.99-1.48.99.66.99 1.48z" fill="#fff"/><path d="m327.43 286.7c-.06-.24-.21-.44-.43-.56-.22-.11-.48-.13-.71-.04l-2.46.98 1.73-2.87 2.07-1.67c.16-.13.27-.31.3-.52l.78-4.52c.06-.32-.08-.65-.35-.84s-.62-.2-.91-.04l-6.64 3.82c-.12.07-.22.17-.3.29l-2.6 4.19-.45-1.53.83-2.42c.97-.27 2.5-.8 3.02-1.58.24-.36 1.4-2.21.53-3.46-.82-1.18-2.66-.74-3.27-.59-4.1.99-5.81 3.58-5.9 3.72l-1.37 2.32c-.62-.01-1.39 0-1.77.13-.99.33-4.18 1.6-3.82 4.17.28 2 .49 4.66.49 4.69.01.14.06.27.13.39l3.47 5.44v9.98c-.88.81-2.96 2.89-3.1 4.43-1.1 2.97-15.75 17.52-17.31 17.8-.48.08-.54.02-.82-.23-1.11-1.02-2.47-1.64-8.91.33-.3.09-.52.34-.58.65-.15.79-1.46 7.79.4 10.66.37.58.77 1.75 1.23 3.1 1.49 4.39 3.74 11 9.66 11 .1 0 .21 0 .31-.01 8.42-.32 23.29-31.19 24.08-33.34 1.36-3.67 6.49-8.74 8.29-9.9l.84-.53c2.14-1.34 4.8-3.02 5.43-4.69.61-1.63 1.34-4.2 1.37-4.31.04-.14.04-.28.01-.42zm-16.3-.73.43-.24.39 2.09-.43-.32z" fill="#eab334"/><path d="m331.8 264.76 15.98 1.1c1.38.1 2.39 1.36 2.18 2.73l-4.85 31.22c-.19 1.25-1.3 2.14-2.56 2.07l-15.57-.9c-1.6-.09-2.78-1.54-2.54-3.13l4.64-30.91c.2-1.32 1.38-2.27 2.72-2.18z" fill="#e2b734"/><path d="m381.37 328.01c-.03-.33-.25-.61-.56-.72-1.39-.5-3.58-1.46-4.12-2.04-.2-.21-4.9-5.33-8.39-13.67-1.12-2.67-2.04-5.1-2.86-7.23-1.61-4.21-2.6-6.81-3.7-7.83-.56-.94-4.41-7.4-5.1-9.1-.81-2-4.37-5.72-4.78-6.15l-1.32-1.3-5.52-4.92c-.98-.88-2.38-1.08-3.47-.5-.73.39-.99.94-1.08 1.33-.17.76.11 1.61.86 2.61.53.71 1.13 1.41 1.7 2.1 1.91 2.27 3.72 4.41 3.17 6.51-.26 1-.52 1.13-.52 1.13-.18.03-.72-.33-1.02-.53-.34-.22-.69-.45-1.06-.61-1.04-.44-10.82-3.95-12.2-3.95-1.54 0-2.65.35-3.31 1.04-.45.47-.67 1.09-.65 1.79.11 2.75 3.03 3.21 4.6 3.45 1.53.24 7.56 3.13 11.4 5.09.11.27.18.59.11.69-.05.08-.4.26-1.4.17-3.73-.37-6.97-1.15-8.06-1.96-1.39-1.03-2.2-1.32-3.32-1.22-.64.06-1.81.41-2.19 1.38-.19.49-.24 1.27.63 2.23 1.37 1.51 4.92 3.85 6.89 4.58l-2.78.15c-.31.02-.59.2-.72.49-.13.28-.1.62.09.87.24.32 2.4 3.15 4.27 3.63.51.13 1.46.34 2.56.58 1.82.39 5.22 1.13 5.7 1.39.65.5 4.61 1.6 7.13 2.26.41.67 1.64 3.01 2.3 7.99l.12.9c1.01 7.76 3.37 25.94 9.63 31.42 2.49 2.19 4.48 3.22 6.21 3.22.1 0 .21 0 .31-.01 1.95-.14 3.16-1.57 4.34-2.95.21-.25.43-.5.65-.75.71-.77 6.7-7.9 5.46-21.56z" fill="#eab334"/><path d="m450.91 587.08c-.01-1.86-.76-5.11-.79-5.25-.05-.21-.17-.39-.35-.51l-10.73-7.28c-.19-.13-.44-.18-.67-.12l-8.1 1.88c-.29.07-.53.29-.62.57l-.94 3.02c0 .01-.01.02-.01.03-.16.6-3.98 14.77-4.26 16.88-.08.57-.28 1.43-.52 2.42-.62 2.57-1.39 5.77-.87 7.71.72 2.66 4.62 9.58 13.92 9.58 6.14 0 13.19-.81 13.19-7.16v-.36c.16-.6.84-3.32.75-5.8-.09-2.43-.7-5.79-.84-6.5.12-1.03.85-7.4.84-9.11z" fill="#223a49"/><path d="m503.74 606.75c-.01-.02-.56-2.17-.93-4-.4-1.99-3.03-6.06-3.34-6.54-.03-.04-3.01-4.24-4.57-6.99-1.57-2.78-3.84-7.28-3.86-7.33-.06-.11-.13-.21-.23-.28-.18-.14-4.37-3.41-10.63-2.32-6.09 1.06-10.29 4.27-10.47 4.41-.07.05-.13.12-.18.19-.08.11-1.85 2.75-.93 5.03.53 1.33 1.12 2.2 1.47 2.65l-.82 3.83c-.07.32.05.65.31.85l5.13 3.92c.14 1.38.68 5.71 2.04 7.35.3.36.3.56.3.97 0 1.29.26 2.44 3.59 4.48 4.16 2.56 8.28 3.22 12.03 3.22 1.27 0 2.49-.08 3.66-.18 5.05-.45 7.21-2.13 7.46-5.78.09-1.34.15-3.04-.03-3.48z" fill="#223a49"/><path d="m486.09 592.45c-.38 0-.72-.25-.82-.62l-3-11.02c-.12-.45.14-.92.6-1.04.45-.12.92.14 1.04.6l.81 2.98-.21-3.38c-.03-.47.33-.87.79-.9.47-.02.87.33.9.79l.74 11.7c.03.43-.28.82-.71.89-.05 0-.1 0-.14 0z" fill="#4986b4"/><path d="m493.53 594.3c-.69 0-1.56-.25-2.65-.57-.34-.1-.71-.21-1.09-.31-1.69-.47-3.03-.17-4.73.21-.84.19-1.79.4-2.86.52-3.48.39-6.57-1.92-7.71-4.29-.74-1.53-3.29-3.72-4.21-4.43-.37-.29-.44-.82-.15-1.19s.82-.44 1.19-.15c.15.11 3.63 2.83 4.7 5.04.91 1.88 3.39 3.64 6 3.34.98-.11 1.85-.3 2.68-.49 1.77-.4 3.45-.77 5.55-.19.39.11.77.22 1.12.32.79.23 1.78.49 2.16.51 0-.07-.01-.16-.03-.29-.27-1.56-1.85-4.51-2.44-5.51-.24-.4-.1-.92.3-1.16s.92-.1 1.16.3c.09.16 2.27 3.9 2.65 6.08.05.31.22 1.27-.45 1.87-.34.27-.72.39-1.19.39z" fill="#4986b4"/><path d="m475.5 600.56c-.43 0-.8-.33-.84-.77-.09-1-.41-3.83-.84-4.9-.32-.79-2.11-2.14-3.28-2.84-.4-.24-.53-.76-.29-1.16s.76-.53 1.16-.29c.55.33 3.34 2.07 3.98 3.66.59 1.49.92 4.98.95 5.38.04.47-.3.88-.77.92-.02 0-.05 0-.07 0z" fill="#4986b4"/><path d="m493.16 613.8c-.18 0-.36 0-.54 0-8.27-.06-15.08-5.25-15.36-5.47-.37-.29-.44-.82-.15-1.19s.82-.44 1.19-.15c.07.05 6.65 5.07 14.34 5.12 5.88.05 8.16-.66 9.28-4.68.13-.45.59-.72 1.04-.59s.71.59.59 1.04c-1.5 5.35-5.4 5.92-10.39 5.92z" fill="#4986b4"/><path d="m438.2 613.25c-.91 0-1.89-.03-2.94-.09-9.1-.52-12.19-7.21-12.32-7.5-.19-.43 0-.93.43-1.12s.93 0 1.12.43c.12.26 2.84 6.04 10.87 6.5 10.15.58 12.23-1.88 12.66-2.96.17-.44.66-.65 1.1-.48s.65.66.48 1.1c-.76 1.94-3.4 4.12-11.4 4.12z" fill="#4986b4"/><path d="m443.55 594.8c-.21 0-.38 0-.49-.01-2.02-.07-2.71-.97-3.22-1.63-.09-.12-.18-.24-.28-.35-.2-.22-.82-.5-1.4-.47-.28.02-.47.1-.58.25-.74 1.05-2.48 2.27-6.46 2.19-.82-.02-1.51-.33-1.99-.92-1.31-1.57-.81-4.69-.52-6.56.06-.4.12-.71.13-.91.04-.7-.25-.94-.26-.95-.4-.24-.51-.75-.27-1.15s.78-.52 1.18-.28c.12.07 1.14.74 1.05 2.47-.01.23-.07.61-.14 1.08-.22 1.38-.67 4.24.14 5.21.12.14.3.3.73.31 2.51.05 4.33-.49 5.04-1.48.41-.58 1.07-.92 1.86-.96 1-.07 2.17.37 2.75 1.03.13.15.25.3.37.45.43.56.71.93 1.93.97 2.54.09 4.34-.51 4.48-.87.29-.76.86-4.44 1.16-6.59.06-.46.49-.79.96-.72.46.06.79.49.72.96-.08.59-.8 5.77-1.25 6.95-.68 1.79-4.17 1.98-5.64 1.98z" fill="#4986b4"/><path d="m438.28 592.17c-.01 0-.02 0-.03 0-.41-.02-.74-.32-.81-.72l-2.02-12.86c-.07-.46.24-.9.71-.97s.9.24.97.71l1.34 8.56 1.91-8.19c.11-.46.56-.74 1.02-.63s.74.56.63 1.02l-2.9 12.44c-.08.37-.43.64-.82.64z" fill="#4986b4"/><path d="m506.49 385.96c-.92-5.26-1.22-9.97-1.22-10.02-.03-.46-.43-.83-.88-.8l-85.36 3.18c-.41.02-.75.32-.81.73-.14 1.05-3.54 25.8-2.55 36.94.97 10.95-.16 21.16-.17 21.27-.01.07-.01.13 0 .2.11.91 2.74 22.36 4.29 28.92 1.58 6.71 2.78 29.05 1.4 32.67-1.61 4.22-1.67 22.04 1.74 30.58 3.37 8.43 3.81 35.94 3.48 38.2-.39 2.74 2.01 11.1 2.29 12.04.08.28.3.5.58.58s.58.01.8-.18c1.63-1.46 6.49-4.9 9.39-3.28 3.98 2.22 11 6.8 11.07 6.85.19.12.43.17.65.12s.42-.19.54-.38c.35-.56 3.4-5.49 3.7-7.68.23-1.68-.67-6.55-1.59-11.09-.09-.47-.17-.84-.21-1.05-.1-.69-.32-9.16-.54-18.14-.48-19.1-.87-33.86-1.25-35.78-.61-3.05-2.85-13.1-3.17-14.54.29-1.53 2.23-11.84 2.05-16.42-.14-3.66 7.03-37.88 11.01-56.23l.88.21.64 24.65c-.01.49-.26 12.02 2.31 19.15 1.94 5.4 2.2 11.46 2.36 15.07.04 1.04.08 1.86.14 2.45.26 2.34 2.01 6.01 2.51 7.01-.45 2.75-3.78 23.3-2.88 28.93.92 5.72-1.46 34.89-2.31 37.06-.89 2.26-2.9 10.2-2.6 12.93.36 3.22.95 7.13 2.37 8.76 1.16 1.32 2.97 3.3 3.4 3.77l.88 2.04c.1.23.3.4.54.47.08.02.16.04.24.04.16 0 .33-.05.47-.14.06-.04 6.45-4.2 11.52-4.29 4.93-.1 7.88 2.4 7.91 2.43.27.24.66.28.98.1.31-.18.48-.54.42-.89-.01-.08-.33-1.97 1.19-3.13 2.39-1.82 3.78-9.44 2.59-11.72-.36-.68-.91-1.19-1.44-1.68-1.23-1.13-2.5-2.3-1.78-6.06.28-1.42.85-4 1.57-7.27 2.27-10.27 5.71-25.78 5.63-30.78-.05-3.25-.36-11.48-.66-19.43-.3-8.06-.59-15.67-.59-17.68 0-1.73.23-3.99.48-6.4.33-3.22.67-6.55.56-9.37-.08-2.1 1.26-9.74 2.82-18.58 1.99-11.33 4.25-24.18 4.62-31.37.3-5.97 1.21-26.02-.01-32.97z" fill="#4986b4"/><path d="m464.29 409.14c-.43 0-.8-.33-.84-.77-.04-.47.3-.88.76-.92 5.13-.49 5.58-7.12 5.59-7.4l-1-18.63c-.02-.47.33-.87.8-.89.49-.01.87.33.89.8l1 18.72c-.16 2.98-1.86 8.58-7.13 9.09-.02 0-.05 0-.07 0z" fill="#223a49"/><path d="m462.02 406.6c-.46 0-.83-.36-.85-.82l-.74-23.46c-.01-.47.35-.86.82-.87.46-.03.86.35.87.82l.74 23.46c.02.47-.35.86-.82.87 0 0-.01 0-.02 0z" fill="#223a49"/><path d="m502.8 383.25c-7.45 0-11.42-3.6-11.6-3.77-.34-.32-.36-.86-.04-1.2s.85-.36 1.2-.04c.07.06 4.49 4 12.63 3.21.46-.05.88.29.93.76s-.3.88-.76.93c-.83.07-1.61.11-2.36.11z" fill="#223a49"/><path d="m424.95 386.09c-1.9 0-4.15-.28-6.73-.84-.46-.1-.75-.55-.65-1.01s.55-.75 1.01-.65c7.2 1.57 10 .47 11.03-.32.85-.65.89-1.37.9-1.4.02-.46.4-.83.87-.82.46.01.83.38.83.84 0 .15-.04 1.51-1.47 2.66-1.29 1.02-3.22 1.54-5.79 1.54z" fill="#223a49"/><path d="m522.05 289.29c-.51-1.62-1-3.15-1.1-3.92-.08-.63-.14-4.49-.22-8.96-.25-14.79-.56-29.48-1.52-32.33-.16-.47-.31-.95-.46-1.45-1.29-4.18-2.89-9.38-9.72-10.1-7.38-.78-20.03-3.23-21.16-3.94-1.01-.87-1.95-.96-3.24-1.09-.27-.03-.56-.06-.95-.1l-40.06-1.7c-.06 0-.13 0-.19.01-.1.02-2.52.46-3.98 1.39-1.21.76-3.47 1.3-3.55 1.32-.15.05-15.52 4.93-18.11 5.34-.2.03-.42.06-.67.1-3.18.44-10.64 1.47-12.6 9.88-1.94 8.3-5.71 35.06 0 58.9 4.42 18.46 12.52 24.61 15.8 26.4 1.53.83 3.01 1.31 4.21 1.37-1.66 5.85-8.54 30.45-8.02 34.75.3 2.45.92 3.2 1.58 3.81.32.29.51.47.4 1.96-.28 3.8-.28 8.22-.28 8.26 0 .38.25.71.61.81.15.05 14.07 4.12 28.05 4.12 1.4 0 2.8-.04 4.19-.13 7.12-.46 12.34-1.05 16.53-1.53 4.65-.53 7.71-.87 10.04-.64 4.6.47 26.9-4.98 27.85-5.21.42-.1.7-.51.64-.94l-.89-6.64c.4-.18.87-.48 1.26-1 .65-.85.85-2 .62-3.42l-.08-.49c-1.8-10.78-2.63-17.39-2.45-19.66.29-3.76-.97-11.78-2.04-14.38-.33-.79-.56-1.54-.72-2.17.15.05.3.09.47.13 2.23.49 5.12-.52 8.58-3.02 7.89-5.7 9.39-12.16 9.82-17.72.3-3.86 1.39-6.43 2.18-8.31.32-.74.59-1.39.76-1.98.38-1.37-.38-3.95-1.58-7.72z" fill="#fbfce9"/><path d="m442.65 192.06c-.02-.13-.07-.26-.15-.37-.06-.08-1.44-1.94-3.45-1.76-.36.03-.89.2-1.32.82-1.03 1.49-.95 5.03-.56 6.46.05.2.12.48.2.81.92 3.78 2.09 7.85 4.32 8.14l2.12.28c.04.01.08.01.11.01.23 0 .45-.09.61-.26.19-.19.27-.46.23-.72z" fill="#eab334"/><path d="m484.38 227.8c-.15-.25-.42-.41-.71-.42-.04 0-4.17-.12-6.33-2.45-.95-1.02-1.37-4.27-1.28-5.86.02-.35-.18-.67-.49-.81l-31.62-12.72c-.3-.14-.65-.09-.9.12s-.36.55-.27.87c2 7.27 3.48 18.05.51 19.22-.23.09-.41.28-.49.52s-.05.5.08.71c.16.27 4.17 6.62 21.11 7.19.8.03 1.56.04 2.3.04 15.01 0 18-5.34 18.13-5.58.12-.26.11-.57-.04-.83z" fill="#eab334"/><path d="m481.67 202.65c-.28-4.1-.99-12.15-.71-13.99s4.66-22.76-17.81-26.01c0 0-13-2.26-20.78 10.32-7.77 12.58 4.95 47.21 8.62 51.73s9.47 6.22 15.41 4.52 8.62-8.34 11.31-12.3c2.69-3.95 4.24-10.17 3.96-14.27z" fill="#eab334"/><path d="m483.27 189.23c-1-.66-2.21-.34-2.77-.04-.25.13-.41.38-.45.66-.34 3.11.95 6.5 1 6.64.13.33.44.54.79.54h.03c.36-.01.67-.25.78-.59 2-6.3 1.03-6.94.62-7.21z" fill="#eab334"/><path d="m429.52 295.65c-.14 0-.28-.04-.42-.11-.41-.23-.55-.75-.32-1.15.46-.81 4.49-7.93 5.97-9.26 1.44-1.3 8.02-5.05 8.77-5.48.4-.23.92-.09 1.16.32.23.41.09.92-.32 1.16-1.98 1.13-7.37 4.27-8.47 5.26-.95.86-3.96 5.87-5.62 8.83-.17.28-.46.43-.75.43z" fill="#b8c1b8"/><path d="m430.23 327.31c-.28 0-.55-.13-.71-.38-.26-.39-.15-.92.24-1.17 4.38-2.88 14.05-13.22 16.58-17 2.4-3.61 3.81-14.92 3.82-15.04.06-.46.48-.79.94-.74.46.06.8.48.74.94-.06.48-1.47 11.83-4.09 15.77-2.61 3.91-12.39 14.42-17.06 17.48-.14.1-.3.14-.46.14z" fill="#b8c1b8"/><path d="m430.57 293.83c-.37 0-.71-.25-.82-.62l-11.79-42.84c-.12-.45.14-.92.59-1.04s.92.14 1.04.59l11.79 42.84c.12.45-.14.92-.59 1.04-.07.02-.15.03-.22.03z" fill="#b8c1b8"/><path d="m514.88 304.41c-.37 0-.71-.25-.82-.62-.61-2.22-4.14-4.12-5.44-4.67-.18-.07-.32-.2-.41-.37-.2-.35-4.83-8.67-5.82-10.8-.6-1.29-3.73-2.66-5.56-3.22-.45-.14-.7-.61-.56-1.06s.61-.7 1.06-.56c.56.17 5.48 1.73 6.6 4.13.87 1.87 4.84 9.01 5.63 10.44 1.13.52 5.32 2.61 6.15 5.67.12.45-.14.92-.6 1.04-.08.01-.15.02-.23.02z" fill="#b8c1b8"/><path d="m497.09 324.18c-.1 0-.21-.02-.31-.06-1.19-.47-3.02-3.18-5.99-8.01-.37-.61-.69-1.13-.93-1.49-.79-1.23-1.86-4.71-2.89-8.08-.66-2.16-1.34-4.39-1.66-4.97-.97-1.78-.18-5.65-.09-6.09.1-.46.55-.75 1.01-.65s.75.55.65 1.01c-.3 1.41-.59 3.99-.08 4.92.38.7.93 2.47 1.8 5.29.9 2.95 2.03 6.63 2.69 7.66.24.37.56.9.94 1.52 1.16 1.89 4.24 6.9 5.18 7.32.42.19.63.69.45 1.11-.14.32-.45.52-.77.52z" fill="#b8c1b8"/><path d="m500.79 286.35c-.06 0-.12-.01-.18-.02-.46-.1-.75-.55-.65-1.01l7.31-33.24c.1-.46.55-.75 1.01-.65s.75.55.65 1.01l-7.31 33.24c-.09.4-.44.67-.83.67z" fill="#b8c1b8"/><path d="m446.57 371.84c-.19 0-.34 0-.45-.01-3.07-.28-26.77-2.01-27.01-2.03-.47-.03-.82-.44-.78-.91.03-.47.45-.82.91-.78.24.02 23.96 1.75 27.04 2.03 2.48.22 29.22-2.68 39.31-3.81.05-.01.1-.01.14 0l16.91.99c.47.03.82.43.8.9-.03.47-.42.82-.9.8l-16.84-.98c-2.22.23-34.07 3.8-39.13 3.8z" fill="#b8c1b8"/><path d="m456.37 212.56c-.07 0-.14-.01-.21-.05-.27-.12-.39-.43-.27-.7l.29-.65c.12-.27.43-.39.7-.27s.39.43.27.7l-.29.65c-.09.21-.29.32-.49.32z" fill="#42342e"/><path d="m457.89 212.56c-.07 0-.14-.01-.21-.05-.27-.12-.39-.43-.27-.7l.29-.65c.12-.27.43-.39.7-.27s.39.43.27.7l-.29.65c-.09.21-.29.32-.49.32z" fill="#42342e"/><path d="m459.2 212.56c-.07 0-.14-.01-.21-.05-.27-.12-.39-.43-.27-.7l.29-.65c.12-.27.43-.39.7-.27s.39.43.27.7l-.29.65c-.09.21-.29.32-.49.32z" fill="#42342e"/><path d="m460.81 212.72c-.07 0-.14-.01-.21-.05-.27-.12-.39-.43-.27-.7l.29-.65c.12-.27.43-.39.7-.27s.39.43.27.7l-.29.65c-.1.2-.29.32-.49.32z" fill="#42342e"/><path d="m461.81 212.89c-.07 0-.14-.01-.21-.05-.27-.12-.39-.43-.27-.7l.29-.65c.12-.27.43-.39.7-.27s.39.43.27.7l-.29.65c-.09.2-.29.32-.49.32z" fill="#42342e"/><path d="m466.93 212.89c-.07 0-.14-.01-.21-.05-.27-.12-.39-.43-.27-.7l.29-.65c.12-.27.43-.39.7-.27s.39.43.27.7l-.29.65c-.09.2-.28.32-.49.32z" fill="#42342e"/><path d="m468.52 212.56c-.07 0-.14-.01-.21-.05-.27-.12-.39-.43-.27-.7l.29-.65c.12-.27.43-.39.7-.27s.39.43.27.7l-.29.65c-.09.21-.28.32-.49.32z" fill="#42342e"/><path d="m469.79 212.56c-.07 0-.14-.01-.21-.05-.27-.12-.39-.43-.27-.7l.29-.65c.12-.27.43-.39.7-.27s.39.43.27.7l-.29.65c-.09.21-.28.32-.49.32z" fill="#42342e"/><path d="m470.93 212.56c-.07 0-.14-.01-.21-.05-.27-.12-.39-.43-.27-.7l.29-.65c.12-.27.43-.39.7-.27s.39.43.27.7l-.29.65c-.1.21-.29.32-.49.32z" fill="#42342e"/><path d="m472.09 212.56c-.07 0-.14-.01-.21-.05-.27-.12-.39-.43-.27-.7l.29-.65c.12-.27.43-.39.7-.27s.39.43.27.7l-.29.65c-.09.21-.28.32-.49.32z" fill="#42342e"/><path d="m473.19 213.04c-.07 0-.14-.01-.21-.05-.27-.12-.39-.43-.27-.7l.29-.65c.12-.27.43-.39.7-.27s.39.43.27.7l-.29.65c-.09.2-.29.32-.49.32z" fill="#42342e"/><path d="m474.28 213.04c-.07 0-.14-.01-.21-.05-.27-.12-.39-.43-.27-.7l.29-.65c.12-.27.43-.39.7-.27s.39.43.27.7l-.29.65c-.09.2-.28.32-.49.32z" fill="#42342e"/><path d="m454.85 213.04c-.07 0-.14-.01-.21-.05-.27-.12-.39-.43-.27-.7l.29-.65c.12-.27.43-.39.7-.27s.39.43.27.7l-.29.65c-.09.2-.28.32-.49.32z" fill="#42342e"/><path d="m453.4 213.53c-.07 0-.14-.01-.21-.05-.27-.12-.39-.43-.27-.7l.29-.65c.12-.27.43-.39.7-.27s.39.43.27.7l-.29.65c-.09.2-.29.32-.49.32z" fill="#42342e"/><path d="m460.95 222.11c-.07 0-.14-.01-.21-.05-.27-.12-.39-.43-.27-.7l.29-.65c.12-.27.43-.39.7-.27s.39.43.27.7l-.29.65c-.09.2-.29.32-.49.32z" fill="#42342e"/><path d="m462.1 222.76c-.07 0-.14-.01-.21-.05-.27-.12-.39-.43-.27-.7l.29-.65c.12-.27.43-.39.7-.27s.39.43.27.7l-.29.65c-.1.2-.29.32-.49.32z" fill="#42342e"/><path d="m463.48 223.08c-.07 0-.14-.01-.21-.05-.27-.12-.39-.43-.27-.7l.29-.65c.12-.27.43-.39.7-.27s.39.43.27.7l-.29.65c-.09.2-.29.32-.49.32z" fill="#42342e"/><path d="m464.99 223.08c-.07 0-.14-.01-.21-.05-.27-.12-.39-.43-.27-.7l.29-.65c.12-.27.43-.39.7-.27s.39.43.27.7l-.29.65c-.09.2-.29.32-.49.32z" fill="#42342e"/><path d="m466.51 222.76c-.07 0-.14-.01-.21-.05-.27-.12-.39-.43-.27-.7l.29-.65c.12-.27.43-.39.7-.27s.39.43.27.7l-.29.65c-.09.2-.28.32-.49.32z" fill="#42342e"/><path d="m467.36 222.56c-.07 0-.14-.01-.21-.05-.27-.12-.39-.43-.27-.7l.29-.65c.12-.27.43-.39.7-.27s.39.43.27.7l-.29.65c-.09.2-.29.32-.49.32z" fill="#42342e"/><path d="m472.09 219.83c-.77.88-3.09 6.09-8.62 6.71-5.52.61-9.55-6.16-10.97-8.53-1.41-2.37-3.78-3.46-4.62-5.01-3.2-5.92-3.58-9.69-3.96-11.2s.38-4.99.38-7.11 1.23-5.42 2.54-6.93c1.32-1.51 0-5.75-.28-7.82s2.45-5.46 5.38-5.65c1.75-.11 6.33 1.63 7.13 2.02.07.04.14.07.21.12.56.4 2.15 2.04 4.79 1.91 2.49-.12 4.12-1.6 5.27-2.26 1.16-.66 5.65-2.36 6.84-2.45s2.32 1.32 2.32 2.54c0 2.19.23 4.38.69 6.53.58 2.71 1.32 6.13 1.33 6.14 1.08.97 1.16-6.19.52-10.66-.93-6.47-5.38-13.72-17.91-15.53 0 0-13-2.26-20.78 10.32-7.77 12.58 4.95 47.21 8.62 51.73s9.47 6.22 15.41 4.52 8.62-8.34 11.31-12.3c1.63-2.41 2.84-5.65 3.48-8.75-.69 1.26-1.88 3.52-2.21 4.82-.45 1.88-6.1 5.96-6.87 6.84z" fill="#223a49"/><path d="m464.55 237.48c-17.01 0-22.89-6.95-23.14-7.26-.2-.24-.16-.6.08-.79.24-.2.6-.16.8.08.06.07 6.3 7.37 24.22 6.81 17.49-.53 18.61-5.16 18.62-5.21.06-.3.35-.51.65-.46s.51.32.47.62c-.08.57-1.29 5.61-19.71 6.17-.69.03-1.35.04-1.99.04z" fill="#b8c1b8"/><path d="m446.55 298.86c-.07 0-.14-.01-.21-.04-6.87-2.75-7-11.13-7-11.22 0-.31.25-.57.56-.57.31 0 .56.25.57.56 0 .08.13 7.71 6.29 10.17.29.12.43.45.32.73-.09.23-.3.37-.53.37z" fill="#b8c1b8"/><path d="m493.54 302.38c-3.43 0-5.59-1.94-5.62-1.98-.23-.21-.24-.57-.03-.8s.57-.24.8-.03 5.75 5.12 13.43-2.73l1.02-2.27c.13-.28.46-.41.75-.28.28.13.41.46.28.75l-1.06 2.36c-.03.06-.06.11-.11.16-3.64 3.74-6.91 4.82-9.46 4.82z" fill="#b8c1b8"/><path d="m466.83 251.56s.21-3.89 3.04-3.96 16.65-.61 16.65-.61 2.14-.57 1.72 3.44c-.3 2.83-3.25 26.43-3.25 26.43h-20.71z" fill="#203746"/><path d="m497.92 283.82c-.09-.75-.44-1.57-.77-2.36-.26-.6-.52-1.22-.57-1.61l-.06-.5c-.36-3.23-.92-6.72-2.4-8.07-1.6-1.46-3.19-3.77-3.75-5.08-.75-1.76-3.48-2.88-3.73-2.98l-8.16-3.9c-.21-.09-2.12-.86-3.59-.14-.69.34-1.16.95-1.38 1.76-.65 2.44 1.45 4.16 2.62 4.72 3.45 1.77 7.45 4.12 7.86 4.76.13.37-.12.97-.42 1.46l-12.71-4.68c-1.26-.32-3.51-.8-4.36-.38-.07.02-.3.04-.48.06-1.33.12-4.46.4-4.26 5.07.19 4.72 0 11.88 0 11.96-.01.37.22.7.56.82l8.02 2.87 10.09 4.34c.81.72 4.7 4.13 6.74 4.49.35.06.71.09 1.07.09 1.98 0 3.91-.88 4.7-1.67.8-.8 3.66-4.73 4-5.58.27-.68 1.15-3.98.98-5.45z" fill="#eab334"/><path d="m483.04 278.36c-1.25-1.32-3.75-1.23-3.97-1.22-.07 0-7.07-.15-11.21-.7-1.19-.16-1.66-.38-1.83-.49l.03-.03c1.77-.13 10.91-.82 12.83-.75 3.52.1 4.09-1.7 4.19-2.26.15-.91.08-2.87-1.27-3.8-.85-.59-2.95-.58-6.78-.35-.4.02-.76.05-1.02.06-.95.04-4.78.03-7.75.02l.77-.37c.39 0 1.56.02 4.88.07 2.37.04 3.68-.27 4.4-1.02.69-.73.63-1.64.58-2.44l-.02-.39c-.09-2.14-4.39-2.71-7-2.86h-6.78c-.13 0-.26.03-.38.09-1.05.52-3.98 1.95-4.98 2.29-1.79.6-3.5 1.75-5.22 3.54-1.45 1.51-2.89 4.9-3.94 7.37-.35.83-.75 1.78-.88 1.96-.3.38-2.39 1.64-4.15 2.59-.23.13-.4.35-.44.62-.03.17-.65 4.21 0 8.39.72 4.64 7.46 5.95 7.75 6 .05.01.1.01.16.01.36 0 .69-.23.81-.59l.47-1.46c.98-.12 2.8-.38 3.42-.63.68-.27 7.17-3.46 8.51-4.11 1.5-.04 10.93-.31 13.03-.72 2.09-.4 2.59-1.38 2.71-1.92.13-.6-.11-1.21-.61-1.6 1.51-.05 4.09-.45 4.38-3.16.07-.85-.16-1.58-.69-2.14z" fill="#eab334"/><path d="m96.71 425.86c.07-.62 1.65-15.18 1.75-16.4.1-1.26-1.45-17.45-1.62-19.29l-3.54-8.52-81.13 3.92-.19.54c-.18.51-4.32 12.61-4.32 15.92 0 2.72.17 17.54.95 22.46.72 4.53 8 54.44 8.46 57.59-.2.93-1.01 4.89-.73 6.58.15.93.7 1.26 1.01 1.37 1.06.38 2.28-.57 2.64-.87l.11-.12c.01-.01 1.03-1.28 2.21-.78 1.44.61 3.94 2.38 4.64 2.88.12.32.21.67.21.87-.01 0-.03 0-.04 0-.81-.04-1.79-.18-2.75-.31-1.02-.14-1.9-.26-2.48-.26-1.31 0-2.16.69-2.25.77l-.45.39.21.56c.69 1.84 1.68 5.25 1.38 6.58-.4 1.77-.25 2.7-.1 3.11l.25 3.19c-.45.85-1.61 3.63-1.2 9.21.47 6.45 4.21 35.84 4.24 36.05l.2 7.03.48.22c.19.09 4.75 2.15 10.42 2.24 5.64.1 12.31-1.84 12.6-1.92l.58-.17.03-.61c.26-5.92.73-15.09.93-16.08.2-1.02.68-3.64.68-6.01l-.01-11.88-1.21-10.46c.05-.51.27-2.88.18-4.38-.08-1.42-.96-3.65-1.33-4.54.34-.74 1.05-2.43 1.05-3.89 0-.95-.33-1.83-.62-2.61-.27-.73-.53-1.42-.43-1.93.11-.55.6-1.35 1.08-2.12.6-.97 1.16-1.89 1.28-2.73.19-1.33.54-17.32.57-19.13v-.08l-.01-.08c-.44-2.62-1.57-9.82-1.5-11.6.09-2.25.1-6.45.09-6.54l3.38-30.19 4.06 1.17 8.89 70.82c.13.71 1.27 6.96 2.16 8.63.7 1.31 1.47 3.26 1.69 3.81l-.47 35.99 1.98 5v13.93l22.93 1.02-.03-.92c0-.05-.17-4.95.79-7.49.63-1.66 2.11-6.35 2.22-14.04.1-6.47.19-33.32 0-36.81-.11-1.95-.95-5.16-1.77-8.26-.64-2.41-1.3-4.91-1.34-5.95-.09-2.31.64-10.61 1.3-13.93.65-3.32 1.85-49.07 1.89-50.95z" fill="#4986b4"/><path d="m19.87 488.1.33 4.77s.58-.75 3.5-.39 4.53.81 4.31-.36-1.97-3.2-4.94-4.43c-2.97-1.24-3.2.41-3.2.41z" fill="#fff"/><path d="m48.83 555.9-1.46.74c-.06.03-5.81 2.9-12.22 2.45-6.45-.45-9.73-2.06-9.76-2.08l-1.23-.62v3.69c-.22.42-.57 1.31-.57 2.77 0 1.54.33 5.96 1.12 7.23.47.77 1.19 1.62 1.56 2.03-.01 1.05.11 3.24 1.32 3.95.73.43 1.97.47 3.67.52 1.34.04 2.86.08 4.29.34.96.17 1.86.26 2.74.26 1.79 0 3.45-.37 5.15-1.12 2.16-.95 4.69-3.61 4.8-3.73l.22-.23.01-.32c0-.06.05-1.5 0-2.65-.05-1.09.02-3.72.02-3.72.04-.62.25-3.78-.03-4.81-.14-.53-.01-2.13.13-3.09z" fill="#c6dbe8"/><path d="m94.06 568.59c.03-.14.24-.6.4-.94.61-1.31 1.45-3.11.69-4.36-.4-.65-1.11-1-2.13-1.04-3.45-.14-21.26-.7-21.44-.71l-.6-.02-.22.56c-.06.17-.63 1.66-.57 2.93.04 1 .37 2.04.51 2.45-.09 1.91-.32 6.51-.5 7.44l-.07.33c-.51 2.61-.69 4.29-.08 5.11.22.3.54.48.9.51.71.06 1.38-.45 2.39-1.22 1.26-.96 2.98-2.29 4.63-2.13 2.6.24 7.73.91 9.24 1.12.55.97 1.74 2.74 3.15 2.8h.07c1.75 0 3.5-2.24 3.67-4.06l.1-1.13c.11-1.25.32-3.59.47-4.05.21-.64-.03-1.43-.3-2.27-.14-.47-.32-1.06-.31-1.32z" fill="#c6dbe8"/><path d="m16.9 400.8c-3.81 0-7.18-.65-7.32-.67-.46-.09-.76-.53-.67-.99s.53-.76.99-.67c.03.01 3.36.64 7 .64 2.61 0 5.41-5.4 6.19-7.29.18-.43.67-.64 1.11-.46.43.18.64.67.46 1.11-.36.84-3.55 8.33-7.76 8.33z" fill="#2a719e"/><path d="m83.43 400.87c-.56 0-1.13-.02-1.68-.07-5.71-.5-10.33-7.43-10.53-7.73-.26-.39-.15-.92.24-1.17.39-.26.92-.15 1.17.24.04.07 4.37 6.54 9.26 6.97 5.13.45 11.18-1.63 11.24-1.65.44-.16.93.08 1.08.52s-.08.93-.52 1.08c-.24.08-5.27 1.81-10.26 1.81z" fill="#2a719e"/><path d="m71.92 394.49h-2.54c-.39 0-.74-.27-.83-.65l-1.13-4.81c-.09-.4.11-.81.49-.97l2.93-1.26c.25-.11.53-.09.76.04s.39.37.42.63l.74 6.06c.03.24-.05.48-.21.67-.15.19-.38.29-.63.29zm-1.87-1.69h.91l-.49-3.99-1.24.53z" fill="#2a719e"/><path d="m26.41 393.45c-.04 0-.08 0-.13-.01l-3.11-.47c-.23-.04-.44-.17-.57-.36s-.18-.43-.13-.66l.57-2.58c.1-.44.52-.73.96-.66l3.98.65c.28.05.51.22.63.48.12.25.1.55-.04.79l-1.43 2.4c-.15.27-.43.42-.73.42zm-2.08-2.02 1.65.25.5-.84-1.95-.32z" fill="#2a719e"/><path d="m49.17 419.74c-.03 0-.05 0-.08 0-.47-.04-.81-.45-.77-.92.01-.11.99-11.13 1.08-14.55.09-3.33-2.12-12.4-2.14-12.5-.11-.45.17-.91.62-1.03.45-.11.91.17 1.03.62.09.38 2.29 9.38 2.19 12.94-.09 3.47-1.04 14.2-1.08 14.66-.05.45-.42.78-.85.78z" fill="#2a719e"/><path d="m77.2 476.85c-.62 0-1.39-.22-1.93-.74-.45-.43-.66-1-.6-1.61.13-1.39 2.48-2.07 4.45-2.4 1.01-.24 1.58.1 1.88.43.8.87.33 2.4.23 2.7-.08.23-.25.41-.48.51-.4.16-2.41.99-3.24 1.09-.11.02-.21.02-.31.02zm2.07-3.92h.01z" fill="#fff"/><path d="m43.09 558.82c-.01 0-.03 0-.04 0-.31-.02-.54-.3-.52-.61.02-.2.38-4.95.66-6.2.18-.85.09-5.05-.01-7.68-.01-.29-1.03-29.13-1.39-32.08-.39-3.09 2.71-14.08 2.84-14.55.09-.3.4-.48.7-.39s.47.4.39.7c-.03.11-3.17 11.23-2.81 14.1.38 3.01 1.36 30.99 1.4 32.18.03.68.26 6.7-.01 7.96-.26 1.17-.63 6-.63 6.05-.04.29-.29.52-.58.52z" fill="#2a719e"/><path d="m37.7 564.19c-.1 0-.19 0-.29 0-3.2-.09-11.49-.91-11.84-.95-.47-.05-.81-.46-.76-.93s.47-.81.93-.76c.09.01 8.58.85 11.72.94 3.03.09 8.24-1.55 8.29-1.56.45-.14.92.11 1.06.55.14.45-.11.92-.55 1.06-.21.07-5.24 1.65-8.56 1.65z" fill="#94b4c9"/><path d="m91.71 568.24c-.08 0-2.09-.01-4.69-.53-2-.4-10.25-.12-13.27.02-.46.01-.86-.34-.89-.81-.02-.47.34-.87.81-.89.45-.02 11.06-.51 13.68.02 2.42.49 4.34.5 4.36.5.47 0 .85.38.85.85 0 .46-.38.84-.85.84z" fill="#94b4c9"/><path d="m95.22 601.77c-.19-1.05-.4-2.24-.35-3.78l.03-.77c.06-1.81.06-1.88-.27-3.63l-.24-1.29c-.63-3.48-2.23-6.61-2.29-6.73l-.48-.96-.08-4.07c0-.2-.08-.4-.22-.55l-2.78-3.09c-.15-.16-.35-.26-.58-.28l-11.12-.71c-.18-.01-.37.04-.52.14l-.89.59c-.21.01-.42.03-.65.06-.28.04-.52.21-.64.46-.06.12-.09.25-.09.39l-1.31.86c-.27.18-.42.5-.37.82 0 .02.01.05.01.07-2.64 2.7-5.56 6.08-5.23 7.58.22.97.84 1.67 1.72 1.91.23.06.46.09.7.09.79 0 1.61-.35 2.27-.95-1.97 5.11-4.55 9.17-4.59 9.24-.25.39-.14.92.26 1.17.14.09.3.13.46.13.28 0 .55-.14.71-.39.15-.24 2.19-3.44 4.04-7.77-.37 3.98-.93 9.52-1.12 10.13-.08.16-.21.38-.36.64-.7 1.22-1.24 2.21-1.24 2.94v1.02c-.55.85-2.26 3.64-2.17 5.76.01.25-.01.54-.03.85-.08 1.28-.19 3.22 1.28 4.67 1.26 1.25 3.44 1.86 6.62 1.86.65 0 1.34-.03 2.08-.08 12.03-.84 15.66-5.24 16.49-6.57.94-1.51 1.03-3.84 1.11-5.71.02-.53.04-1 .08-1.39.08-.85-.07-1.69-.24-2.66zm-25.9-14.61c-.27-.08-.44-.29-.52-.6.02-.67 1.72-2.8 3.84-5.07.02.2.04.4.07.6-.73 2.15-1.48 4.05-1.9 4.49-.44.47-1.05.71-1.49.58z" fill="#223a49"/><path d="m46.12 574.63c.07-.26.01-.55-.16-.76s-.44-.33-.71-.31l-17.09 1.04c-.38.02-.69.29-.77.66-.04.05-.09.11-.12.17-.06.13-.07.26-.07.39-10.24 5.18-9.86 6.84-9.73 7.39.15.62.45 1.02.91 1.19.15.06.3.08.45.08.67 0 1.36-.51 2.31-1.22.58-.43 1.24-.93 2.01-1.39 1.26-.77 2.51-1.86 3.51-2.83l-.6 3.24c-.46.9-3.4 6.63-4.55 9.37-1.16 2.77-8.06 11.39-11.36 14.19-2.97 2.52-3.16 2.83-3.38 5.49-.04.46-.09 1-.16 1.66-.17 1.5-.35 3.05.7 4.18 1.1 1.19 3.34 1.69 8.46 1.69 1.44 0 3.11-.04 5.05-.11 12.58-.48 14.53-9.15 14.81-11.18l10.82-8.07c.2-.15.32-.38.34-.63.02-.31.47-7.53.47-8.44 0-.97-.71-6.2-1.84-8.36-.62-1.22.1-5.21.7-7.44z" fill="#223a49"/><path d="m51.67 423.61c-.07 0-.14-.01-.21-.03-11.49-2.9-20.66-6.4-20.75-6.44-.44-.17-.66-.66-.49-1.1s.66-.65 1.1-.49c.09.03 9.17 3.5 20.55 6.38.45.11.73.58.61 1.03-.09.39-.44.65-.81.65z" fill="#2a719e"/><path d="m45.16 490.89h-.02c-.47-.01-.84-.4-.83-.86l1.27-65.21c.01-.47.44-.82.86-.83.47.01.84.4.83.86l-1.27 65.21c0 .46-.38.83-.84.83z" fill="#2a719e"/><path d="m69.6 207.62-.72-1.86c.27-.02.51-.17.65-.4s.17-.51.07-.76c-.72-1.81-5.42-10.19-9.62-13.19-3.24-2.31-6.14-1.93-7.46-1.56-.73-1.2-2.12-3.28-3.28-3.72-1.78-.68-7.73-.8-16.83 1.67-9.13 2.48-13.35 11.13-15.61 15.78-.24.49-.46.94-.66 1.33-2.25 4.4-.08 8.45.01 8.62.13.23.36.39.62.43.2.03.41-.02.58-.13.19.83.4 1.83.5 2.43.24 1.58.94 3.35 1.92 4.85 1.04 1.6 4.89 7.72 4.89 7.72.16.25.43.4.72.4.05 0 .1 0 .14-.01l42.59-7.35c.36-.06.64-.35.69-.71l.85-5.56c.01-.04.01-.08.01-.13v-7.54c0-.1-.02-.21-.06-.31z" fill="#4986b4"/><path d="m37.34 255.42s-4.43.77-5.75 1.8-5.18 2.72-5.18 2.72-7.87 2.07-10.44 2.92-11.89 6.22-11.89 6.22l-.94 1.22 14.51 22.99.94 58.23-8.86 33.45s12.72 7.35 35.99 5.75 38.82-6.22 42.31-6.22 6.03 1.7 6.88 4.24 2.07 1.41 1.88.09-3.11-7.07-2.83-9.05-.19-5.94-.75-8.2c-.57-2.26-1.22-5.37-1.22-5.37l-1.6-14.32-5.65-55.5s10.08-11.68 19.88-9.89c0 0-5.18-21.2-12.72-24.87s-11.78-3.77-11.78-3.77z" fill="#223a49"/><path d="m80.93 257.62c-.08-.25-.26-.45-.51-.54-2.45-.95-9.1-3.83-10.44-5.77-1.75-2.53-5.11-8.49-5.14-8.55-.2-.36-.64-.53-1.03-.38l-23.42 8.62c-.2.07-.37.22-.46.41-.61 1.2-1.87 2.99-2.76 3.18-.36.08-.62.38-.66.74-.01.14-1.3 14.32 16.09 16.57 1.13.15 2.23.21 3.31.21 15.19 0 24.82-13.62 24.92-13.76.13-.21.18-.48.1-.73z" fill="#eab334"/><path d="m70.51 220.24c.08-5.28-1.09-5.51-1.53-5.6-.99-.2-2.5.88-3.1 1.35-.63.5-1.93 1.63-2.51 3-1.14-1.31-3.24-4.18-4.99-6.59-5.59-7.67-7.52-10.06-8.74-10.12-2.02-.1-14.55 2.89-15.97 3.23-.16.04-.3.12-.41.24-.21.22-5.09 5.32-5.69 8.93-.55 3.32-2.98 13.41-3 13.51-.04.17-.03.35.04.52.93 2.27 3.37 8.55 3.52 10.3.22 2.62 3.99 7.3 7.21 9.75.6.46 1.34 1.03 2.15 1.65 4.53 3.49 8.09 6.2 9.43 6.59.45.13.91.2 1.39.2 1.63 0 3.46-.77 5.75-2.39 3.15-2.24 9.48-7.48 10.86-11.34 1.52-4.23 1.75-7.25 1.75-8.67v-3.97c.72-1.03 3.3-4.78 3.83-6.74.5-1.92.16-3.36.01-3.85z" fill="#eab334"/><path d="m17.93 275.39 9.73 27.61c.44 1.24 1.61 2.07 2.92 2.07h17.39c1.26 0 2.14-1.23 1.74-2.43l-9.74-27.82s-.34-2.54-2.67-2.54-17.59 0-17.59 0-2.79.25-1.78 3.11z" fill="#fbfce9"/><path d="m42.39 202.65c-.04 0-.08 0-.12-.01-.31-.07-.5-.36-.44-.67.27-1.26.71-4.85-.42-6.24-.31-.38-.72-.57-1.25-.57-3.63 0-7.61 2.1-7.65 2.12-.28.15-.62.04-.77-.23-.15-.28-.04-.62.23-.77.17-.09 4.27-2.26 8.18-2.26.89 0 1.6.33 2.13.99 1.7 2.1.69 6.98.65 7.19-.04.27-.27.45-.54.45z" fill="#223a49"/><path d="m47.31 199.76c-.05 0-.1-.01-.16-.02-.3-.09-.47-.4-.39-.7.34-1.19 1.04-4.83-.17-5.84-.24-.2-.27-.56-.07-.8s.56-.27.8-.07c1.99 1.67.69 6.48.53 7.02-.07.24-.3.41-.54.41z" fill="#223a49"/><path d="m40.45 203.69c-.09 0-.17-.02-.25-.06-.28-.14-.39-.48-.25-.76.32-.65 1.09-2.54.73-3.53-.09-.23-.23-.38-.44-.48-.29-.12-.42-.46-.3-.74.12-.29.46-.42.74-.3.5.22.87.61 1.06 1.13.59 1.62-.64 4.14-.78 4.42-.1.2-.3.32-.51.32z" fill="#223a49"/><path d="m44.83 202.65c-.07 0-.15-.01-.22-.04-.29-.12-.42-.45-.3-.74.02-.04 1.82-4.38 1.1-7.13-.08-.3.1-.61.4-.69s.61.1.69.4c.82 3.12-1.08 7.66-1.16 7.85-.08.22-.29.35-.51.35z" fill="#223a49"/><path d="m34.35 298.03-4.67-1.52c.5-.23.9-.37 1.09-.36.74.05 2.11.15 3.01-.73.54-.54.79-1.3.73-2.28-.06-.94-.42-1.7-1.09-2.27-.93-.79-2.41-1.12-4.5-1.03.61-.48 1.04-1 1.13-1.53.14-.83-.14-1.75-.76-2.54-.59-.75-1.39-1.23-2.14-1.28-.8-.06-8.28.94-9.26 2.15-.15.19-.37.41-.61.65-.77.77-1.62 1.64-1.8 2.56l-10.1-16.24c-.17-.27-.48-.42-.8-.4-.32.03-.6.24-.71.53-.12.31-3 7.73-2.42 15.38.35 4.62 1.05 18.46 1.62 29.57.36 7.04.64 12.61.75 14.14.29 4.19.87 9.42 1.64 11.54l.18.5c.91 2.54 2.6 7.28 5.54 8.65.52.24 1.06.36 1.62.36 2.28 0 4.85-2.01 7.54-5.93 2.39-3.47 4.86-7.57 5.05-11.56.17-3.57 1.91-18.82 2.21-21.42.86-.63 2.76-2.19 2.76-3.77v-2.62c.93-.58 2.9-2 2.9-3.74 0-.62-.04-1.13-.13-1.54.69-.43 1.6-1.13 1.8-1.93.25-.98.04-2.49.02-2.66-.06-.32-.29-.58-.6-.68z" fill="#eab334"/><path d="m104.34 285.89c-.19-.17-.45-.25-.7-.21l-18.62 2.92c-.41.06-.71.41-.72.83l-.43 33.07c-4.6-4.51-18.69-18.32-19.85-19.23-.92-.72-6.51-7.79-9.82-12.08-.04-.06-.1-.11-.15-.15-.03-.03-3.36-2.59-4.44-3.67-1.3-1.3-3.82-1.62-4.11-1.66-.05-.01-.11-.01-.16 0l-7.56.57c-.13.01-.25.05-.36.11-.33.19-3.25 1.93-3.26 4.12 0 1.18.51 2.15.99 2.79-.71.65-1.04 1.65-.99 2.98.07 1.69 2.19 2.55 3.46 2.92-.09.4-.2.92-.33 1.43-.29 1.15.52 2.47 1.04 3.16-.14.42-.26 1.06-.22 1.96.1 2.01 2.57 2.87 2.88 2.97l6 1.7c2.74 2.74 7.14 4.21 8.34 4.57 1.05 1.5 6.72 9.56 10.15 14.32 2.71 3.76 9.41 10.67 14.3 15.72 2.07 2.13 3.85 3.97 4.84 5.06 3.19 3.53 5.08 3.81 5.61 3.81h.1c9.75-.68 10.99-19.97 11.03-20.79l3.25-46.52c.02-.28-.08-.53-.27-.7z" fill="#eab334"/><path d="m8.51 336.83c-.03 0-.06 0-.09 0-.47-.05-.8-.47-.75-.94.57-5.16 3.63-10.21 4.03-10.85 2.21-5.22 7.96-18.99 8.4-21.08.37-1.71-1.77-7.03-3.21-9.98-.2-.42-.03-.93.39-1.13s.93-.03 1.13.39c.41.83 3.95 8.23 3.35 11.08-.58 2.69-8.2 20.68-8.53 21.45-.02.04-.04.08-.07.12-.03.05-3.26 5.18-3.82 10.19-.03.43-.4.75-.83.75zm3.94-11.4h.01z" fill="#eab334"/><path d="m49.5 296.12c-.13 0-.27-.03-.4-.1l-5.75-3.06-5.85 1.32c-.46.1-.91-.18-1.01-.64s.18-.91.64-1.01l6.15-1.39c.2-.04.41-.02.58.08l6.03 3.2c.41.22.57.73.35 1.15-.15.29-.44.45-.74.45z" fill="#eab334"/><path d="m47.64 300.27c-.13 0-.25-.03-.37-.09l-3.94-1.93-3.62 1.1c-.45.14-.92-.12-1.06-.56-.14-.45.12-.92.56-1.06l3.94-1.2c.21-.06.43-.04.62.05l4.24 2.07c.42.21.6.71.39 1.13-.14.31-.44.49-.76.49z" fill="#eab334"/><path d="m46.75 305.36c-.04 0-.07 0-.11-.01l-6.58-.87c-.46-.06-.79-.49-.73-.95s.48-.79.95-.73l6.58.87c.46.06.79.49.73.95-.06.43-.42.74-.84.74z" fill="#eab334"/><path d="m65.5 226.96c-.31 0-.57-.25-.57-.57v-4.24c0-2.22 1.95-3.89 2.04-3.96.24-.2.59-.17.8.07.2.24.17.59-.06.8-.02.01-1.64 1.42-1.64 3.1v4.24c0 .31-.26.56-.57.56z" fill="#d19620"/><path d="m65.5 223.53c-.31 0-.57-.25-.57-.57 0-.74.32-1.18.59-1.42.71-.63 1.76-.53 1.88-.51.31.04.53.32.5.63-.04.31-.31.53-.63.5-.18-.02-.72-.02-1 .24-.05.05-.21.19-.21.58.01.3-.25.55-.56.55z" fill="#d19620"/><path d="m68.33 232.42c-1.39 0-2.47-1.45-2.47-3.3s1.09-3.3 2.47-3.3c1.39 0 2.47 1.45 2.47 3.3 0 1.86-1.09 3.3-2.47 3.3zm0-5.46c-.73 0-1.34.99-1.34 2.17 0 1.17.62 2.17 1.34 2.17.73 0 1.34-.99 1.34-2.17 0-1.17-.62-2.17-1.34-2.17z" fill="#4986b4"/><path d="m131.2 26.9h28.16v28.16h-28.16z" fill="#fff"/></svg>