<?xml version="1.0" encoding="utf-8"?>
<!-- Generator: Adobe Illustrator 24.2.0, SVG Export Plug-In . SVG Version: 6.00 Build 0)  -->
<svg version="1.2" baseProfile="tiny" xmlns="http://www.w3.org/2000/svg" xmlns:xlink="http://www.w3.org/1999/xlink" x="0px"
	 y="0px" viewBox="0 0 523.72 618.85" overflow="visible" xml:space="preserve">
<g id="BG">
</g>
<g id="Graphic">
	<g>
		<g>
			<g>
				<g>
					<path fill="#4986B4" d="M307.22,0H119.83c-4.72,0-8.55,3.84-8.55,8.55v61.92c0,4.72,3.84,8.55,8.55,8.55h11.44v10.19
						c0,1.68,1.38,3.06,3.07,3.06c0.9,0,1.75-0.4,2.33-1.1l10.12-12.15h160.44c4.72,0,8.55-3.84,8.55-8.55V8.55
						C315.78,3.84,311.94,0,307.22,0z"/>
				</g>
			</g>
			<g>
				<g>
					<g>
						<path fill="#EAB334" d="M239.43,30.2h-53.81c-0.81,0-1.47-0.66-1.47-1.47c0-0.81,0.66-1.47,1.47-1.47h53.81
							c0.81,0,1.47,0.66,1.47,1.47C240.9,29.55,240.24,30.2,239.43,30.2z"/>
					</g>
				</g>
			</g>
			<g>
				<g>
					<g>
						<path fill="#FFFFFF" d="M293.24,41.95H185.62c-0.81,0-1.47-0.66-1.47-1.47c0-0.81,0.66-1.47,1.47-1.47h107.63
							c0.81,0,1.47,0.66,1.47,1.47C294.71,41.29,294.05,41.95,293.24,41.95z"/>
					</g>
				</g>
			</g>
			<g>
				<g>
					<g>
						<path fill="#FFFFFF" d="M293.24,53.69H185.62c-0.81,0-1.47-0.66-1.47-1.47s0.66-1.47,1.47-1.47h107.63
							c0.81,0,1.47,0.66,1.47,1.47S294.05,53.69,293.24,53.69z"/>
					</g>
				</g>
			</g>
		</g>
		<g>
			<g>
				<g>
					<path fill="#223A49" d="M222.89,68.79h187.39c4.72,0,8.55,3.84,8.55,8.55v61.92c0,4.72-3.84,8.55-8.55,8.55h-11.44v10.19
						c0,1.68-1.38,3.06-3.07,3.06c-0.9,0-1.75-0.4-2.33-1.1l-10.12-12.15H222.89c-4.72,0-8.55-3.84-8.55-8.55V77.34
						C214.34,72.63,218.18,68.79,222.89,68.79z"/>
				</g>
			</g>
			<g>
				<g>
					<g>
						<path fill="#EAB334" d="M290.69,98.99h53.81c0.81,0,1.47-0.66,1.47-1.47c0-0.81-0.66-1.47-1.47-1.47h-53.81
							c-0.81,0-1.47,0.66-1.47,1.47C289.22,98.34,289.88,98.99,290.69,98.99z"/>
					</g>
				</g>
			</g>
			<g>
				<g>
					<g>
						<path fill="#FFFFFF" d="M236.87,110.74H344.5c0.81,0,1.47-0.66,1.47-1.47s-0.66-1.47-1.47-1.47H236.87
							c-0.81,0-1.47,0.66-1.47,1.47S236.06,110.74,236.87,110.74z"/>
					</g>
				</g>
			</g>
			<g>
				<g>
					<g>
						<path fill="#FFFFFF" d="M236.87,122.48H344.5c0.81,0,1.47-0.66,1.47-1.47c0-0.81-0.66-1.47-1.47-1.47H236.87
							c-0.81,0-1.47,0.66-1.47,1.47C235.4,121.82,236.06,122.48,236.87,122.48z"/>
					</g>
				</g>
			</g>
			<g>
				<g>
					<g>
						<rect x="365.88" y="93.72" fill="#FFFFFF" width="28.16" height="28.16"/>
					</g>
				</g>
			</g>
		</g>
		<g>
			<g>
				<path fill="#EAB334" d="M117.44,114.93c0-21.98-26.29-39.79-58.72-39.79C26.29,75.14,0,92.95,0,114.93s26.29,39.79,58.72,39.79
					c11.79,0,22.76-2.36,31.96-6.42l13.62,5.07c0.92,0.34,1.78-0.64,1.31-1.51l-4.95-9.09
					C111.03,135.59,117.44,125.77,117.44,114.93z"/>
			</g>
		</g>
		<g>
			<g>
				<g>
					<g>
						<path fill="#EAB334" d="M239.1,280.05c-0.83-12.97-3.79-15.33-7.22-18.07l-0.54-0.43c-3.65-2.96-8.28-3-8.54-3
							c-0.23-0.03-0.45,0.09-0.61,0.26c-0.16,0.16-0.25,0.39-0.24,0.62c0.09,3.05-1.14,20.56-1.15,20.8l0.18,27.49l-0.02-0.03v32.52
							c2.51,1.91,5.07,3.07,7.49,3.07c0.05,0,0.1,0,0.16,0c6.5-0.13,7.03-8.99,7.29-13.24c0.05-0.86,0.1-1.6,0.17-2.01
							C236.61,325.01,239.95,293.35,239.1,280.05z"/>
					</g>
				</g>
				<g>
					<g>
						<path fill="#223A49" d="M206.04,605.44c-0.18-0.19-0.45-0.29-0.7-0.26l-19.55,1.99c-0.41,0.04-0.73,0.37-0.76,0.78
							c-0.01,0.11-0.19,2.77,0,4.52c0.02,0.18,0.03,0.4,0.03,0.63c0.06,1.84,0.19,5.64,6.87,5.64c0.12,0,0.24,0,0.37,0
							c7.31-0.15,11.68-0.86,12.39-4.06c0.56-2.54,1.52-8.28,1.56-8.52C206.3,605.9,206.22,605.63,206.04,605.44z"/>
					</g>
				</g>
				<g>
					<g>
						<path fill="#223A49" d="M186.3,596.66c-1.42-0.84-8.58-5.05-10.02-5.33c-1.45-0.28-6.6,0.61-7.62,0.8
							c-0.24,0.04-0.44,0.18-0.57,0.39c-0.13,0.2-0.16,0.45-0.09,0.68l1.54,5.33c-0.2,0.98-0.7,3.9,0.16,5.27
							c0.12,0.19,0.23,0.41,0.35,0.64c0.71,1.37,1.79,3.43,5.26,3.43c0.75,0,1.57,0.04,2.4,0.08c0.89,0.04,1.78,0.08,2.64,0.08
							c2.36,0,4.46-0.3,5.45-1.75c0.08-0.12,0.13-0.26,0.14-0.4l0.76-8.4C186.74,597.14,186.58,596.82,186.3,596.66z"/>
					</g>
				</g>
				<g>
					<g>
						<g>
							<path fill="#EAB334" d="M190.86,542.46l0.02-0.38c0.46-10.64,1.53-35.57,0.26-44.99c-0.48-3.54-0.93-6.29-1.3-8.49
								c-0.61-3.68-0.98-5.89-0.81-8.01c0.06-0.7,0.2-1.49,0.37-2.4c0.68-3.63,1.7-9.13-0.36-20.68c-0.07-0.41-0.45-0.71-0.86-0.7
								c-0.18,0-18.43,0.48-29.51-1.68c-0.28-0.05-0.56,0.03-0.76,0.23c-0.2,0.2-0.29,0.48-0.24,0.76c0.04,0.2,3.8,20.06,4.21,24.77
								c0.42,4.78,4.27,27.86,6.23,37.41c1.96,9.51,8.7,39.71,8.79,40.11c0.05,0.14,1.24,3.39,5.75,3.39c4.14,0,8.58-2.55,8.76-2.66
								c0.32-0.19,0.48-0.56,0.4-0.92C191.82,558.14,190.45,552.1,190.86,542.46z"/>
						</g>
					</g>
					<g>
						<g>
							<path fill="#EAB334" d="M218.56,504c0.28-9.48,2.99-46.15,3.01-46.52c0.02-0.24-0.06-0.47-0.22-0.64
								c-0.16-0.17-0.39-0.27-0.62-0.27h-28.32c-0.46,0-0.84,0.37-0.85,0.83c-0.01,0.68-0.29,16.68,0,19.52
								c0.11,1.05,0.38,2.99,0.69,5.24c0.51,3.69,1.15,8.28,1.15,9.66c0,0.88-0.16,2.96-0.35,5.38c-0.28,3.66-0.64,8.22-0.64,11.24
								c0,4.96,0.98,52.04,0.99,52.55c0.08,1.14,0.07,4.46-0.87,6.01c-0.15,0.24-0.16,0.54-0.04,0.79c0.12,0.27,1.38,2.6,7.25,2.75
								c0.18,0,0.36,0.01,0.54,0.01c5.41,0,7.62-2.14,7.71-2.23c0.33-0.33,0.36-0.83,0.03-1.17c-0.01-0.01-1.03-1.36,0.19-6
								C209.53,556.16,218.27,513.91,218.56,504z"/>
						</g>
					</g>
				</g>
				<g>
					<g>
						<path fill="#223A49" d="M208.54,571.63c0.87-1.42,1.57-4.39-1.17-7.18c-0.13-0.14-0.31-0.22-0.5-0.25l-12.54-1.55
							c-0.25-0.03-0.49,0.05-0.68,0.22c-0.14,0.13-3.5,3.26-3.5,7.82c0,4.83-0.93,6.32-1.22,6.67c-0.45,0.54-0.53,1.73-0.65,5.26
							c-0.1,2.86-0.23,6.77-0.88,8.22c-0.12,0.26-0.1,0.56,0.05,0.8c0.15,0.24,0.41,0.39,0.69,0.4c0.09,0,8.62,0.29,11.94,0.7
							c3.22,0.4,6.06,1.62,6.09,1.63c0.11,0.05,0.22,0.07,0.34,0.07c0.17,0,0.34-0.05,0.48-0.15c0.24-0.17,0.38-0.44,0.37-0.74
							c-0.12-2.74-0.24-7.45-0.02-8.39c0.28-1.23,1.19-5.97,1.19-6.62l0-2.42c-0.05-0.5-0.1-1.44-0.01-1.87
							C208.64,573.6,208.58,572.26,208.54,571.63z"/>
					</g>
				</g>
				<g>
					<g>
						<path fill="#223A49" d="M208.49,566.23c-0.35-0.17-0.77-0.09-1.02,0.2c-0.26,0.29-0.28,0.72-0.06,1.04
							c0.93,1.37,0.13,2.48,0.04,2.6c-0.27,0.34-0.24,0.83,0.07,1.14c0.87,0.86,2.4,2.17,3.63,2.17c0.2,0,0.39-0.03,0.56-0.11
							c0.42-0.18,0.93-0.62,0.93-1.73C212.63,568.37,208.65,566.32,208.49,566.23z"/>
					</g>
				</g>
				<g>
					<g>
						<path fill="#EAB334" d="M207.35,593.52c-0.03-0.35-0.27-0.65-0.6-0.75c-0.24-0.07-6.02-1.81-9.89-2.02
							c-2.7-0.15-5.91-0.3-7.56-0.37c0.14-0.53,0.25-1.1,0.3-1.66c0.2-2.11,0.36-5.55,0.36-5.69c0.02-0.45-0.32-0.84-0.77-0.88
							l-16.21-1.56c-0.36-0.04-0.71,0.16-0.85,0.5l-3.25,7.21c-0.13,0.29-0.09,0.63,0.11,0.88c0.2,0.25,0.52,0.37,0.83,0.3
							c1.84-0.38,7.07-1.12,9.05-0.08l7.51,3.96c-0.31,0.8-0.65,1.74-0.98,2.73c-2.34-1.49-8.15-5.03-10.64-5.04
							c-0.02,0-0.03,0-0.05,0c-2.91,0-6.04,1.06-6.17,1.11c-0.2,0.07-0.36,0.21-0.46,0.39c-0.46,0.82-0.96,2.51,0,3.75
							c0.3,0.71,1.61,3.56,3.56,3.91c0.05,0.01,0.1,0.01,0.15,0.01h0.69c0.36,0.32,1.04,0.59,2.29,0.59c1.15,0,1.87-0.53,2.3-1.16
							c0.68,0.5,1.72,1,3.26,1.15c0.16,0.02,0.32,0.02,0.48,0.02c1.34,0,2.57-0.54,3.56-1.15c-0.28,1.19-0.46,2.3-0.42,3.15
							c0.11,2.56,0.33,7.9,5.57,8.44c1.77,0.18,2.99,0.09,3.74-0.29c0.53,0.56,1.34,1.14,2.43,1.14c1.25,0,2.25-0.64,2.8-1.1
							c0.46,0.18,1.16,0.34,2.08,0.25c0.85-0.08,1.27-0.5,1.47-0.84c0.06-0.1,0.11-0.2,0.14-0.3c0.29,0.01,0.63-0.05,1-0.19
							c0.98-0.37,1.38-0.97,1.5-1.48c0.6-0.49,1.59-1.44,1.59-2.41c0.01-0.09,0.09-0.38,0.17-0.64
							C206.91,603.81,207.88,600.53,207.35,593.52z"/>
					</g>
				</g>
				<g>
					<g>
						<path fill="#223A49" d="M206.64,600.39c-0.36-0.09-8.98-2.12-14.4-1.86c-6.69,0.31-7.99,1.69-8.17,2.5
							c-0.66,2.87,0.21,4.99,0.25,5.08c0.13,0.32,0.45,0.52,0.78,0.52c0.09,0,0.18-0.01,0.26-0.04l4.77-1.55
							c4.53-1.48,15.52,0.02,15.63,0.03c0.45,0.06,0.87-0.24,0.95-0.69l0.56-3.02C207.36,600.93,207.08,600.49,206.64,600.39z"/>
					</g>
				</g>
				<g>
					<g>
						<path fill="#223A49" d="M194.88,562.95c-0.42-0.51-1.56-2.08-1.76-3.28c-0.06-0.38-0.08-0.76-0.1-1.14
							c-0.07-1.35-0.15-3.03-2.11-4.35c-0.2-0.14-0.45-0.18-0.68-0.12l-12.72,3.23c-0.2,0.05-0.38,0.17-0.49,0.35
							c-0.08,0.12-1.98,2.95-1.98,5.86c0,1.75,0.36,2.82,0.69,3.44c-2.18,2.55-1.88,3.34-1.76,3.64c0.1,0.27,0.08,1.32-0.04,2.2
							l-1.84,8.48c-0.05,0.24,0,0.48,0.14,0.68c0.14,0.2,0.36,0.32,0.6,0.34l16.21,1.56c0.03,0,0.05,0,0.08,0
							c0.38,0,0.72-0.26,0.82-0.63l5.11-19.5C195.12,563.44,195.06,563.16,194.88,562.95z"/>
					</g>
				</g>
				<g>
					<g>
						<path fill="#223A49" d="M178.55,557.92l-0.54-2.41c-0.05-0.24-0.21-0.45-0.43-0.57c-0.22-0.12-0.48-0.13-0.71-0.03l-3.14,1.28
							c-0.09,0.04-0.17,0.09-0.24,0.15c-0.06,0.05-1.42,1.26-1.42,3.18c0,0.96,0.44,1.47,0.81,1.73c0.37,0.26,0.84,0.39,1.42,0.39
							c0.69,0,1.54-0.19,2.58-0.56c0.2-0.07,0.37-0.22,0.47-0.41l1.13-2.18C178.56,558.32,178.59,558.12,178.55,557.92z"/>
					</g>
				</g>
				<g>
					<g>
						<path fill="#223A49" d="M187.92,592.24c-0.26-0.17-6.52-4.27-9.64-4.84c-3.09-0.56-8.53,0.35-8.76,0.39
							c-0.31,0.05-0.57,0.28-0.67,0.58c-0.17,0.55-1.04,3.36-0.88,4.67c0.03,0.29,0.21,0.54,0.48,0.66
							c0.26,0.12,0.57,0.11,0.82-0.05c0.02-0.01,2.35-1.44,5.35-0.94c3.18,0.53,10.72,5.33,10.79,5.38c0.14,0.09,0.3,0.13,0.46,0.13
							c0.09,0,0.18-0.01,0.27-0.05c0.24-0.08,0.44-0.27,0.52-0.52l1.58-4.43C188.38,592.87,188.25,592.46,187.92,592.24z"/>
					</g>
				</g>
				<g>
					<g>
						<path fill="#EAB334" d="M200.06,248.49c-0.14-0.22-0.36-0.37-0.62-0.4l-20.09-2.4c-0.44-0.06-0.84,0.23-0.93,0.66l-3.58,16.47
							c-0.09,0.43,0.15,0.85,0.57,0.99l16.7,5.37c0.09,0.03,0.17,0.04,0.26,0.04c0.35,0,0.67-0.22,0.8-0.56l6.97-19.44
							C200.22,248.98,200.2,248.71,200.06,248.49z"/>
					</g>
				</g>
				<g>
					<g>
						<path fill="#EAB334" d="M164.54,260.65c-0.15-0.26-0.43-0.42-0.73-0.42h-0.01c-0.45,0-11.12,0.12-15.6,2.85
							c-4.66,2.84-7.17,7.31-7.94,23.86c-0.32,6.86-1.09,14.31-1.78,20.89c-0.96,9.2-1.78,17.15-1.23,21.47l0.24,1.94
							c0.04,0.35,0.3,0.64,0.65,0.72c0.06,0.01,0.13,0.02,0.19,0.02c0.28,0,0.55-0.14,0.71-0.38c8.05-12.32,19.81-23.65,19.92-23.76
							c0.19-0.18,0.29-0.45,0.26-0.71l-2.75-22.93c0.23-1.03,1.77-7.63,3.98-13.4c2.39-6.23,4.07-9.28,4.09-9.31
							C164.7,261.23,164.7,260.91,164.54,260.65z"/>
					</g>
				</g>
				<g>
					<g>
						<path fill="#4986B4" d="M232.98,403.42c-0.55-17.84-8.89-63.01-9.24-64.9c-0.08-1.67-1.75-37.35-0.98-45.47
							c0.8-8.44-1.55-24.54-1.65-25.22c-0.06-0.42-0.42-0.72-0.84-0.72c0,0,0,0,0,0c-0.3,0-29.34,0.17-34.44-1.29
							c-5.16-1.47-18.18-7.09-18.31-7.15c-0.03-0.01-0.07-0.03-0.1-0.04c-0.13-0.04-3.22-0.87-5.58,4.06
							c-1.99,4.16-7.05,18.87-7.05,21.47c0,0.83,0.37,3.77,1.03,8.88c1.03,7.99,2.43,18.94,2.55,24.31c0.13,6-3.25,20.82-5.97,32.72
							c-1.05,4.6-2.04,8.95-2.68,12.13c-2.35,11.75-4.91,29.07-3.78,44.89c1.14,15.96,0.89,41.26-0.13,43.19
							c-0.57,0.87-0.66,1.84-0.25,2.74c0.63,1.39,2.36,2.42,4.51,2.71l0.34,0.05c10.3,1.38,28.83,3.59,37.16,2.78
							c6.69-0.64,15.99-0.25,22.14,0.01c2.23,0.1,3.97,0.17,5.03,0.17c0.28,0,0.51,0,0.69-0.02c0.38-0.02,0.8-0.04,1.24-0.05
							c2.79-0.08,6.62-0.19,8.31-3.18c1.89-3.37,3.37-11,4.06-16.52c0.19-1.49,0.57-3.35,1.02-5.5
							C231.37,426.99,233.4,417.18,232.98,403.42z"/>
					</g>
				</g>
				<g>
					<g>
						<path fill="#223A49" d="M224.64,296.12c-0.03-0.08-2.72-7.89-2.03-20.21c0.05-0.98,0.18-2.03,0.33-3.24
							c0.67-5.62,1.8-15.02-1.7-39.18c-4.17-28.77-12.19-36.08-20.73-41.58c-7.2-4.63-11.83-2.4-13.09-1.6
							c-7.92-1.27-15.81,8.4-18.02,18.09c-0.37,1.65-0.56,3.33-0.55,5c-0.43,1.31-3.61,10.99-4.82,16.34
							c-0.17,0.74-0.36,1.56-0.58,2.44c-1.49,6.18-3.53,14.64-1.21,20.09c0.53,1.24,1.32,2.56,2.16,3.96
							c1.97,3.3,4.21,7.04,3.22,10.33c-0.65,2.15-2.59,3.97-5.93,5.56c-5.01,2.39-8.8,0.14-8.96,0.05c-0.36-0.22-0.83-0.15-1.1,0.17
							c-0.27,0.32-0.26,0.8,0.02,1.11c0.07,0.08,7.49,8.22,17.3,2.72c6.81-3.82,10.54-13.18,11.1-27.86
							c3.36,2.77,8.77,6.17,16.83,2.78c-6.57,12-4.83,20.27-1.88,29.68c3.89,12.4,27.7,16.3,28.71,16.46
							c0.04,0.01,0.09,0.01,0.13,0.01c0.25,0,0.49-0.11,0.65-0.31C224.68,296.72,224.74,296.41,224.64,296.12z"/>
					</g>
				</g>
				<g>
					<g>
						<path fill="#FBFCE9" d="M200.33,301.87h-18.37c-1.01,0-1.84-0.83-1.84-1.84v-34.39c0-1.01,0.83-1.84,1.84-1.84h18.37
							c1.01,0,1.84,0.83,1.84,1.84v34.39C202.17,301.04,201.34,301.87,200.33,301.87z"/>
					</g>
				</g>
				<g>
					<g>
						<path fill="#EAB334" d="M197.37,206.32c-2.5-3.57-4.95-5.29-7.24-5.14c-1.94,0.14-3.17,1.57-3.69,2.34
							c-1.81-0.01-7.49,0.45-9.68,7.19c-1.2,3.24-2.85,7.02-3.42,7.49c-0.38,0.27-0.65,0.82-0.83,1.56
							c-0.53-0.84-1.18-1.61-1.92-1.88c-0.49-0.18-0.99-0.1-1.36,0.21c-0.66,0.55-1.26,1.76,0.03,9.04
							c0.72,4.09,2.81,5.84,3.72,6.42c0.01,0.04,0.01,0.07,0.01,0.08c0.64,4.14,3.67,17.73,16.02,19.06c0.63,0.07,1.24,0.1,1.82,0.1
							c4.32,0,7.32-1.73,9.16-3.28c2.91-2.47,4.38-5.74,4.46-7.17C204.57,240,203.83,215.57,197.37,206.32z"/>
					</g>
				</g>
				<g>
					<g>
						<path fill="#FFFFFF" d="M171.42,230.13c-1.15,0-1.98,1.37-1.98,3.26c0,1.89,0.83,3.26,1.98,3.26c1.15,0,1.98-1.37,1.98-3.26
							C173.41,231.5,172.57,230.13,171.42,230.13z"/>
					</g>
				</g>
				<g>
					<g>
						<g>
							<path fill="#FFFFFF" d="M195.53,294.8c-0.05,0-0.09,0-0.14-0.01c-0.46-0.08-0.78-0.51-0.7-0.97l0.49-3.03
								c0.08-0.46,0.52-0.78,0.97-0.7c0.46,0.08,0.78,0.51,0.7,0.97l-0.49,3.03C196.29,294.51,195.93,294.8,195.53,294.8z"/>
						</g>
					</g>
				</g>
				<g>
					<g>
						<g>
							<path fill="#EAB334" d="M213.18,297.4c-0.36-0.9-2.89-7.34-3.39-10.64c-0.75-4.87-10.37-7.48-11.46-7.76
								c-3.37-0.87-8.33-0.81-10.51-0.18c-0.7,0.2-1.22,0.63-1.5,1.24c-0.22,0.47-0.26,0.99-0.23,1.47
								c-1.93-0.57-4.11-0.85-5.33-0.13c-0.52,0.3-0.84,0.77-0.92,1.33c-0.17,1.29,0.76,2.48,2.72,3.5
								c-0.62-0.12-1.27-0.14-1.88,0.18c-0.63,0.32-1.09,0.94-1.37,1.83c-0.37,1.15-0.11,1.98,0.17,2.47
								c0.31,0.55,0.77,0.91,1.18,1.15c0.03,0.84,0.87,1.6,2.18,2.73c0.27,0.23,0.53,0.46,0.76,0.67c1.35,1.25,9.83,5.37,10.72,5.72
								c0.45,0.18,1.42,1.16,2.69,3.32c0.92,1.56,3.47,2.31,4.55,2.57l6.32,14.84c2.88,7.21,11.57,16.76,16.8,20.75l-1.87-27.93
								L213.18,297.4z"/>
						</g>
					</g>
				</g>
				<g>
					<g>
						<g>
							<path fill="#EAB334" d="M198.71,297.7c-0.09,0-0.18-0.01-0.27-0.05l-16.65-5.68c-0.44-0.15-0.68-0.63-0.53-1.08
								c0.15-0.44,0.63-0.68,1.08-0.53l16.65,5.68c0.44,0.15,0.68,0.63,0.53,1.08C199.39,297.48,199.06,297.7,198.71,297.7z"/>
						</g>
					</g>
				</g>
				<g>
					<g>
						<path fill="#FFFFFF" d="M196.42,295.18c0,0.68-0.4,1.22-0.9,1.22c-0.49,0-0.9-0.55-0.9-1.22c0-0.68,0.4-1.22,0.9-1.22
							C196.02,293.96,196.42,294.5,196.42,295.18z"/>
					</g>
				</g>
				<g>
					<g>
						<path fill="#EAB334" d="M180.97,285.26v-4.81c0-0.23-0.09-0.45-0.26-0.61c-0.17-0.16-0.39-0.25-0.62-0.24l-5.57,0.24
							c0.28-1.49,0.73-4.06,0.73-4.83c0-0.94-0.31-2.31-1.2-3.06c-0.51-0.44-1.15-0.61-1.83-0.5c-1.88,0.3-3.33,4.45-3.84,6.15
							c-0.11,0.28-0.81,2.07-1.23,3.79c-0.48-1.16-0.96-2.62-1.02-3.47c-0.09-1.28-0.73-2.48-1.72-3.22
							c-0.35-0.26-1.03-0.67-1.71-0.52c-1.8,0.4-2.37,2.39-1.79,6.25c0.65,4.31,2.39,7.98,2.77,8.74c0.02,0.28-0.02,0.68-0.13,0.8
							c-0.04,0.04-0.17,0.05-0.32,0.02c-0.79-0.13-2.97-1.3-4.55-2.15c-0.84-0.45-1.65-0.89-2.29-1.2c-0.9-0.44-1.35-0.58-1.7-0.55
							c-0.77,0.06-1.45,0.56-1.74,1.25c-0.28,0.69-0.33,1.86,1.09,3.53c0.48,0.56,1.15,1.18,2.02,1.85c1.9,1.46,4.18,2.76,4.91,3.17
							l1.71,3.35l-4.94,7.42c-0.98,0.95-12.27,12-20.1,23.99c-0.11,0.17-0.16,0.37-0.13,0.57c0.78,6.3,1.85,14.92,10.58,15.01
							c0,0,0.01,0,0.02,0c3.9,0,14.48-12.36,16.49-16.9c1.33-2.99,3.83-10.67,7.43-22.82l0.25-0.84c0.59-1.96,1.64-3.67,2.26-4.04
							c0.64-0.38,3.95-1.66,5.89-2.38c0.33-0.12,0.55-0.44,0.55-0.8V290c0-0.22-0.09-0.44-0.25-0.6l-2.48-2.48l2.19-0.87
							C180.76,285.92,180.97,285.61,180.97,285.26z"/>
					</g>
				</g>
				<g>
					<g>
						<g>
							<path fill="#EAB334" d="M199.34,287.37c-0.15,0-0.3-0.04-0.44-0.12l-4.16-2.51l-7.58-1.06c-0.46-0.06-0.79-0.49-0.72-0.96
								c0.06-0.46,0.49-0.79,0.96-0.72l7.75,1.08c0.11,0.02,0.22,0.05,0.32,0.11l4.31,2.6c0.4,0.24,0.53,0.76,0.29,1.16
								C199.91,287.22,199.63,287.37,199.34,287.37z"/>
						</g>
					</g>
				</g>
			</g>
			<g>
				<g>
					<g>
						<path fill="#4986B4" d="M370.49,379.64c-0.28-2.24-1.82-12.91-1.84-12.99l-0.85-8.03c-0.05-0.43-0.41-0.76-0.84-0.76h-72.74
							c-0.35,0-0.67,0.22-0.79,0.55c-0.13,0.33-1.23,3.27-1.23,4.66v4.03c-0.31,1.77-5.69,33.51-2.25,51.54
							c1.22,6.4,3.1,13.45,5.09,20.92c3.68,13.83,7.86,29.5,8.32,43.68c0.43,13.23-0.3,18.64-0.83,22.59
							c-0.34,2.55-0.61,4.57-0.45,7.67c0.42,7.71,3.37,34.68,3.4,34.96c0.02,0.16,0.08,0.31,0.18,0.44c0.1,0.13,2.6,3.18,7.66,2.72
							c4.85-0.44,13.63-7.1,14.01-7.38c0.2-0.16,0.33-0.39,0.33-0.65c0-0.08,0.08-2.81,0.2-6.61l0.19,8.86
							c0.01,0.31,0.18,0.6,0.46,0.74c0.34,0.17,8.36,4.24,11.81,5.06c1.21,0.29,2.54,0.38,3.77,0.38c2.36,0,4.37-0.35,4.49-0.37
							c0.35-0.06,0.63-0.34,0.69-0.7c0.24-1.48,5.95-36.38,5.66-42.2c-0.06-1.16-0.16-2.58-0.28-4.17
							c-0.46-6.15-1.16-15.43,0.28-22.33c0.63-3.03,2.75-11.3,5.2-20.88c4.8-18.75,10.78-42.07,11.34-48.04
							C372.32,404.37,370.79,382.09,370.49,379.64z"/>
					</g>
				</g>
				<g>
					<g>
						<g>
							<path fill="#C6DBE8" d="M331.98,376.08c-22.4,0-36.13-8.67-36.71-9.05c-0.39-0.25-0.51-0.78-0.25-1.17
								c0.25-0.39,0.78-0.51,1.17-0.26c0.14,0.09,14.34,9.06,36.84,8.77c22.57-0.28,34.52-6.52,34.64-6.58
								c0.41-0.22,0.93-0.06,1.15,0.35c0.22,0.41,0.06,0.93-0.35,1.15c-0.5,0.27-12.44,6.5-35.42,6.78
								C332.69,376.08,332.34,376.08,331.98,376.08z"/>
						</g>
					</g>
				</g>
				<g>
					<g>
						<g>
							<path fill="#C6DBE8" d="M332.62,404.48c-0.06,0-0.12-0.01-0.18-0.02c-0.46-0.1-0.75-0.55-0.64-1.01
								c1.56-7.03-0.48-25.12-0.71-27.1c-0.37-0.64-1.76-3.06-2.64-5.26c-1.21-3.02,1.59-5.33,1.7-5.43c0.36-0.3,0.9-0.24,1.19,0.12
								c0.29,0.36,0.24,0.9-0.12,1.19c-0.09,0.08-1.94,1.64-1.2,3.48c0.95,2.38,2.6,5.15,2.62,5.18c0.06,0.1,0.1,0.21,0.11,0.33
								c0.1,0.82,2.41,20.16,0.7,27.85C333.36,404.21,333.01,404.48,332.62,404.48z"/>
						</g>
					</g>
				</g>
				<g>
					<g>
						<g>
							<path fill="#C6DBE8" d="M297.67,382.07c-0.77,0-1.5-0.08-2.18-0.28c-3.34-0.98-4.61-1.83-4.66-1.87
								c-0.39-0.27-0.48-0.79-0.22-1.18c0.27-0.39,0.79-0.48,1.18-0.22c0.01,0,1.15,0.75,4.18,1.64c2.64,0.77,6.83-0.7,8.85-1.41
								c0.26-0.09,0.49-0.17,0.68-0.23c0.65-0.26,1.88-3.5,2.57-6.79c0.1-0.46,0.55-0.75,1-0.66c0.46,0.1,0.75,0.54,0.66,1
								c-0.46,2.21-1.75,7.4-3.69,8.05l-0.65,0.23C303.66,380.96,300.48,382.07,297.67,382.07z"/>
						</g>
					</g>
				</g>
				<g>
					<g>
						<g>
							<path fill="#C6DBE8" d="M360.37,383.66c-2.33,0-5.11-0.18-6.32-0.94c-1.74-1.09-3.09-6.41-3.46-8.02
								c-0.1-0.46,0.18-0.91,0.64-1.02c0.46-0.1,0.91,0.18,1.02,0.64c0.68,2.96,1.91,6.47,2.71,6.96c1.11,0.7,5.22,0.79,8.57,0.58
								c2.12-0.13,5.96-1.43,6-1.44c0.44-0.15,0.92,0.09,1.08,0.53c0.15,0.44-0.09,0.92-0.53,1.08c-0.17,0.06-4.09,1.38-6.44,1.53
								C362.97,383.6,361.74,383.66,360.37,383.66z"/>
						</g>
					</g>
				</g>
				<g>
					<g>
						<g>
							<path fill="#C6DBE8" d="M333.39,373.67c-1.29,0-2.34-1.24-2.34-2.76s1.05-2.76,2.34-2.76c1.29,0,2.34,1.24,2.34,2.76
								S334.68,373.67,333.39,373.67z M333.39,369.85c-0.3,0-0.64,0.45-0.64,1.06c0,0.61,0.34,1.06,0.64,1.06
								c0.3,0,0.64-0.45,0.64-1.06C334.03,370.31,333.69,369.85,333.39,369.85z"/>
						</g>
					</g>
				</g>
				<g>
					<g>
						<g>
							<path fill="#C6DBE8" d="M312.4,377.13c-0.05,0-0.11-0.01-0.16-0.02l-2.18-0.63c-0.26-0.08-0.43-0.33-0.41-0.6
								c0-0.02,0.2-2.08,0.02-3.52c-0.2-1.6,1.27-6.25,1.44-6.77c0.08-0.23,0.29-0.39,0.54-0.39h1.74c0.16,0,0.31,0.07,0.42,0.19
								c0.11,0.12,0.16,0.28,0.14,0.44c-0.02,0.17-0.44,4.2-1.03,5.57c-0.37,0.85-0.17,3.58,0.04,5.1c0.03,0.19-0.05,0.38-0.19,0.51
								C312.67,377.08,312.54,377.13,312.4,377.13z M310.82,375.51l0.92,0.27c-0.14-1.33-0.32-3.78,0.14-4.85
								c0.37-0.86,0.71-3.23,0.88-4.61h-0.69c-0.49,1.59-1.4,4.85-1.27,5.9C310.94,373.36,310.87,374.79,310.82,375.51z"/>
						</g>
					</g>
				</g>
				<g>
					<g>
						<g>
							<path fill="#C6DBE8" d="M349.43,378.47h-2.41c-0.22,0-0.43-0.13-0.52-0.34c-0.43-0.98-0.08-2.9,0.32-5.12
								c0.07-0.41,0.15-0.81,0.21-1.21c0.36-2.15-0.55-5.29-0.56-5.33c-0.09-0.3,0.08-0.61,0.38-0.7l1.85-0.56
								c0.3-0.09,0.61,0.08,0.7,0.37c1,3.17,0.8,5.95,0.58,7.32c-0.27,1.75,0,4.92,0,4.95c0.01,0.16-0.04,0.31-0.15,0.43
								C349.74,378.41,349.59,378.47,349.43,378.47z M347.46,377.34h1.37c-0.07-1.05-0.17-3.2,0.05-4.61
								c0.18-1.2,0.36-3.54-0.39-6.27l-0.78,0.24c0.26,1.06,0.76,3.44,0.44,5.29c-0.07,0.4-0.14,0.81-0.22,1.22
								C347.67,374.68,347.35,376.46,347.46,377.34z"/>
						</g>
					</g>
				</g>
				<g>
					<g>
						<path fill="#223A49" d="M387.85,332.03l-0.96-3.49l0.59-0.37c0.26-0.16,0.41-0.45,0.4-0.75c-0.03-0.72-0.72-17.63-1.42-23.11
							c-0.55-4.26-5.7-31.04-10.29-33.83c-1.51-0.92-2.38-1.5-2.96-1.88c-0.96-0.64-1.25-0.83-2.33-1.15
							c-1.51-0.44-6.43-0.95-7.25-1.04c-1.28-0.47-8.79-3.25-10.04-3.53c-1.29-0.29-37.45-1.13-44.68-1.29
							c-0.08,0-0.15,0.01-0.22,0.02l-12.26,2.97c-2.47,0.11-13.07,2.92-15.86,8.65c-2.93,6.01-13.3,44.19-14.06,48.12
							c-0.81,4.2-1.36,5.63-1.37,5.64c-0.09,0.22-0.08,0.46,0.02,0.68c0.1,0.21,0.28,0.37,0.51,0.45l3.21,1.03l-0.81,3.48
							c-0.09,0.38,0.1,0.78,0.45,0.95l22.36,11.18c-0.31,2.52-1.08,11,2.03,13.98c3.29,3.14,22.05,9.87,28.74,9.86
							c0.21,0,0.42-0.01,0.61-0.02c2.01-0.15,3.88-0.52,5.69-0.89c3.31-0.66,6.44-1.29,9.86-0.41c5.72,1.47,8.84,0.43,10.45-0.69
							c1-0.7,5.34-1.86,10.55-2.83c3.94-0.73,10.59-4.72,12.32-6.45c0.34-0.34,0.76-0.68,1.17-1.01c1.4-1.13,3.14-2.54,2.11-4.75
							c-0.95-2.03-1.92-5.19-1.92-5.19l-1.66-7.51c3.38-0.74,12.72-2.85,14.19-3.92c1.56-1.14,2.56-1.98,2.6-2.02
							C387.83,332.69,387.93,332.35,387.85,332.03z"/>
					</g>
				</g>
				<g>
					<g>
						<g>
							<path fill="#C6DBE8" d="M327.89,487.58c-0.01,0-0.02,0-0.03,0c-0.47-0.02-0.83-0.41-0.82-0.88l2.4-65.86
								c0.02-0.47,0.43-0.84,0.88-0.82c0.47,0.02,0.83,0.41,0.82,0.88l-2.4,65.86C328.72,487.22,328.35,487.58,327.89,487.58z"/>
						</g>
					</g>
				</g>
				<g>
					<g>
						<path fill="#EAB334" d="M344.09,242.93h-26.46c-0.47,0-0.85,0.38-0.85,0.85v23.92c0,0.09,0.01,0.18,0.04,0.27
							c0.13,0.37,12.56,37.53,13.11,42.05c0.05,0.39,0.36,0.7,0.75,0.74c0.03,0,0.06,0.01,0.09,0.01c0.36,0,0.68-0.23,0.8-0.57
							c0.54-1.56,13.25-38.22,13.36-46.27v-20.15C344.94,243.31,344.56,242.93,344.09,242.93z"/>
					</g>
				</g>
				<g>
					<g>
						<path fill="#FBFCE9" d="M331.11,608.09c0-1.25,0-17.74-3.22-25.98c-0.03-0.06-0.06-0.13-0.1-0.18
							c-0.34-0.48-3.45-4.74-6.63-4.74c-2.99,0-8.47,3.55-9.09,3.96c-0.13,0.09-0.24,0.21-0.31,0.36
							c-0.15,0.32-3.61,7.98-3.75,12.34c-0.04,1.27-0.33,2.58-0.6,3.85c-0.62,2.88-1.26,5.85,0.61,8.88c0.1,1.4,1.14,7.43,11.9,8.78
							c0.95,0.12,1.85,0.18,2.69,0.18c2.99,0,5.24-0.75,6.72-2.25C331.34,611.23,331.16,608.57,331.11,608.09z"/>
					</g>
				</g>
				<g>
					<g>
						<path fill="#4986B4" d="M362.16,258l0.12-1.43c0.03-0.37-0.19-0.72-0.53-0.86c-0.35-0.14-0.74-0.03-0.98,0.26
							c-0.34,0.42-0.74,0.86-1.15,1.24c-0.14-0.14-0.28-0.31-0.41-0.51c3.29-6.22-0.73-19.46-1.99-23.24
							c-0.96-11.7-3.92-28.32-12.78-35.01c-0.04-0.03-0.08-0.05-0.12-0.07c-0.4-0.21-9.77-5.06-14.65-4.33
							c-1.97,0.3-19.29,3.45-22.33,22.04c-0.46,2.8-0.93,5.1-1.39,7.01c-1.32,1.79-4.69,6.91-3.92,11.4
							c-0.18,0.78-0.27,1.62-0.21,2.69c0.21,3.75,0.86,6.41,1.22,7.65c-0.6,1.67-2,6.36-1.07,11.14c-3.98,4.19-7.24,5.85-9.95,5.07
							c-0.32-0.09-0.67,0.01-0.89,0.27c-0.21,0.26-0.26,0.62-0.11,0.92c0.09,0.18,2.29,4.42,9.08,4.57c4.18,0.1,6.82-0.71,8.21-1.33
							c0.16,0.65,0.48,1.43,1.14,2.1c0.99,1.01,2.44,1.52,4.33,1.52c0.27,0,0.54-0.01,0.82-0.03c6.06-0.43,9.1-3.65,9.66-5.71
							c0.17-0.61,1.45-1.63,2.3-2.31c1.21-0.96,1.84-1.49,1.95-2.16c0.06-0.36-0.07-0.71-0.34-0.92c-0.48-0.38-1.01-0.16-1.67,0.12
							c-1.67,0.71-3.59,1.33-5.32-0.25c-1.18-1.08-1.16-2.35-1.02-4.7c0.14-2.3,0.31-5.09-1.17-8.53l26.1-0.02
							c-2.11,3.17-6.75,10.77-5.65,14.93c1.54,5.82,7.03,6.39,12.73,6.14c7.73-0.34,9.7-2.65,9.99-4.53
							C362.39,259.54,362.24,258.4,362.16,258z M357.43,257.29c-0.15-0.73-0.24-1.72-0.26-2.84c0.21,0.82,0.46,1.57,0.76,2.21
							C357.78,256.88,357.61,257.1,357.43,257.29z M358.75,257.92c-0.26,0.18-0.5,0.3-0.69,0.35c0.18-0.18,0.35-0.37,0.51-0.57
							C358.62,257.77,358.68,257.85,358.75,257.92z M358.59,255.37c-0.64-1.87-1-4.68-1.16-7.56c0.06-0.67,0.12-1.28,0.19-1.81
							c0.01-0.1,0.1-3.04-0.09-7.46C358.89,243.69,360.27,251.08,358.59,255.37z M303.24,231.23c0.32-1.51,0.95-2.99,1.62-4.27
							C304.26,228.82,303.71,230.15,303.24,231.23z M303.46,247.37c0.18,2.14,0.18,5.09-0.59,7.1
							C302.59,251.8,303,249.22,303.46,247.37z"/>
					</g>
				</g>
				<g>
					<g>
						<g>
							<g>
								<g>
									<path fill="#4986B4" d="M366.14,309.04c-0.05,0-0.11-0.01-0.16-0.02c-0.3-0.09-0.47-0.4-0.38-0.7
										c1.95-6.66,1.09-32.07,1.08-32.32c-0.01-0.31,0.23-0.57,0.54-0.58c0.32-0.02,0.57,0.23,0.58,0.54
										c0.04,1.05,0.88,25.85-1.13,32.68C366.61,308.88,366.38,309.04,366.14,309.04z"/>
								</g>
							</g>
						</g>
					</g>
				</g>
				<g>
					<g>
						<g>
							<g>
								<g>
									<path fill="#4986B4" d="M290.36,297.63c-0.18,0-0.36-0.09-0.47-0.24c-4.2-6.09-7.44-20.67-7.58-21.29
										c-0.07-0.3,0.13-0.61,0.43-0.67c0.3-0.07,0.61,0.13,0.67,0.43c0.03,0.15,3.33,14.98,7.4,20.89
										c0.18,0.26,0.11,0.61-0.14,0.79C290.58,297.6,290.47,297.63,290.36,297.63z"/>
								</g>
							</g>
						</g>
					</g>
				</g>
				<g>
					<g>
						<g>
							<g>
								<g>
									<path fill="#4986B4" d="M289.64,321.52c-0.14,0-0.29-0.05-0.4-0.16c-8.42-8.27-8.36-34.35-8.36-35.46
										c0-0.31,0.25-0.56,0.57-0.56h0c0.31,0,0.56,0.26,0.56,0.57c0,0.27-0.07,26.71,8.02,34.64c0.22,0.22,0.23,0.58,0.01,0.8
										C289.93,321.46,289.79,321.52,289.64,321.52z"/>
								</g>
							</g>
						</g>
					</g>
				</g>
				<g>
					<g>
						<g>
							<g>
								<g>
									<path fill="#4986B4" d="M278.06,331.13c-0.04,0-0.09-0.01-0.13-0.02l-8.2-1.98c-0.3-0.07-0.49-0.38-0.42-0.68
										c0.07-0.3,0.38-0.49,0.68-0.42l8.2,1.98c0.3,0.07,0.49,0.38,0.42,0.68C278.55,330.95,278.32,331.13,278.06,331.13z"/>
								</g>
							</g>
						</g>
					</g>
				</g>
				<g>
					<g>
						<path fill="#FBFCE9" d="M348.87,593.4c-1.35-2.03-5.26-11.22-5.3-11.31c-0.13-0.31-0.44-0.52-0.78-0.52H327.1
							c-0.23,0-0.45,0.09-0.61,0.26c-0.16,0.17-0.25,0.39-0.24,0.62c0.03,0.78,0.74,19.15,3.21,25.98
							c2.34,6.49,10.02,7.12,12.93,7.12c0.5,0,0.86-0.02,1.02-0.03c0.78-0.05,7.66-0.65,9.38-6.14
							C354.38,604.3,350.1,595.25,348.87,593.4z"/>
					</g>
				</g>
				<g>
					<g>
						<path fill="#EAB334" d="M343.39,569.55c0.64-2.08,1.6-5.21,1.83-5.64c0.14-0.24,0.16-0.53,0.04-0.79
							c-0.12-0.25-0.35-0.43-0.62-0.48l-15.8-2.78c-0.27-0.05-0.55,0.04-0.75,0.23c-0.2,0.19-0.28,0.47-0.24,0.74
							c0.01,0.06,1.08,6.37,0.67,10.03c-0.22,1.95-0.81,3.68-1.34,5.21c-0.48,1.39-0.9,2.6-0.9,3.65c-0.01,1.95-0.03,2.66-0.03,2.67
							c-0.01,0.23,0.08,0.45,0.24,0.61c0.16,0.16,0.38,0.26,0.61,0.26h15.69c0.26,0,0.51-0.12,0.67-0.33
							c0.16-0.21,0.22-0.48,0.15-0.73c-0.92-3.62-1.73-8.02-1.44-8.83C342.41,572.75,342.86,571.27,343.39,569.55z"/>
					</g>
				</g>
				<g>
					<g>
						<path fill="#EAB334" d="M327.27,574.14c-0.62-1.29-1.64-6.18-1.04-15.42c0.02-0.26-0.08-0.51-0.27-0.68
							c-0.19-0.17-0.44-0.25-0.7-0.21l-14.96,2.23c-0.25,0.04-0.47,0.18-0.6,0.4c-0.13,0.21-0.16,0.47-0.08,0.71
							c0.03,0.08,2.78,8.29,2.78,11.64c0,1.63-0.49,3.08-0.93,4.35c-0.48,1.41-0.9,2.64-0.39,3.66l1.41,2.83
							c0.11,0.22,0.32,0.39,0.56,0.44c0.07,0.02,0.13,0.02,0.2,0.02c0.18,0,0.35-0.06,0.5-0.16c0.03-0.02,3.46-2.49,6.9-2.1
							c3.65,0.4,6.12,1.35,6.15,1.36c0.26,0.1,0.54,0.07,0.77-0.08c0.23-0.15,0.37-0.4,0.38-0.68
							C327.97,581.79,328.16,575.97,327.27,574.14z"/>
					</g>
				</g>
				<g>
					<g>
						<path fill="#EAB334" d="M348.41,221.64c-0.56-1.98-2.61-7.84-2.7-8.1c-0.86-2.5-3.85-3.04-8.42-1.51
							c-2.02,0.67-17.47,7.95-20.36,12.2c-2.94,4.33-1.56,17.23-0.04,19.97c1.43,2.58,11.53,13.16,16.71,13.16
							c4.33,0,8.89-5.19,11.09-7.68c0.36-0.4,0.63-0.72,0.82-0.91c1.49-1.49,4.35-13.13,4.35-15.16
							C349.86,231.55,349,223.71,348.41,221.64z"/>
					</g>
				</g>
				<g>
					<g>
						<path fill="#C6DBE8" d="M327.21,542.8c-0.27-0.14-0.6-0.13-0.86,0.04c-0.07,0.05-7.48,4.91-9.59,5.94
							c-1.47,0.72-5.88,0.49-8.57-0.45h0c-0.64-0.23-1.36-0.13-1.92,0.26c-0.57,0.39-0.9,1.02-0.91,1.71
							c-0.02,0.99,0.02,1.94,0.13,2.82c0.01,0.08,1.05,8.27,4.02,8.52c0.45,0.04,1.16,0.15,2.02,0.27c1.96,0.29,4.49,0.67,6.49,0.67
							c0.58,0,1.11-0.03,1.58-0.11c2.87-0.45,7.27-3.84,7.45-3.98c0.15-0.12,0.26-0.28,0.3-0.46
							C328.16,554.9,330.52,544.53,327.21,542.8z"/>
					</g>
				</g>
				<g>
					<g>
						<path fill="#C6DBE8" d="M350.52,550.88c-0.72-0.86-1.92-0.92-2.05-0.92c-0.01,0-0.02,0-0.04,0c-9.47,0.17-13.98-2.7-16.4-4.24
							c-0.57-0.36-1.02-0.65-1.43-0.82c-1.08-0.48-1.83-0.29-2.26-0.04c-0.92,0.51-1.09,1.57-1.1,1.64
							c-0.19,0.94-1.83,9.25-1.54,11.44c0.35,2.62,3.55,4.76,9.53,6.36c2.01,0.54,3.47,0.72,4.62,0.72c1.25,0,2.12-0.22,2.88-0.41
							c0.61-0.15,1.13-0.28,1.77-0.28c2.98,0,3.74-2.23,3.77-2.33c0.1-0.3,2.43-7.39,2.72-9.23
							C351.13,551.84,350.81,551.23,350.52,550.88z"/>
					</g>
				</g>
				<g>
					<g>
						<g>
							<g>
								<g>
									<path fill="#4986B4" d="M297.7,322.79c-0.25,0-0.47-0.16-0.54-0.41c-0.01-0.05-1.28-4.57-2.26-8.49
										c-0.99-3.96-1.68-31.61-1.71-32.78c-0.01-0.31,0.24-0.57,0.55-0.58c0.33,0.03,0.57,0.24,0.58,0.55
										c0.01,0.29,0.72,28.69,1.68,32.53c0.98,3.89,2.24,8.41,2.26,8.45c0.08,0.3-0.09,0.61-0.39,0.7
										C297.81,322.78,297.75,322.79,297.7,322.79z"/>
								</g>
							</g>
						</g>
					</g>
				</g>
				<g>
					<g>
						<g>
							<g>
								<g>
									<path fill="#4986B4" d="M385.9,328.72L385.9,328.72l-5.38-0.07c-0.31,0-0.56-0.26-0.56-0.57c0-0.31,0.23-0.58,0.57-0.56
										l5.37,0.07c0.31,0,0.56,0.26,0.56,0.57C386.46,328.48,386.21,328.72,385.9,328.72z"/>
								</g>
							</g>
						</g>
					</g>
				</g>
				<g>
					<g>
						<g>
							<path fill="#848C84" d="M315.66,596.93c-4.03,0-5.71-6.78-5.78-7.07c-0.07-0.3,0.11-0.61,0.42-0.68
								c0.3-0.07,0.61,0.11,0.68,0.42c0.01,0.06,1.58,6.4,4.83,6.2c3.71-0.22,10.57-0.97,10.64-0.98c0.32-0.04,0.59,0.19,0.62,0.5
								c0.03,0.31-0.19,0.59-0.5,0.62c-0.07,0.01-6.95,0.76-10.69,0.98C315.8,596.92,315.73,596.93,315.66,596.93z"/>
						</g>
					</g>
				</g>
				<g>
					<g>
						<g>
							<path fill="#848C84" d="M326.4,602.26c-0.97,0-1.63-0.58-2.22-1.09c-0.59-0.52-1.15-1.01-2.08-1.09
								c-0.92-0.08-1.59,0.42-2.34,1c-0.72,0.55-1.54,1.17-2.63,1.17c-2.06,0-6.94-4.01-7.5-4.46c-0.24-0.2-0.27-0.56-0.07-0.8
								c0.2-0.24,0.56-0.27,0.8-0.07c1.96,1.63,5.53,4.2,6.77,4.2c0.71,0,1.28-0.44,1.94-0.94c0.83-0.63,1.76-1.35,3.13-1.23
								c1.29,0.11,2.08,0.81,2.72,1.36c0.61,0.53,0.98,0.82,1.55,0.8c0.71-0.04,1.42-0.39,1.89-0.92c0.34-0.39,0.51-0.82,0.49-1.2
								c-0.02-0.31,0.21-0.58,0.52-0.61c0.32-0.02,0.58,0.21,0.61,0.52c0.05,0.69-0.22,1.41-0.76,2.03
								c-0.68,0.77-1.65,1.25-2.67,1.31C326.49,602.25,326.45,602.26,326.4,602.26z"/>
						</g>
					</g>
				</g>
				<g>
					<g>
						<g>
							<path fill="#848C84" d="M319.49,611.58c-7.59,0-10.94-4.75-11.08-4.96c-0.18-0.26-0.11-0.61,0.15-0.78
								c0.26-0.18,0.61-0.11,0.79,0.14c0.03,0.05,3.26,4.59,10.37,4.47c7.48-0.09,9.02-0.59,10.13-2.12
								c0.18-0.25,0.53-0.31,0.79-0.13c0.25,0.18,0.31,0.54,0.13,0.79c-1.46,2.03-3.42,2.49-11.03,2.59
								C319.64,611.58,319.56,611.58,319.49,611.58z"/>
						</g>
					</g>
				</g>
				<g>
					<g>
						<g>
							<path fill="#848C84" d="M343.74,611.94c-2.49,0-5.3-0.16-6.86-0.36c-3.06-0.39-5.3-2.41-5.4-2.5
								c-0.23-0.21-0.25-0.57-0.04-0.8c0.21-0.23,0.57-0.25,0.8-0.04c0.02,0.02,2.08,1.87,4.78,2.21c2.94,0.38,9.59,0.54,10.94,0.03
								c1.39-0.52,3.73-3.07,3.76-3.69c0.01-0.3,0.26-0.56,0.56-0.57h0c0.3,0,0.55,0.21,0.56,0.52c0.06,1.34-3,4.24-4.49,4.8
								C347.6,611.83,345.77,611.94,343.74,611.94z"/>
						</g>
					</g>
				</g>
				<g>
					<g>
						<g>
							<path fill="#848C84" d="M346.12,602.4c-1.71,0-4.03-1.44-5.05-2.14c-0.66,0.63-2.2,1.84-4.26,1.99
								c-2.81,0.21-7.01-4.78-7.48-5.35c-0.2-0.24-0.17-0.6,0.07-0.8c0.24-0.2,0.6-0.17,0.8,0.07c1.65,1.98,4.88,5.07,6.53,4.94
								c2.28-0.17,3.84-1.95,3.85-1.97c0.19-0.22,0.52-0.26,0.76-0.09c1.61,1.17,4.3,2.6,5.26,2.12c1.04-0.52,1.85-3.57,2.12-5.37
								c0.05-0.31,0.33-0.53,0.64-0.48c0.31,0.05,0.52,0.33,0.48,0.64c-0.08,0.53-0.83,5.26-2.73,6.21
								C346.81,602.34,346.48,602.4,346.12,602.4z"/>
						</g>
					</g>
				</g>
				<g>
					<g>
						<g>
							<path fill="#848C84" d="M337.46,596.49c-6.55,0-8.55-3.62-8.64-3.78c-0.15-0.28-0.04-0.62,0.23-0.76
								c0.28-0.15,0.62-0.04,0.76,0.23l0,0c0.08,0.14,1.99,3.49,8.49,3.16c7.18-0.35,8.42-0.83,8.3-3.21
								c-0.01-0.31,0.23-0.58,0.54-0.59c0.3-0.02,0.58,0.22,0.59,0.54c0.18,3.77-2.92,4.09-9.38,4.4
								C338.06,596.48,337.75,596.49,337.46,596.49z"/>
						</g>
					</g>
				</g>
				<g>
					<g>
						<g>
							<path fill="#848C84" d="M331.71,584.63c-1.82,0-3.05-0.63-3.3-1.44c-0.13-0.41-0.02-0.99,0.7-1.29
								c1.31-0.55,6.6,0.22,7.65,0.39c0.07,0.01,0.14,0.04,0.2,0.07c0.2,0.12,0.32,0.4,0.29,0.63c-0.07,0.44-0.37,0.77-3.67,1.45
								C332.91,584.57,332.28,584.63,331.71,584.63z M329.55,582.94c0.29,0.29,1.53,0.85,3.8,0.39c0.39-0.08,0.73-0.15,1.02-0.22
								C332.28,582.86,330.1,582.71,329.55,582.94z"/>
						</g>
					</g>
				</g>
				<g>
					<g>
						<g>
							<path fill="#848C84" d="M345.11,583.75c-2.52,0-5.62-0.9-5.76-0.95c-0.19-0.06-0.33-0.2-0.39-0.39
								c-0.05-0.19,0-0.39,0.13-0.53c0.38-0.42,3.84-4.05,6.31-3.74c1.61,0.2,2.54,1.81,2.5,3.25c-0.04,1.33-0.88,2.25-2.15,2.34
								C345.55,583.74,345.33,583.75,345.11,583.75z M340.6,581.97c1.23,0.3,3.43,0.75,5.07,0.64c0.93-0.07,1.09-0.81,1.1-1.25
								c0.02-0.92-0.58-1.98-1.51-2.1C343.94,579.09,341.84,580.79,340.6,581.97z"/>
						</g>
					</g>
				</g>
				<g>
					<g>
						<g>
							<path fill="#848C84" d="M335.07,592.17c-0.31,0-0.57-0.25-0.57-0.57c0-3.52,3.14-8.53,3.28-8.74
								c0.07-0.11,0.17-0.19,0.29-0.23c2.73-0.96,10.05-3.85,11.12-5.64c0.16-0.27,0.51-0.36,0.78-0.19
								c0.27,0.16,0.35,0.51,0.19,0.78c-1.41,2.35-9.86,5.46-11.52,6.06c-0.53,0.88-3,5.12-3,7.97
								C335.63,591.92,335.38,592.17,335.07,592.17z"/>
						</g>
					</g>
				</g>
				<g>
					<g>
						<g>
							<path fill="#848C84" d="M335.07,587.37c-0.22,0-0.44-0.13-0.52-0.35c-0.12-0.29,0.02-0.62,0.31-0.74
								c0.19-0.08,4.8-1.91,6.83,0.12c0.22,0.22,0.22,0.58,0,0.8c-0.22,0.22-0.58,0.22-0.8,0c-1.25-1.25-4.47-0.33-5.61,0.12
								C335.21,587.35,335.14,587.37,335.07,587.37z"/>
						</g>
					</g>
				</g>
				<g>
					<g>
						<g>
							<path fill="#848C84" d="M335.07,589.45c-0.22,0-0.44-0.13-0.52-0.35c-0.12-0.29,0.02-0.62,0.31-0.74
								c0.2-0.08,4.8-1.91,6.83,0.12c0.22,0.22,0.22,0.58,0,0.8c-0.22,0.22-0.58,0.22-0.8,0c-1.25-1.25-4.47-0.33-5.61,0.12
								C335.21,589.43,335.14,589.45,335.07,589.45z"/>
						</g>
					</g>
				</g>
				<g>
					<g>
						<g>
							<path fill="#848C84" d="M335.55,591.45c-0.22,0-0.43-0.13-0.52-0.35c-0.12-0.29,0.02-0.62,0.31-0.74
								c0.19-0.08,4.8-1.91,6.83,0.12c0.22,0.22,0.22,0.58,0,0.8c-0.22,0.22-0.58,0.22-0.8,0c-1.25-1.25-4.47-0.33-5.61,0.12
								C335.69,591.44,335.62,591.45,335.55,591.45z"/>
						</g>
					</g>
				</g>
				<g>
					<g>
						<g>
							<path fill="#848C84" d="M336.15,594.4c-0.22,0-0.43-0.13-0.52-0.35c-0.12-0.29,0.02-0.62,0.31-0.74
								c0.19-0.08,4.8-1.91,6.83,0.12c0.22,0.22,0.22,0.58,0,0.8c-0.22,0.22-0.58,0.22-0.8,0c-1.25-1.25-4.47-0.33-5.61,0.12
								C336.29,594.39,336.22,594.4,336.15,594.4z"/>
						</g>
					</g>
				</g>
				<g>
					<g>
						<g>
							<path fill="#848C84" d="M334.83,585.41c-0.22,0-0.44-0.13-0.52-0.35c-0.12-0.29,0.02-0.62,0.31-0.74
								c0.19-0.08,4.8-1.91,6.83,0.12c0.22,0.22,0.22,0.58,0,0.8c-0.22,0.22-0.58,0.22-0.8,0c-1.25-1.25-4.47-0.33-5.61,0.12
								C334.97,585.39,334.9,585.41,334.83,585.41z"/>
						</g>
					</g>
				</g>
				<g>
					<g>
						<g>
							<path fill="#848C84" d="M315.98,584.62c-0.14,0-0.28,0-0.43-0.01c-2.84-0.07-4.93-1.04-5.59-2.6
								c-0.36-0.85-0.22-1.74,0.38-2.38c1.31-1.41,7.6,1.01,10.24,2.11c0.21,0.09,0.35,0.29,0.35,0.52c0,0.1-0.03,0.64-0.58,1.18
								C319.55,584.22,318.08,584.62,315.98,584.62z M311.71,580.28c-0.27,0-0.45,0.04-0.54,0.12c-0.29,0.31-0.35,0.74-0.17,1.17
								c0.37,0.88,1.77,1.84,4.57,1.91c2.57,0.07,3.66-0.49,4.05-0.91C316.26,581.21,313.01,580.28,311.71,580.28z"/>
						</g>
					</g>
				</g>
				<g>
					<g>
						<g>
							<path fill="#848C84" d="M336.67,583.41c-0.26,0-0.5-0.18-0.55-0.45c-0.06-0.31,0.13-0.6,0.44-0.67l2.84-0.58
								c0.3-0.06,0.6,0.13,0.67,0.44c0.06,0.31-0.13,0.6-0.44,0.67l-2.84,0.58C336.74,583.4,336.7,583.41,336.67,583.41z"/>
						</g>
					</g>
				</g>
				<g>
					<g>
						<g>
							<path fill="#848C84" d="M323.8,583.19c-0.96,0-2.14-0.12-3.53-0.37c-0.22-0.04-0.39-0.2-0.45-0.41
								c-0.06-0.21,0.02-0.44,0.19-0.58c1.35-1.1,4.63-3.54,5.93-2.53c0.66,0.51,1.48,1.64,1.03,2.66
								C326.61,582.78,325.56,583.19,323.8,583.19z M321.76,581.9c3.66,0.47,4.13-0.31,4.17-0.41c0.14-0.33-0.25-0.97-0.69-1.31
								C324.93,580,323.46,580.69,321.76,581.9z"/>
						</g>
					</g>
				</g>
				<g>
					<g>
						<g>
							<path fill="#848C84" d="M328.09,594c-0.26,0-0.5-0.19-0.55-0.46c-1.6-8.11-6.38-9.88-7.18-10.12
								c-4.42,1.06-11.6,3.3-12.5,4.93c-0.15,0.27-0.5,0.37-0.77,0.22c-0.27-0.15-0.37-0.49-0.22-0.77
								c1.45-2.63,12.15-5.23,13.37-5.52c0.08-0.02,0.17-0.02,0.25,0c0.26,0.06,6.27,1.5,8.16,11.04c0.06,0.31-0.14,0.6-0.45,0.66
								C328.17,594,328.13,594,328.09,594z"/>
						</g>
					</g>
				</g>
				<g>
					<g>
						<g>
							<path fill="#848C84" d="M317.92,594.57c-0.23,0-0.45-0.15-0.54-0.38c-0.1-0.3,0.06-0.62,0.35-0.72
								c0.18-0.06,4.36-1.48,6.92-0.57c0.29,0.1,0.45,0.43,0.34,0.72c-0.1,0.29-0.43,0.45-0.72,0.34c-2.19-0.77-6.14,0.56-6.18,0.57
								C318.04,594.56,317.98,594.57,317.92,594.57z"/>
						</g>
					</g>
				</g>
				<g>
					<g>
						<g>
							<path fill="#848C84" d="M317.92,591.87c-0.23,0-0.45-0.15-0.54-0.38c-0.1-0.3,0.06-0.62,0.35-0.72
								c0.18-0.06,4.36-1.47,6.92-0.57c0.29,0.1,0.45,0.43,0.34,0.72c-0.1,0.29-0.43,0.45-0.72,0.34c-2.19-0.78-6.14,0.56-6.18,0.57
								C318.04,591.86,317.98,591.87,317.92,591.87z"/>
						</g>
					</g>
				</g>
				<g>
					<g>
						<g>
							<path fill="#848C84" d="M317.92,589.07c-0.23,0-0.45-0.15-0.54-0.38c-0.1-0.3,0.06-0.62,0.35-0.72
								c0.18-0.06,4.36-1.48,6.92-0.57c0.29,0.1,0.45,0.43,0.34,0.72c-0.1,0.29-0.43,0.45-0.72,0.34c-2.19-0.77-6.14,0.56-6.18,0.57
								C318.04,589.06,317.98,589.07,317.92,589.07z"/>
						</g>
					</g>
				</g>
				<g>
					<g>
						<g>
							<path fill="#848C84" d="M317.92,586.99c-0.23,0-0.45-0.15-0.54-0.38c-0.1-0.3,0.06-0.62,0.35-0.72
								c0.18-0.06,4.36-1.48,6.92-0.57c0.29,0.1,0.45,0.43,0.34,0.72c-0.1,0.29-0.43,0.45-0.72,0.34c-2.19-0.78-6.14,0.56-6.18,0.57
								C318.04,586.98,317.98,586.99,317.92,586.99z"/>
						</g>
					</g>
				</g>
				<g>
					<g>
						<path fill="#EAB334" d="M316.67,228.17c-0.32-0.14-0.66-0.09-0.9,0.16c-0.15,0.08-0.86,0.02-2.13-1.26
							c-1.06-1.06-2.12-0.9-2.77-0.39c-1.87,1.47-1.71,6.59,1.8,12.31c0.14,0.22,0.36,0.37,0.62,0.4c0.03,0,0.07,0.01,0.1,0.01
							c0.22,0,0.43-0.09,0.59-0.24l2.66-2.62c0.16-0.15,0.25-0.36,0.25-0.58l0.24-6.96C317.16,228.66,317,228.31,316.67,228.17z"/>
					</g>
				</g>
				<g>
					<g>
						<path fill="#FFFFFF" d="M315.02,237.42c0,0.82-0.44,1.48-0.99,1.48c-0.55,0-0.99-0.66-0.99-1.48c0-0.82,0.44-1.48,0.99-1.48
							C314.58,235.94,315.02,236.6,315.02,237.42z"/>
					</g>
				</g>
				<g>
					<g>
						<path fill="#EAB334" d="M327.43,286.7c-0.06-0.24-0.21-0.44-0.43-0.56c-0.22-0.11-0.48-0.13-0.71-0.04l-2.46,0.98l1.73-2.87
							l2.07-1.67c0.16-0.13,0.27-0.31,0.3-0.52l0.78-4.52c0.06-0.32-0.08-0.65-0.35-0.84c-0.27-0.19-0.62-0.2-0.91-0.04l-6.64,3.82
							c-0.12,0.07-0.22,0.17-0.3,0.29l-2.6,4.19l-0.45-1.53l0.83-2.42c0.97-0.27,2.5-0.8,3.02-1.58c0.24-0.36,1.4-2.21,0.53-3.46
							c-0.82-1.18-2.66-0.74-3.27-0.59c-4.1,0.99-5.81,3.58-5.9,3.72l-1.37,2.32c-0.62-0.01-1.39,0-1.77,0.13
							c-0.99,0.33-4.18,1.6-3.82,4.17c0.28,2,0.49,4.66,0.49,4.69c0.01,0.14,0.06,0.27,0.13,0.39l3.47,5.44v9.98
							c-0.88,0.81-2.96,2.89-3.1,4.43c-1.1,2.97-15.75,17.52-17.31,17.8c-0.48,0.08-0.54,0.02-0.82-0.23
							c-1.11-1.02-2.47-1.64-8.91,0.33c-0.3,0.09-0.52,0.34-0.58,0.65c-0.15,0.79-1.46,7.79,0.4,10.66c0.37,0.58,0.77,1.75,1.23,3.1
							c1.49,4.39,3.74,11,9.66,11c0.1,0,0.21,0,0.31-0.01c8.42-0.32,23.29-31.19,24.08-33.34c1.36-3.67,6.49-8.74,8.29-9.9
							l0.84-0.53c2.14-1.34,4.8-3.02,5.43-4.69c0.61-1.63,1.34-4.2,1.37-4.31c0.04-0.14,0.04-0.28,0.01-0.42L327.43,286.7z
							 M311.13,285.97l0.43-0.24l0.39,2.09l-0.43-0.32L311.13,285.97z"/>
					</g>
				</g>
				<g>
					<g>
						<path fill="#E2B734" d="M331.8,264.76l15.98,1.1c1.38,0.1,2.39,1.36,2.18,2.73l-4.85,31.22c-0.19,1.25-1.3,2.14-2.56,2.07
							l-15.57-0.9c-1.6-0.09-2.78-1.54-2.54-3.13l4.64-30.91C329.28,265.62,330.46,264.67,331.8,264.76z"/>
					</g>
				</g>
				<g>
					<g>
						<path fill="#EAB334" d="M381.37,328.01c-0.03-0.33-0.25-0.61-0.56-0.72c-1.39-0.5-3.58-1.46-4.12-2.04
							c-0.2-0.21-4.9-5.33-8.39-13.67c-1.12-2.67-2.04-5.1-2.86-7.23c-1.61-4.21-2.6-6.81-3.7-7.83c-0.56-0.94-4.41-7.4-5.1-9.1
							c-0.81-2-4.37-5.72-4.78-6.15l-1.32-1.3l-5.52-4.92c-0.98-0.88-2.38-1.08-3.47-0.5c-0.73,0.39-0.99,0.94-1.08,1.33
							c-0.17,0.76,0.11,1.61,0.86,2.61c0.53,0.71,1.13,1.41,1.7,2.1c1.91,2.27,3.72,4.41,3.17,6.51c-0.26,1-0.52,1.13-0.52,1.13
							c-0.18,0.03-0.72-0.33-1.02-0.53c-0.34-0.22-0.69-0.45-1.06-0.61c-1.04-0.44-10.82-3.95-12.2-3.95
							c-1.54,0-2.65,0.35-3.31,1.04c-0.45,0.47-0.67,1.09-0.65,1.79c0.11,2.75,3.03,3.21,4.6,3.45c1.53,0.24,7.56,3.13,11.4,5.09
							c0.11,0.27,0.18,0.59,0.11,0.69c-0.05,0.08-0.4,0.26-1.4,0.17c-3.73-0.37-6.97-1.15-8.06-1.96c-1.39-1.03-2.2-1.32-3.32-1.22
							c-0.64,0.06-1.81,0.41-2.19,1.38c-0.19,0.49-0.24,1.27,0.63,2.23c1.37,1.51,4.92,3.85,6.89,4.58l-2.78,0.15
							c-0.31,0.02-0.59,0.2-0.72,0.49c-0.13,0.28-0.1,0.62,0.09,0.87c0.24,0.32,2.4,3.15,4.27,3.63c0.51,0.13,1.46,0.34,2.56,0.58
							c1.82,0.39,5.22,1.13,5.7,1.39c0.65,0.5,4.61,1.6,7.13,2.26c0.41,0.67,1.64,3.01,2.3,7.99l0.12,0.9
							c1.01,7.76,3.37,25.94,9.63,31.42c2.49,2.19,4.48,3.22,6.21,3.22c0.1,0,0.21,0,0.31-0.01c1.95-0.14,3.16-1.57,4.34-2.95
							c0.21-0.25,0.43-0.5,0.65-0.75C376.62,348.8,382.61,341.67,381.37,328.01z"/>
					</g>
				</g>
			</g>
			<g>
				<g>
					<g>
						<path fill="#223A49" d="M450.91,587.08c-0.01-1.86-0.76-5.11-0.79-5.25c-0.05-0.21-0.17-0.39-0.35-0.51l-10.73-7.28
							c-0.19-0.13-0.44-0.18-0.67-0.12l-8.1,1.88c-0.29,0.07-0.53,0.29-0.62,0.57l-0.94,3.02c0,0.01-0.01,0.02-0.01,0.03
							c-0.16,0.6-3.98,14.77-4.26,16.88c-0.08,0.57-0.28,1.43-0.52,2.42c-0.62,2.57-1.39,5.77-0.87,7.71
							c0.72,2.66,4.62,9.58,13.92,9.58c6.14,0,13.19-0.81,13.19-7.16v-0.36c0.16-0.6,0.84-3.32,0.75-5.8
							c-0.09-2.43-0.7-5.79-0.84-6.5C450.19,595.16,450.92,588.79,450.91,587.08z"/>
					</g>
				</g>
				<g>
					<g>
						<path fill="#223A49" d="M503.74,606.75c-0.01-0.02-0.56-2.17-0.93-4c-0.4-1.99-3.03-6.06-3.34-6.54
							c-0.03-0.04-3.01-4.24-4.57-6.99c-1.57-2.78-3.84-7.28-3.86-7.33c-0.06-0.11-0.13-0.21-0.23-0.28
							c-0.18-0.14-4.37-3.41-10.63-2.32c-6.09,1.06-10.29,4.27-10.47,4.41c-0.07,0.05-0.13,0.12-0.18,0.19
							c-0.08,0.11-1.85,2.75-0.93,5.03c0.53,1.33,1.12,2.2,1.47,2.65l-0.82,3.83c-0.07,0.32,0.05,0.65,0.31,0.85l5.13,3.92
							c0.14,1.38,0.68,5.71,2.04,7.35c0.3,0.36,0.3,0.56,0.3,0.97c0,1.29,0.26,2.44,3.59,4.48c4.16,2.56,8.28,3.22,12.03,3.22
							c1.27,0,2.49-0.08,3.66-0.18c5.05-0.45,7.21-2.13,7.46-5.78C503.86,608.89,503.92,607.19,503.74,606.75z"/>
					</g>
				</g>
				<g>
					<g>
						<g>
							<path fill="#4986B4" d="M486.09,592.45c-0.38,0-0.72-0.25-0.82-0.62l-3-11.02c-0.12-0.45,0.14-0.92,0.6-1.04
								c0.45-0.12,0.92,0.14,1.04,0.6l0.81,2.98l-0.21-3.38c-0.03-0.47,0.33-0.87,0.79-0.9c0.47-0.02,0.87,0.33,0.9,0.79l0.74,11.7
								c0.03,0.43-0.28,0.82-0.71,0.89C486.18,592.45,486.13,592.45,486.09,592.45z"/>
						</g>
					</g>
				</g>
				<g>
					<g>
						<g>
							<path fill="#4986B4" d="M493.53,594.3c-0.69,0-1.56-0.25-2.65-0.57c-0.34-0.1-0.71-0.21-1.09-0.31
								c-1.69-0.47-3.03-0.17-4.73,0.21c-0.84,0.19-1.79,0.4-2.86,0.52c-3.48,0.39-6.57-1.92-7.71-4.29
								c-0.74-1.53-3.29-3.72-4.21-4.43c-0.37-0.29-0.44-0.82-0.15-1.19c0.29-0.37,0.82-0.44,1.19-0.15
								c0.15,0.11,3.63,2.83,4.7,5.04c0.91,1.88,3.39,3.64,6,3.34c0.98-0.11,1.85-0.3,2.68-0.49c1.77-0.4,3.45-0.77,5.55-0.19
								c0.39,0.11,0.77,0.22,1.12,0.32c0.79,0.23,1.78,0.49,2.16,0.51c0-0.07-0.01-0.16-0.03-0.29c-0.27-1.56-1.85-4.51-2.44-5.51
								c-0.24-0.4-0.1-0.92,0.3-1.16c0.4-0.24,0.92-0.1,1.16,0.3c0.09,0.16,2.27,3.9,2.65,6.08c0.05,0.31,0.22,1.27-0.45,1.87
								C494.38,594.18,494,594.3,493.53,594.3z"/>
						</g>
					</g>
				</g>
				<g>
					<g>
						<g>
							<path fill="#4986B4" d="M475.5,600.56c-0.43,0-0.8-0.33-0.84-0.77c-0.09-1-0.41-3.83-0.84-4.9
								c-0.32-0.79-2.11-2.14-3.28-2.84c-0.4-0.24-0.53-0.76-0.29-1.16c0.24-0.4,0.76-0.53,1.16-0.29c0.55,0.33,3.34,2.07,3.98,3.66
								c0.59,1.49,0.92,4.98,0.95,5.38c0.04,0.47-0.3,0.88-0.77,0.92C475.55,600.56,475.52,600.56,475.5,600.56z"/>
						</g>
					</g>
				</g>
				<g>
					<g>
						<g>
							<path fill="#4986B4" d="M493.16,613.8c-0.18,0-0.36,0-0.54,0c-8.27-0.06-15.08-5.25-15.36-5.47
								c-0.37-0.29-0.44-0.82-0.15-1.19c0.29-0.37,0.82-0.44,1.19-0.15c0.07,0.05,6.65,5.07,14.34,5.12
								c5.88,0.05,8.16-0.66,9.28-4.68c0.13-0.45,0.59-0.72,1.04-0.59c0.45,0.13,0.71,0.59,0.59,1.04
								C502.05,613.23,498.15,613.8,493.16,613.8z"/>
						</g>
					</g>
				</g>
				<g>
					<g>
						<g>
							<path fill="#4986B4" d="M438.2,613.25c-0.91,0-1.89-0.03-2.94-0.09c-9.1-0.52-12.19-7.21-12.32-7.5
								c-0.19-0.43,0-0.93,0.43-1.12c0.43-0.19,0.93,0,1.12,0.43c0.12,0.26,2.84,6.04,10.87,6.5c10.15,0.58,12.23-1.88,12.66-2.96
								c0.17-0.44,0.66-0.65,1.1-0.48c0.44,0.17,0.65,0.66,0.48,1.1C448.84,611.07,446.2,613.25,438.2,613.25z"/>
						</g>
					</g>
				</g>
				<g>
					<g>
						<g>
							<path fill="#4986B4" d="M443.55,594.8c-0.21,0-0.38,0-0.49-0.01c-2.02-0.07-2.71-0.97-3.22-1.63
								c-0.09-0.12-0.18-0.24-0.28-0.35c-0.2-0.22-0.82-0.5-1.4-0.47c-0.28,0.02-0.47,0.1-0.58,0.25c-0.74,1.05-2.48,2.27-6.46,2.19
								c-0.82-0.02-1.51-0.33-1.99-0.92c-1.31-1.57-0.81-4.69-0.52-6.56c0.06-0.4,0.12-0.71,0.13-0.91c0.04-0.7-0.25-0.94-0.26-0.95
								c-0.4-0.24-0.51-0.75-0.27-1.15c0.24-0.4,0.78-0.52,1.18-0.28c0.12,0.07,1.14,0.74,1.05,2.47c-0.01,0.23-0.07,0.61-0.14,1.08
								c-0.22,1.38-0.67,4.24,0.14,5.21c0.12,0.14,0.3,0.3,0.73,0.31c2.51,0.05,4.33-0.49,5.04-1.48c0.41-0.58,1.07-0.92,1.86-0.96
								c1-0.07,2.17,0.37,2.75,1.03c0.13,0.15,0.25,0.3,0.37,0.45c0.43,0.56,0.71,0.93,1.93,0.97c2.54,0.09,4.34-0.51,4.48-0.87
								c0.29-0.76,0.86-4.44,1.16-6.59c0.06-0.46,0.49-0.79,0.96-0.72c0.46,0.06,0.79,0.49,0.72,0.96c-0.08,0.59-0.8,5.77-1.25,6.95
								C448.51,594.61,445.02,594.8,443.55,594.8z"/>
						</g>
					</g>
				</g>
				<g>
					<g>
						<g>
							<path fill="#4986B4" d="M438.28,592.17c-0.01,0-0.02,0-0.03,0c-0.41-0.02-0.74-0.32-0.81-0.72l-2.02-12.86
								c-0.07-0.46,0.24-0.9,0.71-0.97c0.47-0.07,0.9,0.24,0.97,0.71l1.34,8.56l1.91-8.19c0.11-0.46,0.56-0.74,1.02-0.63
								c0.46,0.11,0.74,0.56,0.63,1.02l-2.9,12.44C439.02,591.9,438.67,592.17,438.28,592.17z"/>
						</g>
					</g>
				</g>
				<g>
					<g>
						<path fill="#4986B4" d="M506.49,385.96c-0.92-5.26-1.22-9.97-1.22-10.02c-0.03-0.46-0.43-0.83-0.88-0.8l-85.36,3.18
							c-0.41,0.02-0.75,0.32-0.81,0.73c-0.14,1.05-3.54,25.8-2.55,36.94c0.97,10.95-0.16,21.16-0.17,21.27
							c-0.01,0.07-0.01,0.13,0,0.2c0.11,0.91,2.74,22.36,4.29,28.92c1.58,6.71,2.78,29.05,1.4,32.67
							c-1.61,4.22-1.67,22.04,1.74,30.58c3.37,8.43,3.81,35.94,3.48,38.2c-0.39,2.74,2.01,11.1,2.29,12.04
							c0.08,0.28,0.3,0.5,0.58,0.58c0.28,0.08,0.58,0.01,0.8-0.18c1.63-1.46,6.49-4.9,9.39-3.28c3.98,2.22,11,6.8,11.07,6.85
							c0.19,0.12,0.43,0.17,0.65,0.12c0.22-0.05,0.42-0.19,0.54-0.38c0.35-0.56,3.4-5.49,3.7-7.68c0.23-1.68-0.67-6.55-1.59-11.09
							c-0.09-0.47-0.17-0.84-0.21-1.05c-0.1-0.69-0.32-9.16-0.54-18.14c-0.48-19.1-0.87-33.86-1.25-35.78
							c-0.61-3.05-2.85-13.1-3.17-14.54c0.29-1.53,2.23-11.84,2.05-16.42c-0.14-3.66,7.03-37.88,11.01-56.23l0.88,0.21l0.64,24.65
							c-0.01,0.49-0.26,12.02,2.31,19.15c1.94,5.4,2.2,11.46,2.36,15.07c0.04,1.04,0.08,1.86,0.14,2.45
							c0.26,2.34,2.01,6.01,2.51,7.01c-0.45,2.75-3.78,23.3-2.88,28.93c0.92,5.72-1.46,34.89-2.31,37.06
							c-0.89,2.26-2.9,10.2-2.6,12.93c0.36,3.22,0.95,7.13,2.37,8.76c1.16,1.32,2.97,3.3,3.4,3.77l0.88,2.04
							c0.1,0.23,0.3,0.4,0.54,0.47c0.08,0.02,0.16,0.04,0.24,0.04c0.16,0,0.33-0.05,0.47-0.14c0.06-0.04,6.45-4.2,11.52-4.29
							c4.93-0.1,7.88,2.4,7.91,2.43c0.27,0.24,0.66,0.28,0.98,0.1c0.31-0.18,0.48-0.54,0.42-0.89c-0.01-0.08-0.33-1.97,1.19-3.13
							c2.39-1.82,3.78-9.44,2.59-11.72c-0.36-0.68-0.91-1.19-1.44-1.68c-1.23-1.13-2.5-2.3-1.78-6.06c0.28-1.42,0.85-4,1.57-7.27
							c2.27-10.27,5.71-25.78,5.63-30.78c-0.05-3.25-0.36-11.48-0.66-19.43c-0.3-8.06-0.59-15.67-0.59-17.68
							c0-1.73,0.23-3.99,0.48-6.4c0.33-3.22,0.67-6.55,0.56-9.37c-0.08-2.1,1.26-9.74,2.82-18.58c1.99-11.33,4.25-24.18,4.62-31.37
							C506.8,412.96,507.71,392.91,506.49,385.96z"/>
					</g>
				</g>
				<g>
					<g>
						<g>
							<path fill="#223A49" d="M464.29,409.14c-0.43,0-0.8-0.33-0.84-0.77c-0.04-0.47,0.3-0.88,0.76-0.92
								c5.13-0.49,5.58-7.12,5.59-7.4l-1-18.63c-0.02-0.47,0.33-0.87,0.8-0.89c0.49-0.01,0.87,0.33,0.89,0.8l1,18.72
								c-0.16,2.98-1.86,8.58-7.13,9.09C464.34,409.14,464.31,409.14,464.29,409.14z"/>
						</g>
					</g>
				</g>
				<g>
					<g>
						<g>
							<path fill="#223A49" d="M462.02,406.6c-0.46,0-0.83-0.36-0.85-0.82l-0.74-23.46c-0.01-0.47,0.35-0.86,0.82-0.87
								c0.46-0.03,0.86,0.35,0.87,0.82l0.74,23.46c0.02,0.47-0.35,0.86-0.82,0.87C462.04,406.6,462.03,406.6,462.02,406.6z"/>
						</g>
					</g>
				</g>
				<g>
					<g>
						<g>
							<path fill="#223A49" d="M502.8,383.25c-7.45,0-11.42-3.6-11.6-3.77c-0.34-0.32-0.36-0.86-0.04-1.2
								c0.32-0.34,0.85-0.36,1.2-0.04c0.07,0.06,4.49,4,12.63,3.21c0.46-0.05,0.88,0.29,0.93,0.76c0.05,0.47-0.3,0.88-0.76,0.93
								C504.33,383.21,503.55,383.25,502.8,383.25z"/>
						</g>
					</g>
				</g>
				<g>
					<g>
						<g>
							<path fill="#223A49" d="M424.95,386.09c-1.9,0-4.15-0.28-6.73-0.84c-0.46-0.1-0.75-0.55-0.65-1.01
								c0.1-0.46,0.55-0.75,1.01-0.65c7.2,1.57,10,0.47,11.03-0.32c0.85-0.65,0.89-1.37,0.9-1.4c0.02-0.46,0.4-0.83,0.87-0.82
								c0.46,0.01,0.83,0.38,0.83,0.84c0,0.15-0.04,1.51-1.47,2.66C429.45,385.57,427.52,386.09,424.95,386.09z"/>
						</g>
					</g>
				</g>
				<g>
					<g>
						<path fill="#FBFCE9" d="M522.05,289.29c-0.51-1.62-1-3.15-1.1-3.92c-0.08-0.63-0.14-4.49-0.22-8.96
							c-0.25-14.79-0.56-29.48-1.52-32.33c-0.16-0.47-0.31-0.95-0.46-1.45c-1.29-4.18-2.89-9.38-9.72-10.1
							c-7.38-0.78-20.03-3.23-21.16-3.94c-1.01-0.87-1.95-0.96-3.24-1.09c-0.27-0.03-0.56-0.06-0.95-0.1l-40.06-1.7
							c-0.06,0-0.13,0-0.19,0.01c-0.1,0.02-2.52,0.46-3.98,1.39c-1.21,0.76-3.47,1.3-3.55,1.32c-0.15,0.05-15.52,4.93-18.11,5.34
							c-0.2,0.03-0.42,0.06-0.67,0.1c-3.18,0.44-10.64,1.47-12.6,9.88c-1.94,8.3-5.71,35.06,0,58.9
							c4.42,18.46,12.52,24.61,15.8,26.4c1.53,0.83,3.01,1.31,4.21,1.37c-1.66,5.85-8.54,30.45-8.02,34.75
							c0.3,2.45,0.92,3.2,1.58,3.81c0.32,0.29,0.51,0.47,0.4,1.96c-0.28,3.8-0.28,8.22-0.28,8.26c0,0.38,0.25,0.71,0.61,0.81
							c0.15,0.05,14.07,4.12,28.05,4.12c1.4,0,2.8-0.04,4.19-0.13c7.12-0.46,12.34-1.05,16.53-1.53c4.65-0.53,7.71-0.87,10.04-0.64
							c4.6,0.47,26.9-4.98,27.85-5.21c0.42-0.1,0.7-0.51,0.64-0.94l-0.89-6.64c0.4-0.18,0.87-0.48,1.26-1
							c0.65-0.85,0.85-2,0.62-3.42l-0.08-0.49c-1.8-10.78-2.63-17.39-2.45-19.66c0.29-3.76-0.97-11.78-2.04-14.38
							c-0.33-0.79-0.56-1.54-0.72-2.17c0.15,0.05,0.3,0.09,0.47,0.13c2.23,0.49,5.12-0.52,8.58-3.02c7.89-5.7,9.39-12.16,9.82-17.72
							c0.3-3.86,1.39-6.43,2.18-8.31c0.32-0.74,0.59-1.39,0.76-1.98C524.01,295.64,523.25,293.06,522.05,289.29z"/>
					</g>
				</g>
				<g>
					<g>
						<path fill="#EAB334" d="M442.65,192.06c-0.02-0.13-0.07-0.26-0.15-0.37c-0.06-0.08-1.44-1.94-3.45-1.76
							c-0.36,0.03-0.89,0.2-1.32,0.82c-1.03,1.49-0.95,5.03-0.56,6.46c0.05,0.2,0.12,0.48,0.2,0.81c0.92,3.78,2.09,7.85,4.32,8.14
							l2.12,0.28c0.04,0.01,0.08,0.01,0.11,0.01c0.23,0,0.45-0.09,0.61-0.26c0.19-0.19,0.27-0.46,0.23-0.72L442.65,192.06z"/>
					</g>
				</g>
				<g>
					<g>
						<path fill="#EAB334" d="M484.38,227.8c-0.15-0.25-0.42-0.41-0.71-0.42c-0.04,0-4.17-0.12-6.33-2.45
							c-0.95-1.02-1.37-4.27-1.28-5.86c0.02-0.35-0.18-0.67-0.49-0.81l-31.62-12.72c-0.3-0.14-0.65-0.09-0.9,0.12
							c-0.25,0.21-0.36,0.55-0.27,0.87c2,7.27,3.48,18.05,0.51,19.22c-0.23,0.09-0.41,0.28-0.49,0.52c-0.08,0.24-0.05,0.5,0.08,0.71
							c0.16,0.27,4.17,6.62,21.11,7.19c0.8,0.03,1.56,0.04,2.3,0.04c15.01,0,18-5.34,18.13-5.58
							C484.54,228.37,484.53,228.06,484.38,227.8z"/>
					</g>
				</g>
				<g>
					<g>
						<path fill="#EAB334" d="M481.67,202.65c-0.28-4.1-0.99-12.15-0.71-13.99c0.28-1.84,4.66-22.76-17.81-26.01
							c0,0-13-2.26-20.78,10.32c-7.77,12.58,4.95,47.21,8.62,51.73c3.67,4.52,9.47,6.22,15.41,4.52c5.94-1.7,8.62-8.34,11.31-12.3
							C480.4,212.97,481.95,206.75,481.67,202.65z"/>
					</g>
				</g>
				<g>
					<g>
						<path fill="#EAB334" d="M483.27,189.23c-1-0.66-2.21-0.34-2.77-0.04c-0.25,0.13-0.41,0.38-0.45,0.66
							c-0.34,3.11,0.95,6.5,1,6.64c0.13,0.33,0.44,0.54,0.79,0.54c0.01,0,0.02,0,0.03,0c0.36-0.01,0.67-0.25,0.78-0.59
							C484.65,190.14,483.68,189.5,483.27,189.23z"/>
					</g>
				</g>
				<g>
					<g>
						<g>
							<path fill="#B8C1B8" d="M429.52,295.65c-0.14,0-0.28-0.04-0.42-0.11c-0.41-0.23-0.55-0.75-0.32-1.15
								c0.46-0.81,4.49-7.93,5.97-9.26c1.44-1.3,8.02-5.05,8.77-5.48c0.4-0.23,0.92-0.09,1.16,0.32c0.23,0.41,0.09,0.92-0.32,1.16
								c-1.98,1.13-7.37,4.27-8.47,5.26c-0.95,0.86-3.96,5.87-5.62,8.83C430.1,295.5,429.81,295.65,429.52,295.65z"/>
						</g>
					</g>
				</g>
				<g>
					<g>
						<g>
							<path fill="#B8C1B8" d="M430.23,327.31c-0.28,0-0.55-0.13-0.71-0.38c-0.26-0.39-0.15-0.92,0.24-1.17
								c4.38-2.88,14.05-13.22,16.58-17c2.4-3.61,3.81-14.92,3.82-15.04c0.06-0.46,0.48-0.79,0.94-0.74
								c0.46,0.06,0.8,0.48,0.74,0.94c-0.06,0.48-1.47,11.83-4.09,15.77c-2.61,3.91-12.39,14.42-17.06,17.48
								C430.55,327.27,430.39,327.31,430.23,327.31z"/>
						</g>
					</g>
				</g>
				<g>
					<g>
						<g>
							<path fill="#B8C1B8" d="M430.57,293.83c-0.37,0-0.71-0.25-0.82-0.62l-11.79-42.84c-0.12-0.45,0.14-0.92,0.59-1.04
								c0.45-0.12,0.92,0.14,1.04,0.59l11.79,42.84c0.12,0.45-0.14,0.92-0.59,1.04C430.72,293.82,430.64,293.83,430.57,293.83z"/>
						</g>
					</g>
				</g>
				<g>
					<g>
						<g>
							<path fill="#B8C1B8" d="M514.88,304.41c-0.37,0-0.71-0.25-0.82-0.62c-0.61-2.22-4.14-4.12-5.44-4.67
								c-0.18-0.07-0.32-0.2-0.41-0.37c-0.2-0.35-4.83-8.67-5.82-10.8c-0.6-1.29-3.73-2.66-5.56-3.22c-0.45-0.14-0.7-0.61-0.56-1.06
								c0.14-0.45,0.61-0.7,1.06-0.56c0.56,0.17,5.48,1.73,6.6,4.13c0.87,1.87,4.84,9.01,5.63,10.44c1.13,0.52,5.32,2.61,6.15,5.67
								c0.12,0.45-0.14,0.92-0.6,1.04C515.03,304.4,514.96,304.41,514.88,304.41z"/>
						</g>
					</g>
				</g>
				<g>
					<g>
						<g>
							<path fill="#B8C1B8" d="M497.09,324.18c-0.1,0-0.21-0.02-0.31-0.06c-1.19-0.47-3.02-3.18-5.99-8.01
								c-0.37-0.61-0.69-1.13-0.93-1.49c-0.79-1.23-1.86-4.71-2.89-8.08c-0.66-2.16-1.34-4.39-1.66-4.97
								c-0.97-1.78-0.18-5.65-0.09-6.09c0.1-0.46,0.55-0.75,1.01-0.65c0.46,0.1,0.75,0.55,0.65,1.01c-0.3,1.41-0.59,3.99-0.08,4.92
								c0.38,0.7,0.93,2.47,1.8,5.29c0.9,2.95,2.03,6.63,2.69,7.66c0.24,0.37,0.56,0.9,0.94,1.52c1.16,1.89,4.24,6.9,5.18,7.32
								c0.42,0.19,0.63,0.69,0.45,1.11C497.72,323.98,497.41,324.18,497.09,324.18z"/>
						</g>
					</g>
				</g>
				<g>
					<g>
						<g>
							<path fill="#B8C1B8" d="M500.79,286.35c-0.06,0-0.12-0.01-0.18-0.02c-0.46-0.1-0.75-0.55-0.65-1.01l7.31-33.24
								c0.1-0.46,0.55-0.75,1.01-0.65c0.46,0.1,0.75,0.55,0.65,1.01l-7.31,33.24C501.53,286.08,501.18,286.35,500.79,286.35z"/>
						</g>
					</g>
				</g>
				<g>
					<g>
						<g>
							<path fill="#B8C1B8" d="M446.57,371.84c-0.19,0-0.34,0-0.45-0.01c-3.07-0.28-26.77-2.01-27.01-2.03
								c-0.47-0.03-0.82-0.44-0.78-0.91c0.03-0.47,0.45-0.82,0.91-0.78c0.24,0.02,23.96,1.75,27.04,2.03
								c2.48,0.22,29.22-2.68,39.31-3.81c0.05-0.01,0.1-0.01,0.14,0l16.91,0.99c0.47,0.03,0.82,0.43,0.8,0.9
								c-0.03,0.47-0.42,0.82-0.9,0.8l-16.84-0.98C483.48,368.27,451.63,371.84,446.57,371.84z"/>
						</g>
					</g>
				</g>
				<g>
					<g>
						<g>
							<path fill="#42342E" d="M456.37,212.56c-0.07,0-0.14-0.01-0.21-0.05c-0.27-0.12-0.39-0.43-0.27-0.7l0.29-0.65
								c0.12-0.27,0.43-0.39,0.7-0.27c0.27,0.12,0.39,0.43,0.27,0.7l-0.29,0.65C456.77,212.45,456.57,212.56,456.37,212.56z"/>
						</g>
					</g>
				</g>
				<g>
					<g>
						<g>
							<path fill="#42342E" d="M457.89,212.56c-0.07,0-0.14-0.01-0.21-0.05c-0.27-0.12-0.39-0.43-0.27-0.7l0.29-0.65
								c0.12-0.27,0.43-0.39,0.7-0.27c0.27,0.12,0.39,0.43,0.27,0.7l-0.29,0.65C458.29,212.45,458.09,212.56,457.89,212.56z"/>
						</g>
					</g>
				</g>
				<g>
					<g>
						<g>
							<path fill="#42342E" d="M459.2,212.56c-0.07,0-0.14-0.01-0.21-0.05c-0.27-0.12-0.39-0.43-0.27-0.7l0.29-0.65
								c0.12-0.27,0.43-0.39,0.7-0.27c0.27,0.12,0.39,0.43,0.27,0.7l-0.29,0.65C459.6,212.45,459.4,212.56,459.2,212.56z"/>
						</g>
					</g>
				</g>
				<g>
					<g>
						<g>
							<path fill="#42342E" d="M460.81,212.72c-0.07,0-0.14-0.01-0.21-0.05c-0.27-0.12-0.39-0.43-0.27-0.7l0.29-0.65
								c0.12-0.27,0.43-0.39,0.7-0.27c0.27,0.12,0.39,0.43,0.27,0.7l-0.29,0.65C461.2,212.6,461.01,212.72,460.81,212.72z"/>
						</g>
					</g>
				</g>
				<g>
					<g>
						<g>
							<path fill="#42342E" d="M461.81,212.89c-0.07,0-0.14-0.01-0.21-0.05c-0.27-0.12-0.39-0.43-0.27-0.7l0.29-0.65
								c0.12-0.27,0.43-0.39,0.7-0.27c0.27,0.12,0.39,0.43,0.27,0.7l-0.29,0.65C462.21,212.77,462.01,212.89,461.81,212.89z"/>
						</g>
					</g>
				</g>
				<g>
					<g>
						<g>
							<path fill="#42342E" d="M466.93,212.89c-0.07,0-0.14-0.01-0.21-0.05c-0.27-0.12-0.39-0.43-0.27-0.7l0.29-0.65
								c0.12-0.27,0.43-0.39,0.7-0.27c0.27,0.12,0.39,0.43,0.27,0.7l-0.29,0.65C467.33,212.77,467.14,212.89,466.93,212.89z"/>
						</g>
					</g>
				</g>
				<g>
					<g>
						<g>
							<path fill="#42342E" d="M468.52,212.56c-0.07,0-0.14-0.01-0.21-0.05c-0.27-0.12-0.39-0.43-0.27-0.7l0.29-0.65
								c0.12-0.27,0.43-0.39,0.7-0.27c0.27,0.12,0.39,0.43,0.27,0.7l-0.29,0.65C468.92,212.45,468.73,212.56,468.52,212.56z"/>
						</g>
					</g>
				</g>
				<g>
					<g>
						<g>
							<path fill="#42342E" d="M469.79,212.56c-0.07,0-0.14-0.01-0.21-0.05c-0.27-0.12-0.39-0.43-0.27-0.7l0.29-0.65
								c0.12-0.27,0.43-0.39,0.7-0.27c0.27,0.12,0.39,0.43,0.27,0.7l-0.29,0.65C470.19,212.45,470,212.56,469.79,212.56z"/>
						</g>
					</g>
				</g>
				<g>
					<g>
						<g>
							<path fill="#42342E" d="M470.93,212.56c-0.07,0-0.14-0.01-0.21-0.05c-0.27-0.12-0.39-0.43-0.27-0.7l0.29-0.65
								c0.12-0.27,0.43-0.39,0.7-0.27c0.27,0.12,0.39,0.43,0.27,0.7l-0.29,0.65C471.32,212.45,471.13,212.56,470.93,212.56z"/>
						</g>
					</g>
				</g>
				<g>
					<g>
						<g>
							<path fill="#42342E" d="M472.09,212.56c-0.07,0-0.14-0.01-0.21-0.05c-0.27-0.12-0.39-0.43-0.27-0.7l0.29-0.65
								c0.12-0.27,0.43-0.39,0.7-0.27c0.27,0.12,0.39,0.43,0.27,0.7l-0.29,0.65C472.49,212.45,472.3,212.56,472.09,212.56z"/>
						</g>
					</g>
				</g>
				<g>
					<g>
						<g>
							<path fill="#42342E" d="M473.19,213.04c-0.07,0-0.14-0.01-0.21-0.05c-0.27-0.12-0.39-0.43-0.27-0.7l0.29-0.65
								c0.12-0.27,0.43-0.39,0.7-0.27c0.27,0.12,0.39,0.43,0.27,0.7l-0.29,0.65C473.59,212.92,473.39,213.04,473.19,213.04z"/>
						</g>
					</g>
				</g>
				<g>
					<g>
						<g>
							<path fill="#42342E" d="M474.28,213.04c-0.07,0-0.14-0.01-0.21-0.05c-0.27-0.12-0.39-0.43-0.27-0.7l0.29-0.65
								c0.12-0.27,0.43-0.39,0.7-0.27c0.27,0.12,0.39,0.43,0.27,0.7l-0.29,0.65C474.68,212.92,474.49,213.04,474.28,213.04z"/>
						</g>
					</g>
				</g>
				<g>
					<g>
						<g>
							<path fill="#42342E" d="M454.85,213.04c-0.07,0-0.14-0.01-0.21-0.05c-0.27-0.12-0.39-0.43-0.27-0.7l0.29-0.65
								c0.12-0.27,0.43-0.39,0.7-0.27c0.27,0.12,0.39,0.43,0.27,0.7l-0.29,0.65C455.25,212.92,455.06,213.04,454.85,213.04z"/>
						</g>
					</g>
				</g>
				<g>
					<g>
						<g>
							<path fill="#42342E" d="M453.4,213.53c-0.07,0-0.14-0.01-0.21-0.05c-0.27-0.12-0.39-0.43-0.27-0.7l0.29-0.65
								c0.12-0.27,0.43-0.39,0.7-0.27c0.27,0.12,0.39,0.43,0.27,0.7l-0.29,0.65C453.8,213.41,453.6,213.53,453.4,213.53z"/>
						</g>
					</g>
				</g>
				<g>
					<g>
						<g>
							<path fill="#42342E" d="M460.95,222.11c-0.07,0-0.14-0.01-0.21-0.05c-0.27-0.12-0.39-0.43-0.27-0.7l0.29-0.65
								c0.12-0.27,0.43-0.39,0.7-0.27c0.27,0.12,0.39,0.43,0.27,0.7l-0.29,0.65C461.35,221.99,461.15,222.11,460.95,222.11z"/>
						</g>
					</g>
				</g>
				<g>
					<g>
						<g>
							<path fill="#42342E" d="M462.1,222.76c-0.07,0-0.14-0.01-0.21-0.05c-0.27-0.12-0.39-0.43-0.27-0.7l0.29-0.65
								c0.12-0.27,0.43-0.39,0.7-0.27c0.27,0.12,0.39,0.43,0.27,0.7l-0.29,0.65C462.49,222.64,462.3,222.76,462.1,222.76z"/>
						</g>
					</g>
				</g>
				<g>
					<g>
						<g>
							<path fill="#42342E" d="M463.48,223.08c-0.07,0-0.14-0.01-0.21-0.05c-0.27-0.12-0.39-0.43-0.27-0.7l0.29-0.65
								c0.12-0.27,0.43-0.39,0.7-0.27c0.27,0.12,0.39,0.43,0.27,0.7l-0.29,0.65C463.88,222.96,463.68,223.08,463.48,223.08z"/>
						</g>
					</g>
				</g>
				<g>
					<g>
						<g>
							<path fill="#42342E" d="M464.99,223.08c-0.07,0-0.14-0.01-0.21-0.05c-0.27-0.12-0.39-0.43-0.27-0.7l0.29-0.65
								c0.12-0.27,0.43-0.39,0.7-0.27c0.27,0.12,0.39,0.43,0.27,0.7l-0.29,0.65C465.39,222.96,465.19,223.08,464.99,223.08z"/>
						</g>
					</g>
				</g>
				<g>
					<g>
						<g>
							<path fill="#42342E" d="M466.51,222.76c-0.07,0-0.14-0.01-0.21-0.05c-0.27-0.12-0.39-0.43-0.27-0.7l0.29-0.65
								c0.12-0.27,0.43-0.39,0.7-0.27c0.27,0.12,0.39,0.43,0.27,0.7l-0.29,0.65C466.91,222.64,466.72,222.76,466.51,222.76z"/>
						</g>
					</g>
				</g>
				<g>
					<g>
						<g>
							<path fill="#42342E" d="M467.36,222.56c-0.07,0-0.14-0.01-0.21-0.05c-0.27-0.12-0.39-0.43-0.27-0.7l0.29-0.65
								c0.12-0.27,0.43-0.39,0.7-0.27c0.27,0.12,0.39,0.43,0.27,0.7l-0.29,0.65C467.76,222.44,467.56,222.56,467.36,222.56z"/>
						</g>
					</g>
				</g>
				<g>
					<g>
						<path fill="#223A49" d="M472.09,219.83c-0.77,0.88-3.09,6.09-8.62,6.71c-5.52,0.61-9.55-6.16-10.97-8.53
							c-1.41-2.37-3.78-3.46-4.62-5.01c-3.2-5.92-3.58-9.69-3.96-11.2c-0.38-1.51,0.38-4.99,0.38-7.11c0-2.12,1.23-5.42,2.54-6.93
							c1.32-1.51,0-5.75-0.28-7.82c-0.28-2.07,2.45-5.46,5.38-5.65c1.75-0.11,6.33,1.63,7.13,2.02c0.07,0.04,0.14,0.07,0.21,0.12
							c0.56,0.4,2.15,2.04,4.79,1.91c2.49-0.12,4.12-1.6,5.27-2.26c1.16-0.66,5.65-2.36,6.84-2.45c1.19-0.09,2.32,1.32,2.32,2.54
							l0,0c0,2.19,0.23,4.38,0.69,6.53c0.58,2.71,1.32,6.13,1.33,6.14c1.08,0.97,1.16-6.19,0.52-10.66
							c-0.93-6.47-5.38-13.72-17.91-15.53c0,0-13-2.26-20.78,10.32c-7.77,12.58,4.95,47.21,8.62,51.73
							c3.67,4.52,9.47,6.22,15.41,4.52c5.94-1.7,8.62-8.34,11.31-12.3c1.63-2.41,2.84-5.65,3.48-8.75
							c-0.69,1.26-1.88,3.52-2.21,4.82C478.51,214.87,472.86,218.95,472.09,219.83z"/>
					</g>
				</g>
				<g>
					<g>
						<g>
							<path fill="#B8C1B8" d="M464.55,237.48c-17.01,0-22.89-6.95-23.14-7.26c-0.2-0.24-0.16-0.6,0.08-0.79
								c0.24-0.2,0.6-0.16,0.8,0.08c0.06,0.07,6.3,7.37,24.22,6.81c17.49-0.53,18.61-5.16,18.62-5.21c0.06-0.3,0.35-0.51,0.65-0.46
								c0.3,0.05,0.51,0.32,0.47,0.62c-0.08,0.57-1.29,5.61-19.71,6.17C465.85,237.47,465.19,237.48,464.55,237.48z"/>
						</g>
					</g>
				</g>
				<g>
					<g>
						<g>
							<path fill="#B8C1B8" d="M446.55,298.86c-0.07,0-0.14-0.01-0.21-0.04c-6.87-2.75-7-11.13-7-11.22c0-0.31,0.25-0.57,0.56-0.57
								c0,0,0,0,0,0c0.31,0,0.56,0.25,0.57,0.56c0,0.08,0.13,7.71,6.29,10.17c0.29,0.12,0.43,0.45,0.32,0.73
								C446.99,298.72,446.78,298.86,446.55,298.86z"/>
						</g>
					</g>
				</g>
				<g>
					<g>
						<g>
							<path fill="#B8C1B8" d="M493.54,302.38c-3.43,0-5.59-1.94-5.62-1.98c-0.23-0.21-0.24-0.57-0.03-0.8
								c0.21-0.23,0.57-0.24,0.8-0.03c0.23,0.21,5.75,5.12,13.43-2.73l1.02-2.27c0.13-0.28,0.46-0.41,0.75-0.28
								c0.28,0.13,0.41,0.46,0.28,0.75l-1.06,2.36c-0.03,0.06-0.06,0.11-0.11,0.16C499.36,301.3,496.09,302.38,493.54,302.38z"/>
						</g>
					</g>
				</g>
				<g>
					<g>
						<path fill="#203746" d="M466.83,251.56c0,0,0.21-3.89,3.04-3.96c2.83-0.07,16.65-0.61,16.65-0.61s2.14-0.57,1.72,3.44
							c-0.3,2.83-3.25,26.43-3.25,26.43h-20.71L466.83,251.56z"/>
					</g>
				</g>
				<g>
					<g>
						<path fill="#EAB334" d="M497.92,283.82c-0.09-0.75-0.44-1.57-0.77-2.36c-0.26-0.6-0.52-1.22-0.57-1.61l-0.06-0.5
							c-0.36-3.23-0.92-6.72-2.4-8.07c-1.6-1.46-3.19-3.77-3.75-5.08c-0.75-1.76-3.48-2.88-3.73-2.98l-8.16-3.9
							c-0.21-0.09-2.12-0.86-3.59-0.14c-0.69,0.34-1.16,0.95-1.38,1.76c-0.65,2.44,1.45,4.16,2.62,4.72
							c3.45,1.77,7.45,4.12,7.86,4.76c0.13,0.37-0.12,0.97-0.42,1.46l-12.71-4.68c-1.26-0.32-3.51-0.8-4.36-0.38
							c-0.07,0.02-0.3,0.04-0.48,0.06c-1.33,0.12-4.46,0.4-4.26,5.07c0.19,4.72,0,11.88,0,11.96c-0.01,0.37,0.22,0.7,0.56,0.82
							l8.02,2.87l10.09,4.34c0.81,0.72,4.7,4.13,6.74,4.49c0.35,0.06,0.71,0.09,1.07,0.09c1.98,0,3.91-0.88,4.7-1.67
							c0.8-0.8,3.66-4.73,4-5.58C497.21,288.59,498.09,285.29,497.92,283.82z"/>
					</g>
				</g>
				<g>
					<g>
						<path fill="#EAB334" d="M483.04,278.36c-1.25-1.32-3.75-1.23-3.97-1.22c-0.07,0-7.07-0.15-11.21-0.7
							c-1.19-0.16-1.66-0.38-1.83-0.49c0.01-0.01,0.02-0.02,0.03-0.03c1.77-0.13,10.91-0.82,12.83-0.75c3.52,0.1,4.09-1.7,4.19-2.26
							c0.15-0.91,0.08-2.87-1.27-3.8c-0.85-0.59-2.95-0.58-6.78-0.35c-0.4,0.02-0.76,0.05-1.02,0.06c-0.95,0.04-4.78,0.03-7.75,0.02
							l0.77-0.37c0.39,0,1.56,0.02,4.88,0.07c2.37,0.04,3.68-0.27,4.4-1.02c0.69-0.73,0.63-1.64,0.58-2.44l-0.02-0.39
							c-0.09-2.14-4.39-2.71-7-2.86h-6.78c-0.13,0-0.26,0.03-0.38,0.09c-1.05,0.52-3.98,1.95-4.98,2.29
							c-1.79,0.6-3.5,1.75-5.22,3.54c-1.45,1.51-2.89,4.9-3.94,7.37c-0.35,0.83-0.75,1.78-0.88,1.96c-0.3,0.38-2.39,1.64-4.15,2.59
							c-0.23,0.13-0.4,0.35-0.44,0.62c-0.03,0.17-0.65,4.21,0,8.39c0.72,4.64,7.46,5.95,7.75,6c0.05,0.01,0.1,0.01,0.16,0.01
							c0.36,0,0.69-0.23,0.81-0.59l0.47-1.46c0.98-0.12,2.8-0.38,3.42-0.63c0.68-0.27,7.17-3.46,8.51-4.11
							c1.5-0.04,10.93-0.31,13.03-0.72c2.09-0.4,2.59-1.38,2.71-1.92c0.13-0.6-0.11-1.21-0.61-1.6c1.51-0.05,4.09-0.45,4.38-3.16
							C483.8,279.65,483.57,278.92,483.04,278.36z"/>
					</g>
				</g>
			</g>
			<g>
				<g>
					<g>
						<path fill="#4986B4" d="M96.71,425.86c0.07-0.62,1.65-15.18,1.75-16.4c0.1-1.26-1.45-17.45-1.62-19.29l-3.54-8.52l-81.13,3.92
							l-0.19,0.54c-0.18,0.51-4.32,12.61-4.32,15.92c0,2.72,0.17,17.54,0.95,22.46c0.72,4.53,8,54.44,8.46,57.59
							c-0.2,0.93-1.01,4.89-0.73,6.58c0.15,0.93,0.7,1.26,1.01,1.37c1.06,0.38,2.28-0.57,2.64-0.87l0.11-0.12
							c0.01-0.01,1.03-1.28,2.21-0.78c1.44,0.61,3.94,2.38,4.64,2.88c0.12,0.32,0.21,0.67,0.21,0.87c-0.01,0-0.03,0-0.04,0
							c-0.81-0.04-1.79-0.18-2.75-0.31c-1.02-0.14-1.9-0.26-2.48-0.26c-1.31,0-2.16,0.69-2.25,0.77l-0.45,0.39l0.21,0.56
							c0.69,1.84,1.68,5.25,1.38,6.58c-0.4,1.77-0.25,2.7-0.1,3.11l0.25,3.19c-0.45,0.85-1.61,3.63-1.2,9.21
							c0.47,6.45,4.21,35.84,4.24,36.05l0.2,7.03l0.48,0.22c0.19,0.09,4.75,2.15,10.42,2.24c5.64,0.1,12.31-1.84,12.6-1.92
							l0.58-0.17l0.03-0.61c0.26-5.92,0.73-15.09,0.93-16.08c0.2-1.02,0.68-3.64,0.68-6.01l-0.01-11.88l-1.21-10.46
							c0.05-0.51,0.27-2.88,0.18-4.38c-0.08-1.42-0.96-3.65-1.33-4.54c0.34-0.74,1.05-2.43,1.05-3.89c0-0.95-0.33-1.83-0.62-2.61
							c-0.27-0.73-0.53-1.42-0.43-1.93c0.11-0.55,0.6-1.35,1.08-2.12c0.6-0.97,1.16-1.89,1.28-2.73c0.19-1.33,0.54-17.32,0.57-19.13
							l0-0.08l-0.01-0.08c-0.44-2.62-1.57-9.82-1.5-11.6c0.09-2.25,0.1-6.45,0.09-6.54l3.38-30.19l4.06,1.17l8.89,70.82
							c0.13,0.71,1.27,6.96,2.16,8.63c0.7,1.31,1.47,3.26,1.69,3.81l-0.47,35.99l1.98,5v13.93l22.93,1.02l-0.03-0.92
							c0-0.05-0.17-4.95,0.79-7.49c0.63-1.66,2.11-6.35,2.22-14.04c0.1-6.47,0.19-33.32,0-36.81c-0.11-1.95-0.95-5.16-1.77-8.26
							c-0.64-2.41-1.3-4.91-1.34-5.95c-0.09-2.31,0.64-10.61,1.3-13.93C95.47,473.49,96.67,427.74,96.71,425.86z"/>
					</g>
				</g>
				<g>
					<g>
						<path fill="#FFFFFF" d="M19.87,488.1l0.33,4.77c0,0,0.58-0.75,3.5-0.39c2.92,0.36,4.53,0.81,4.31-0.36
							c-0.22-1.17-1.97-3.2-4.94-4.43C20.1,486.45,19.87,488.1,19.87,488.1z"/>
					</g>
				</g>
				<g>
					<g>
						<g>
							<path fill="#C6DBE8" d="M48.83,555.9l-1.46,0.74c-0.06,0.03-5.81,2.9-12.22,2.45c-6.45-0.45-9.73-2.06-9.76-2.08l-1.23-0.62
								v3.69c-0.22,0.42-0.57,1.31-0.57,2.77c0,1.54,0.33,5.96,1.12,7.23c0.47,0.77,1.19,1.62,1.56,2.03
								c-0.01,1.05,0.11,3.24,1.32,3.95c0.73,0.43,1.97,0.47,3.67,0.52c1.34,0.04,2.86,0.08,4.29,0.34
								c0.96,0.17,1.86,0.26,2.74,0.26c1.79,0,3.45-0.37,5.15-1.12c2.16-0.95,4.69-3.61,4.8-3.73l0.22-0.23l0.01-0.32
								c0-0.06,0.05-1.5,0-2.65c-0.05-1.09,0.02-3.72,0.02-3.72c0.04-0.62,0.25-3.78-0.03-4.81c-0.14-0.53-0.01-2.13,0.13-3.09
								L48.83,555.9z"/>
						</g>
					</g>
					<g>
						<g>
							<path fill="#C6DBE8" d="M94.06,568.59c0.03-0.14,0.24-0.6,0.4-0.94c0.61-1.31,1.45-3.11,0.69-4.36
								c-0.4-0.65-1.11-1-2.13-1.04c-3.45-0.14-21.26-0.7-21.44-0.71l-0.6-0.02l-0.22,0.56c-0.06,0.17-0.63,1.66-0.57,2.93
								c0.04,1,0.37,2.04,0.51,2.45c-0.09,1.91-0.32,6.51-0.5,7.44l-0.07,0.33c-0.51,2.61-0.69,4.29-0.08,5.11
								c0.22,0.3,0.54,0.48,0.9,0.51c0.71,0.06,1.38-0.45,2.39-1.22c1.26-0.96,2.98-2.29,4.63-2.13c2.6,0.24,7.73,0.91,9.24,1.12
								c0.55,0.97,1.74,2.74,3.15,2.8c0.02,0,0.05,0,0.07,0c1.75,0,3.5-2.24,3.67-4.06l0.1-1.13c0.11-1.25,0.32-3.59,0.47-4.05
								c0.21-0.64-0.03-1.43-0.3-2.27C94.23,569.44,94.05,568.85,94.06,568.59z"/>
						</g>
					</g>
				</g>
				<g>
					<g>
						<g>
							<path fill="#2A719E" d="M16.9,400.8c-3.81,0-7.18-0.65-7.32-0.67c-0.46-0.09-0.76-0.53-0.67-0.99
								c0.09-0.46,0.53-0.76,0.99-0.67c0.03,0.01,3.36,0.64,7,0.64c2.61,0,5.41-5.4,6.19-7.29c0.18-0.43,0.67-0.64,1.11-0.46
								c0.43,0.18,0.64,0.67,0.46,1.11C24.3,393.31,21.11,400.8,16.9,400.8z"/>
						</g>
					</g>
				</g>
				<g>
					<g>
						<g>
							<path fill="#2A719E" d="M83.43,400.87c-0.56,0-1.13-0.02-1.68-0.07c-5.71-0.5-10.33-7.43-10.53-7.73
								c-0.26-0.39-0.15-0.92,0.24-1.17c0.39-0.26,0.92-0.15,1.17,0.24c0.04,0.07,4.37,6.54,9.26,6.97
								c5.13,0.45,11.18-1.63,11.24-1.65c0.44-0.16,0.93,0.08,1.08,0.52c0.15,0.44-0.08,0.93-0.52,1.08
								C93.45,399.14,88.42,400.87,83.43,400.87z"/>
						</g>
					</g>
				</g>
				<g>
					<g>
						<g>
							<path fill="#2A719E" d="M71.92,394.49h-2.54c-0.39,0-0.74-0.27-0.83-0.65l-1.13-4.81c-0.09-0.4,0.11-0.81,0.49-0.97
								l2.93-1.26c0.25-0.11,0.53-0.09,0.76,0.04c0.23,0.13,0.39,0.37,0.42,0.63l0.74,6.06c0.03,0.24-0.05,0.48-0.21,0.67
								C72.4,394.39,72.17,394.49,71.92,394.49z M70.05,392.8h0.91l-0.49-3.99l-1.24,0.53L70.05,392.8z"/>
						</g>
					</g>
				</g>
				<g>
					<g>
						<g>
							<path fill="#2A719E" d="M26.41,393.45c-0.04,0-0.08,0-0.13-0.01l-3.11-0.47c-0.23-0.04-0.44-0.17-0.57-0.36
								c-0.13-0.19-0.18-0.43-0.13-0.66l0.57-2.58c0.1-0.44,0.52-0.73,0.96-0.66l3.98,0.65c0.28,0.05,0.51,0.22,0.63,0.48
								c0.12,0.25,0.1,0.55-0.04,0.79l-1.43,2.4C26.99,393.3,26.71,393.45,26.41,393.45z M24.33,391.43l1.65,0.25l0.5-0.84
								l-1.95-0.32L24.33,391.43z"/>
						</g>
					</g>
				</g>
				<g>
					<g>
						<g>
							<path fill="#2A719E" d="M49.17,419.74c-0.03,0-0.05,0-0.08,0c-0.47-0.04-0.81-0.45-0.77-0.92
								c0.01-0.11,0.99-11.13,1.08-14.55c0.09-3.33-2.12-12.4-2.14-12.5c-0.11-0.45,0.17-0.91,0.62-1.03
								c0.45-0.11,0.91,0.17,1.03,0.62c0.09,0.38,2.29,9.38,2.19,12.94c-0.09,3.47-1.04,14.2-1.08,14.66
								C49.97,419.41,49.6,419.74,49.17,419.74z"/>
						</g>
					</g>
				</g>
				<g>
					<g>
						<g>
							<path fill="#FFFFFF" d="M77.2,476.85c-0.62,0-1.39-0.22-1.93-0.74c-0.45-0.43-0.66-1-0.6-1.61c0.13-1.39,2.48-2.07,4.45-2.4
								c1.01-0.24,1.58,0.1,1.88,0.43c0.8,0.87,0.33,2.4,0.23,2.7c-0.08,0.23-0.25,0.41-0.48,0.51c-0.4,0.16-2.41,0.99-3.24,1.09
								C77.4,476.85,77.3,476.85,77.2,476.85z M79.27,472.93h0.01H79.27z"/>
						</g>
					</g>
				</g>
				<g>
					<g>
						<g>
							<path fill="#2A719E" d="M43.09,558.82c-0.01,0-0.03,0-0.04,0c-0.31-0.02-0.54-0.3-0.52-0.61c0.02-0.2,0.38-4.95,0.66-6.2
								c0.18-0.85,0.09-5.05-0.01-7.68c-0.01-0.29-1.03-29.13-1.39-32.08c-0.39-3.09,2.71-14.08,2.84-14.55
								c0.09-0.3,0.4-0.48,0.7-0.39c0.3,0.09,0.47,0.4,0.39,0.7c-0.03,0.11-3.17,11.23-2.81,14.1c0.38,3.01,1.36,30.99,1.4,32.18
								c0.03,0.68,0.26,6.7-0.01,7.96c-0.26,1.17-0.63,6-0.63,6.05C43.63,558.59,43.38,558.82,43.09,558.82z"/>
						</g>
					</g>
				</g>
				<g>
					<g>
						<g>
							<path fill="#94B4C9" d="M37.7,564.19c-0.1,0-0.19,0-0.29,0c-3.2-0.09-11.49-0.91-11.84-0.95c-0.47-0.05-0.81-0.46-0.76-0.93
								c0.05-0.47,0.47-0.81,0.93-0.76c0.09,0.01,8.58,0.85,11.72,0.94c3.03,0.09,8.24-1.55,8.29-1.56
								c0.45-0.14,0.92,0.11,1.06,0.55c0.14,0.45-0.11,0.92-0.55,1.06C46.05,562.61,41.02,564.19,37.7,564.19z"/>
						</g>
					</g>
				</g>
				<g>
					<g>
						<g>
							<path fill="#94B4C9" d="M91.71,568.24c-0.08,0-2.09-0.01-4.69-0.53c-2-0.4-10.25-0.12-13.27,0.02
								c-0.46,0.01-0.86-0.34-0.89-0.81c-0.02-0.47,0.34-0.87,0.81-0.89c0.45-0.02,11.06-0.51,13.68,0.02
								c2.42,0.49,4.34,0.5,4.36,0.5c0.47,0,0.85,0.38,0.85,0.85C92.56,567.86,92.18,568.24,91.71,568.24z"/>
						</g>
					</g>
				</g>
				<g>
					<g>
						<g>
							<path fill="#223A49" d="M95.22,601.77c-0.19-1.05-0.4-2.24-0.35-3.78l0.03-0.77c0.06-1.81,0.06-1.88-0.27-3.63l-0.24-1.29
								c-0.63-3.48-2.23-6.61-2.29-6.73l-0.48-0.96l-0.08-4.07c0-0.2-0.08-0.4-0.22-0.55l-2.78-3.09c-0.15-0.16-0.35-0.26-0.58-0.28
								l-11.12-0.71c-0.18-0.01-0.37,0.04-0.52,0.14l-0.89,0.59c-0.21,0.01-0.42,0.03-0.65,0.06c-0.28,0.04-0.52,0.21-0.64,0.46
								c-0.06,0.12-0.09,0.25-0.09,0.39l-1.31,0.86c-0.27,0.18-0.42,0.5-0.37,0.82c0,0.02,0.01,0.05,0.01,0.07
								c-2.64,2.7-5.56,6.08-5.23,7.58c0.22,0.97,0.84,1.67,1.72,1.91c0.23,0.06,0.46,0.09,0.7,0.09c0.79,0,1.61-0.35,2.27-0.95
								c-1.97,5.11-4.55,9.17-4.59,9.24c-0.25,0.39-0.14,0.92,0.26,1.17c0.14,0.09,0.3,0.13,0.46,0.13c0.28,0,0.55-0.14,0.71-0.39
								c0.15-0.24,2.19-3.44,4.04-7.77c-0.37,3.98-0.93,9.52-1.12,10.13c-0.08,0.16-0.21,0.38-0.36,0.64
								c-0.7,1.22-1.24,2.21-1.24,2.94v1.02c-0.55,0.85-2.26,3.64-2.17,5.76c0.01,0.25-0.01,0.54-0.03,0.85
								c-0.08,1.28-0.19,3.22,1.28,4.67c1.26,1.25,3.44,1.86,6.62,1.86c0.65,0,1.34-0.03,2.08-0.08
								c12.03-0.84,15.66-5.24,16.49-6.57c0.94-1.51,1.03-3.84,1.11-5.71c0.02-0.53,0.04-1,0.08-1.39
								C95.54,603.58,95.39,602.74,95.22,601.77z M69.32,587.16c-0.27-0.08-0.44-0.29-0.52-0.6c0.02-0.67,1.72-2.8,3.84-5.07
								c0.02,0.2,0.04,0.4,0.07,0.6c-0.73,2.15-1.48,4.05-1.9,4.49C70.37,587.05,69.76,587.29,69.32,587.16z"/>
						</g>
					</g>
					<g>
						<g>
							<path fill="#223A49" d="M46.12,574.63c0.07-0.26,0.01-0.55-0.16-0.76c-0.17-0.21-0.44-0.33-0.71-0.31l-17.09,1.04
								c-0.38,0.02-0.69,0.29-0.77,0.66c-0.04,0.05-0.09,0.11-0.12,0.17c-0.06,0.13-0.07,0.26-0.07,0.39
								c-10.24,5.18-9.86,6.84-9.73,7.39c0.15,0.62,0.45,1.02,0.91,1.19c0.15,0.06,0.3,0.08,0.45,0.08c0.67,0,1.36-0.51,2.31-1.22
								c0.58-0.43,1.24-0.93,2.01-1.39c1.26-0.77,2.51-1.86,3.51-2.83l-0.6,3.24c-0.46,0.9-3.4,6.63-4.55,9.37
								c-1.16,2.77-8.06,11.39-11.36,14.19c-2.97,2.52-3.16,2.83-3.38,5.49c-0.04,0.46-0.09,1-0.16,1.66
								c-0.17,1.5-0.35,3.05,0.7,4.18c1.1,1.19,3.34,1.69,8.46,1.69c1.44,0,3.11-0.04,5.05-0.11c12.58-0.48,14.53-9.15,14.81-11.18
								l10.82-8.07c0.2-0.15,0.32-0.38,0.34-0.63c0.02-0.31,0.47-7.53,0.47-8.44c0-0.97-0.71-6.2-1.84-8.36
								C44.8,580.85,45.52,576.86,46.12,574.63z"/>
						</g>
					</g>
				</g>
				<g>
					<g>
						<g>
							<path fill="#2A719E" d="M51.67,423.61c-0.07,0-0.14-0.01-0.21-0.03c-11.49-2.9-20.66-6.4-20.75-6.44
								c-0.44-0.17-0.66-0.66-0.49-1.1c0.17-0.44,0.66-0.65,1.1-0.49c0.09,0.03,9.17,3.5,20.55,6.38c0.45,0.11,0.73,0.58,0.61,1.03
								C52.39,423.35,52.04,423.61,51.67,423.61z"/>
						</g>
					</g>
				</g>
				<g>
					<g>
						<g>
							<path fill="#2A719E" d="M45.16,490.89h-0.02c-0.47-0.01-0.84-0.4-0.83-0.86l1.27-65.21c0.01-0.47,0.44-0.82,0.86-0.83
								c0.47,0.01,0.84,0.4,0.83,0.86l-1.27,65.21C46,490.52,45.62,490.89,45.16,490.89z"/>
						</g>
					</g>
				</g>
				<g>
					<g>
						<path fill="#4986B4" d="M69.6,207.62l-0.72-1.86h0c0.27-0.02,0.51-0.17,0.65-0.4c0.14-0.23,0.17-0.51,0.07-0.76
							c-0.72-1.81-5.42-10.19-9.62-13.19c-3.24-2.31-6.14-1.93-7.46-1.56c-0.73-1.2-2.12-3.28-3.28-3.72
							c-1.78-0.68-7.73-0.8-16.83,1.67c-9.13,2.48-13.35,11.13-15.61,15.78c-0.24,0.49-0.46,0.94-0.66,1.33
							c-2.25,4.4-0.08,8.45,0.01,8.62c0.13,0.23,0.36,0.39,0.62,0.43c0.2,0.03,0.41-0.02,0.58-0.13c0.19,0.83,0.4,1.83,0.5,2.43
							c0.24,1.58,0.94,3.35,1.92,4.85c1.04,1.6,4.89,7.72,4.89,7.72c0.16,0.25,0.43,0.4,0.72,0.4c0.05,0,0.1,0,0.14-0.01l42.59-7.35
							c0.36-0.06,0.64-0.35,0.69-0.71l0.85-5.56c0.01-0.04,0.01-0.08,0.01-0.13v-7.54C69.66,207.83,69.64,207.72,69.6,207.62z"/>
					</g>
				</g>
				<g>
					<g>
						<path fill="#223A49" d="M37.34,255.42c0,0-4.43,0.77-5.75,1.8c-1.32,1.03-5.18,2.72-5.18,2.72s-7.87,2.07-10.44,2.92
							c-2.57,0.85-11.89,6.22-11.89,6.22l-0.94,1.22l14.51,22.99l0.94,58.23l-8.86,33.45c0,0,12.72,7.35,35.99,5.75
							c23.27-1.6,38.82-6.22,42.31-6.22c3.49,0,6.03,1.7,6.88,4.24c0.85,2.54,2.07,1.41,1.88,0.09c-0.19-1.32-3.11-7.07-2.83-9.05
							c0.28-1.98-0.19-5.94-0.75-8.2c-0.57-2.26-1.22-5.37-1.22-5.37l-1.6-14.32l-5.65-55.5c0,0,10.08-11.68,19.88-9.89
							c0,0-5.18-21.2-12.72-24.87c-7.54-3.67-11.78-3.77-11.78-3.77L37.34,255.42z"/>
					</g>
				</g>
				<g>
					<g>
						<path fill="#EAB334" d="M80.93,257.62c-0.08-0.25-0.26-0.45-0.51-0.54c-2.45-0.95-9.1-3.83-10.44-5.77
							c-1.75-2.53-5.11-8.49-5.14-8.55c-0.2-0.36-0.64-0.53-1.03-0.38l-23.42,8.62c-0.2,0.07-0.37,0.22-0.46,0.41
							c-0.61,1.2-1.87,2.99-2.76,3.18c-0.36,0.08-0.62,0.38-0.66,0.74c-0.01,0.14-1.3,14.32,16.09,16.57
							c1.13,0.15,2.23,0.21,3.31,0.21c15.19,0,24.82-13.62,24.92-13.76C80.96,258.14,81.01,257.87,80.93,257.62z"/>
					</g>
				</g>
				<g>
					<g>
						<path fill="#EAB334" d="M70.51,220.24c0.08-5.28-1.09-5.51-1.53-5.6c-0.99-0.2-2.5,0.88-3.1,1.35c-0.63,0.5-1.93,1.63-2.51,3
							c-1.14-1.31-3.24-4.18-4.99-6.59c-5.59-7.67-7.52-10.06-8.74-10.12c-2.02-0.1-14.55,2.89-15.97,3.23
							c-0.16,0.04-0.3,0.12-0.41,0.24c-0.21,0.22-5.09,5.32-5.69,8.93c-0.55,3.32-2.98,13.41-3,13.51
							c-0.04,0.17-0.03,0.35,0.04,0.52c0.93,2.27,3.37,8.55,3.52,10.3c0.22,2.62,3.99,7.3,7.21,9.75c0.6,0.46,1.34,1.03,2.15,1.65
							c4.53,3.49,8.09,6.2,9.43,6.59c0.45,0.13,0.91,0.2,1.39,0.2c1.63,0,3.46-0.77,5.75-2.39c3.15-2.24,9.48-7.48,10.86-11.34
							c1.52-4.23,1.75-7.25,1.75-8.67v-3.97c0.72-1.03,3.3-4.78,3.83-6.74C71,222.17,70.66,220.73,70.51,220.24z"/>
					</g>
				</g>
				<g>
					<g>
						<path fill="#FBFCE9" d="M17.93,275.39l9.73,27.61c0.44,1.24,1.61,2.07,2.92,2.07h17.39c1.26,0,2.14-1.23,1.74-2.43
							l-9.74-27.82c0,0-0.34-2.54-2.67-2.54s-17.59,0-17.59,0S16.92,272.53,17.93,275.39z"/>
					</g>
				</g>
				<g>
					<g>
						<g>
							<path fill="#223A49" d="M42.39,202.65c-0.04,0-0.08,0-0.12-0.01c-0.31-0.07-0.5-0.36-0.44-0.67
								c0.27-1.26,0.71-4.85-0.42-6.24c-0.31-0.38-0.72-0.57-1.25-0.57c-3.63,0-7.61,2.1-7.65,2.12c-0.28,0.15-0.62,0.04-0.77-0.23
								c-0.15-0.28-0.04-0.62,0.23-0.77c0.17-0.09,4.27-2.26,8.18-2.26c0.89,0,1.6,0.33,2.13,0.99c1.7,2.1,0.69,6.98,0.65,7.19
								C42.89,202.47,42.66,202.65,42.39,202.65z"/>
						</g>
					</g>
				</g>
				<g>
					<g>
						<g>
							<path fill="#223A49" d="M47.31,199.76c-0.05,0-0.1-0.01-0.16-0.02c-0.3-0.09-0.47-0.4-0.39-0.7
								c0.34-1.19,1.04-4.83-0.17-5.84c-0.24-0.2-0.27-0.56-0.07-0.8c0.2-0.24,0.56-0.27,0.8-0.07c1.99,1.67,0.69,6.48,0.53,7.02
								C47.78,199.59,47.55,199.76,47.31,199.76z"/>
						</g>
					</g>
				</g>
				<g>
					<g>
						<g>
							<path fill="#223A49" d="M40.45,203.69c-0.09,0-0.17-0.02-0.25-0.06c-0.28-0.14-0.39-0.48-0.25-0.76
								c0.32-0.65,1.09-2.54,0.73-3.53c-0.09-0.23-0.23-0.38-0.44-0.48c-0.29-0.12-0.42-0.46-0.3-0.74c0.12-0.29,0.46-0.42,0.74-0.3
								c0.5,0.22,0.87,0.61,1.06,1.13c0.59,1.62-0.64,4.14-0.78,4.42C40.86,203.57,40.66,203.69,40.45,203.69z"/>
						</g>
					</g>
				</g>
				<g>
					<g>
						<g>
							<path fill="#223A49" d="M44.83,202.65c-0.07,0-0.15-0.01-0.22-0.04c-0.29-0.12-0.42-0.45-0.3-0.74
								c0.02-0.04,1.82-4.38,1.1-7.13c-0.08-0.3,0.1-0.61,0.4-0.69c0.3-0.08,0.61,0.1,0.69,0.4c0.82,3.12-1.08,7.66-1.16,7.85
								C45.26,202.52,45.05,202.65,44.83,202.65z"/>
						</g>
					</g>
				</g>
				<g>
					<g>
						<g>
							<path fill="#EAB334" d="M34.35,298.03l-4.67-1.52c0.5-0.23,0.9-0.37,1.09-0.36c0.74,0.05,2.11,0.15,3.01-0.73
								c0.54-0.54,0.79-1.3,0.73-2.28c-0.06-0.94-0.42-1.7-1.09-2.27c-0.93-0.79-2.41-1.12-4.5-1.03c0.61-0.48,1.04-1,1.13-1.53
								c0.14-0.83-0.14-1.75-0.76-2.54c-0.59-0.75-1.39-1.23-2.14-1.28c-0.8-0.06-8.28,0.94-9.26,2.15
								c-0.15,0.19-0.37,0.41-0.61,0.65c-0.77,0.77-1.62,1.64-1.8,2.56L5.38,273.61c-0.17-0.27-0.48-0.42-0.8-0.4
								c-0.32,0.03-0.6,0.24-0.71,0.53c-0.12,0.31-3,7.73-2.42,15.38c0.35,4.62,1.05,18.46,1.62,29.57
								c0.36,7.04,0.64,12.61,0.75,14.14c0.29,4.19,0.87,9.42,1.64,11.54l0.18,0.5c0.91,2.54,2.6,7.28,5.54,8.65
								c0.52,0.24,1.06,0.36,1.62,0.36c2.28,0,4.85-2.01,7.54-5.93c2.39-3.47,4.86-7.57,5.05-11.56c0.17-3.57,1.91-18.82,2.21-21.42
								c0.86-0.63,2.76-2.19,2.76-3.77v-2.62c0.93-0.58,2.9-2,2.9-3.74c0-0.62-0.04-1.13-0.13-1.54c0.69-0.43,1.6-1.13,1.8-1.93
								c0.25-0.98,0.04-2.49,0.02-2.66C34.89,298.39,34.66,298.13,34.35,298.03z"/>
						</g>
					</g>
					<g>
						<g>
							<path fill="#EAB334" d="M104.34,285.89c-0.19-0.17-0.45-0.25-0.7-0.21l-18.62,2.92c-0.41,0.06-0.71,0.41-0.72,0.83
								l-0.43,33.07c-4.6-4.51-18.69-18.32-19.85-19.23c-0.92-0.72-6.51-7.79-9.82-12.08c-0.04-0.06-0.1-0.11-0.15-0.15
								c-0.03-0.03-3.36-2.59-4.44-3.67c-1.3-1.3-3.82-1.62-4.11-1.66c-0.05-0.01-0.11-0.01-0.16,0l-7.56,0.57
								c-0.13,0.01-0.25,0.05-0.36,0.11c-0.33,0.19-3.25,1.93-3.26,4.12c0,1.18,0.51,2.15,0.99,2.79c-0.71,0.65-1.04,1.65-0.99,2.98
								c0.07,1.69,2.19,2.55,3.46,2.92c-0.09,0.4-0.2,0.92-0.33,1.43c-0.29,1.15,0.52,2.47,1.04,3.16
								c-0.14,0.42-0.26,1.06-0.22,1.96c0.1,2.01,2.57,2.87,2.88,2.97l6,1.7c2.74,2.74,7.14,4.21,8.34,4.57
								c1.05,1.5,6.72,9.56,10.15,14.32c2.71,3.76,9.41,10.67,14.3,15.72c2.07,2.13,3.85,3.97,4.84,5.06
								c3.19,3.53,5.08,3.81,5.61,3.81c0.04,0,0.07,0,0.1,0c9.75-0.68,10.99-19.97,11.03-20.79l3.25-46.52
								C104.63,286.31,104.53,286.06,104.34,285.89z"/>
						</g>
					</g>
				</g>
				<g>
					<g>
						<g>
							<path fill="#EAB334" d="M8.51,336.83c-0.03,0-0.06,0-0.09,0c-0.47-0.05-0.8-0.47-0.75-0.94c0.57-5.16,3.63-10.21,4.03-10.85
								c2.21-5.22,7.96-18.99,8.4-21.08c0.37-1.71-1.77-7.03-3.21-9.98c-0.2-0.42-0.03-0.93,0.39-1.13c0.42-0.2,0.93-0.03,1.13,0.39
								c0.41,0.83,3.95,8.23,3.35,11.08c-0.58,2.69-8.2,20.68-8.53,21.45c-0.02,0.04-0.04,0.08-0.07,0.12
								c-0.03,0.05-3.26,5.18-3.82,10.19C9.31,336.51,8.94,336.83,8.51,336.83z M12.45,325.43h0.01H12.45z"/>
						</g>
					</g>
				</g>
				<g>
					<g>
						<g>
							<path fill="#EAB334" d="M49.5,296.12c-0.13,0-0.27-0.03-0.4-0.1l-5.75-3.06l-5.85,1.32c-0.46,0.1-0.91-0.18-1.01-0.64
								c-0.1-0.46,0.18-0.91,0.64-1.01l6.15-1.39c0.2-0.04,0.41-0.02,0.58,0.08l6.03,3.2c0.41,0.22,0.57,0.73,0.35,1.15
								C50.09,295.96,49.8,296.12,49.5,296.12z"/>
						</g>
					</g>
				</g>
				<g>
					<g>
						<g>
							<path fill="#EAB334" d="M47.64,300.27c-0.13,0-0.25-0.03-0.37-0.09l-3.94-1.93l-3.62,1.1c-0.45,0.14-0.92-0.12-1.06-0.56
								c-0.14-0.45,0.12-0.92,0.56-1.06l3.94-1.2c0.21-0.06,0.43-0.04,0.62,0.05l4.24,2.07c0.42,0.21,0.6,0.71,0.39,1.13
								C48.26,300.09,47.96,300.27,47.64,300.27z"/>
						</g>
					</g>
				</g>
				<g>
					<g>
						<g>
							<path fill="#EAB334" d="M46.75,305.36c-0.04,0-0.07,0-0.11-0.01l-6.58-0.87c-0.46-0.06-0.79-0.49-0.73-0.95
								c0.06-0.46,0.48-0.79,0.95-0.73l6.58,0.87c0.46,0.06,0.79,0.49,0.73,0.95C47.53,305.05,47.17,305.36,46.75,305.36z"/>
						</g>
					</g>
				</g>
				<g>
					<g>
						<g>
							<path fill="#D19620" d="M65.5,226.96c-0.31,0-0.57-0.25-0.57-0.57v-4.24c0-2.22,1.95-3.89,2.04-3.96
								c0.24-0.2,0.59-0.17,0.8,0.07c0.2,0.24,0.17,0.59-0.06,0.8c-0.02,0.01-1.64,1.42-1.64,3.1v4.24
								C66.07,226.71,65.81,226.96,65.5,226.96z"/>
						</g>
					</g>
				</g>
				<g>
					<g>
						<g>
							<path fill="#D19620" d="M65.5,223.53c-0.31,0-0.57-0.25-0.57-0.57c0-0.74,0.32-1.18,0.59-1.42c0.71-0.63,1.76-0.53,1.88-0.51
								c0.31,0.04,0.53,0.32,0.5,0.63c-0.04,0.31-0.31,0.53-0.63,0.5l0,0c-0.18-0.02-0.72-0.02-1,0.24
								c-0.05,0.05-0.21,0.19-0.21,0.58C66.07,223.28,65.81,223.53,65.5,223.53z"/>
						</g>
					</g>
				</g>
				<g>
					<g>
						<g>
							<path fill="#4986B4" d="M68.33,232.42c-1.39,0-2.47-1.45-2.47-3.3c0-1.85,1.09-3.3,2.47-3.3c1.39,0,2.47,1.45,2.47,3.3
								C70.8,230.98,69.71,232.42,68.33,232.42z M68.33,226.96c-0.73,0-1.34,0.99-1.34,2.17c0,1.17,0.62,2.17,1.34,2.17
								c0.73,0,1.34-0.99,1.34-2.17C69.67,227.96,69.05,226.96,68.33,226.96z"/>
						</g>
					</g>
				</g>
			</g>
		</g>
		<g>
			<g>
				<g>
					<rect x="131.2" y="26.9" fill="#FFFFFF" width="28.16" height="28.16"/>
				</g>
			</g>
		</g>
	</g>
</g>
</svg>
