<svg enable-background="new 0 0 512 512" viewBox="0 0 512 512" xmlns="http://www.w3.org/2000/svg"><path d="m426.9 491c-114.2 28-228.4 28-341.8 0-27.1-7.4-57.5-37-64.1-64.1-28-114.2-28-228.4 0-341.8 7.4-27.1 37-57.5 64.1-64.1 114.2-28 228.4-28 341.8 0 27.1 7.4 57.5 37 64.1 64.1 27.9 114.2 27.9 228.5 0 341.9-6.5 27.1-36.1 57.5-64.1 64z" fill="#fdd402"/><circle cx="230.5" cy="246.1" r="166.8"/><path d="m436 426.9c-1.6 0-2.5-.8-4.1-1.6l-92-60.8c-7.4 5.8-15.6 12.3-23 17.3-1.6.8-1.6.8-3.3.8-1.6 0-4.1-.8-4.9-2.5l-34.5-45.2-117.6-150.4c-1.6-2.5-1.6-5.8.8-7.4 1.6-1.6 2.5-1.6 4.9-1.6 1.6 0 3.3.8 4.1 1.6l142.2 120.8c4.9-6.6 9-14.8 11.5-22.2.8-1.6 2.5-4.1 4.9-4.9h1.6c1.6 0 4.1.8 4.9 2.5l37 48.5 73.1 94.5c1.6 2.5 1.6 5.8-.8 7.4s-3.2 3.2-4.8 3.2z" fill="#fbbe02"/><path d="m161.5 180.4 147.9 124.9c7.4-8.2 13.1-18.9 16.4-29.6l37 48.5 73.1 96.2-95.3-63.3c-7.4 7.4-16.4 14-25.5 18.9l-35.3-46zm0-12.3c-3.3 0-5.8 1.6-8.2 4.1-4.9 4.9-4.9 11.5-1.6 16.4l116.7 151.2 34.5 45.2c2.5 3.3 5.8 4.9 9.9 4.9 2.5 0 4.9-.8 5.8-1.6 7.4-4.9 14-9 20.5-14.8l88.8 57.5c1.6 1.6 4.9 1.6 6.6 1.6 3.3 0 6.6-1.6 9-4.1 4.9-4.9 4.9-10.7.8-16.4l-74-95.3-37-48.5c-2.5-3.3-5.8-4.9-9.9-4.9-.8 0-1.6 0-1.6 0-4.9.8-7.4 4.1-9.9 7.4-1.6 5.8-4.9 10.7-7.4 16.4l-135.6-115c-1.7-2.5-4.1-4.1-7.4-4.1z"/><path d="m265.9 336.5c-9 4.1-18.1 5.8-27.9 5.8-53.4 4.9-98.6-35.3-103.6-87.9-1.6-22.2 4.9-45.2 17.3-63.3 4.1-5.8 7.4-9.9 13.1-15.6 15.6-15.6 35.3-24.7 56.7-26.3 54.2-4.9 101.1 35.3 106 88.8.8 5.8.8 9.9.8 16.4l42.7 55.1c34.5-78.1 0-169.3-78.1-204.6-78.1-34.5-168.5 0-202.2 78.1 0 .8-.8 1.6-.8 1.6-34.5 78.9 0 170.1 78.1 205.5 23.8 9.9 49.3 14.8 75.6 13.1 20.5-1.6 40.3-8.2 58.3-18.1z" fill="#fff"/></svg>